<svg version="1.1" xmlns="http://www.w3.org/2000/svg" width="120px" height="120px" viewBox="0 0 118.7 118.7">.
<title>bases icon</title>
<style type="text/css">
	.st0{fill:url(#SVGID_1_);}
	.st1{fill:#FFFFFF;}
</style>
<linearGradient id="SVGID_1_" gradientUnits="userSpaceOnUse" x1="59.3747" y1="0" x2="59.3747" y2="118.7495">
	<stop  offset="0" style="stop-color:#4285F4"/>
	<stop  offset="1" style="stop-color:#4470B3"/>
</linearGradient>
<path class="st0" d="M106.7,118.7H12c-6.6,0-12-5.4-12-12V12C0,5.4,5.4,0,12,0h94.7c6.6,0,12,5.4,12,12v94.7
	C118.7,113.3,113.3,118.7,106.7,118.7z"/>
	<path class="st1" d="M95.2,105.2c-0.1-0.8-0.8-1.5-1.6-1.5H52.5c-0.9,0-1.7,0.7-1.7,1.7c0,0.2,0.1,2.8,0.1,2.8h44.3L95.2,105.2
		L95.2,105.2z"/>
	<rect x="70.4" y="51" class="st1" width="5.8" height="4.5"/>
	<path class="st1" d="M73.1,9.7c-1.7,0.2-1.5,3.3,0.8,3.2c14.7,0,26.7,12,26.7,26.7c0,1.8,2.8,1.9,2.9,0.3
		C103.5,23.2,89.9,9.7,73.1,9.7z"/>
	<path class="st1" d="M73.1,16.7c-2.4,0.1-2.3,4.1,0.4,4c11,0,20,8.9,20,20c0,1.8,3.3,1.8,3.2-0.4C96.7,27.2,86.1,16.7,73.1,16.7z"
		/>
	<path class="st1" d="M73.3,24.1c-2.1,0-2.1,3.3,0.1,3.3c7.2,0,13.1,5.9,13.1,13.1c0.1,2,3.2,1.7,3-0.1
		C89.5,31.3,82.2,24.1,73.3,24.1z"/>
	<rect x="62.2" y="56.6" class="st1" width="22.2" height="6"/>
	<path class="st1" d="M86.7,63.3L59,63.1l-4.3,40h35.9L86.7,63.3z M82.4,84.6l-10.2,6.8l-10.2-6.8H82.4z M62.9,82.6l9.4-7.2l9.4,7.2
		H62.9z M83.2,81.1L74,74.1l7.8-6L83.2,81.1z M64.1,65h17.3l0.1,0.6l-9.3,7.1L64,66.4L64.1,65z M63.7,68.9l6.8,5.2l-8,6.2L63.7,68.9
		z M61.8,86.7l8.7,5.8l-10.1,6.7L61.8,86.7z M61.3,101l10.9-7.3l10.9,7.3H61.3z M74,92.5l9.7-6.5l1.5,14L74,92.5z"/>
	<circle class="st1" cx="73.3" cy="40.6" r="9.4"/>
	<path class="st1" d="M19.8,97c0.1-0.6,0.5-1,1.1-1h28.5c0.6,0,1.1,0.5,1.1,1.1c0,0.2-0.1,2-0.1,2H19.8L19.8,97L19.8,97z"/>
		<rect x="33" y="59.4" transform="matrix(-1 -4.452406e-11 4.452406e-11 -1 70.0402 122.0117)" class="st1" width="4" height="3.1"/>
	<path class="st1" d="M35.2,30.7c1.2,0.2,1,2.3-0.6,2.2c-10.2,0-18.5,8.3-18.5,18.5c0,1.2-2,1.3-2,0.2
		C14.1,40.1,23.5,30.7,35.2,30.7z"/>
	<path class="st1" d="M35.2,35.6c1.7,0.1,1.6,2.9-0.3,2.8c-7.6,0-13.8,6.2-13.8,13.8c0,1.3-2.3,1.3-2.2-0.3
		C18.8,42.9,26.1,35.6,35.2,35.6z"/>
	<path class="st1" d="M35.1,40.7c1.5,0,1.4,2.3-0.1,2.3c-5,0-9.1,4.1-9.1,9.1c-0.1,1.4-2.2,1.2-2.1-0.1
		C23.8,45.8,28.8,40.7,35.1,40.7z"/>
		<rect x="27.3" y="63.3" transform="matrix(-1 -4.493751e-11 4.493751e-11 -1 70.0895 130.7591)" class="st1" width="15.4" height="4.2"/>
	<path class="st1" d="M23.1,95.5H48l-3-27.7L25.8,68L23.1,95.5z M42.8,82.7l-7.1,4.7l-7.1-4.7H42.8z M29.3,81.4l6.5-5l6.5,5H29.3z
		 M29.2,71.3l5.4,4.1l-6.4,4.9L29.2,71.3z M41.5,70.1l-5.7,4.4l-6.4-4.9l0-0.4h12L41.5,70.1z M42.5,79.7L37,75.4l4.7-3.6L42.5,79.7z
		 M44,92.9l-7-4.7l6.1-4L44,92.9z M28.2,94.1l7.6-5l7.6,5H28.2z M26.8,93.4l1.1-9.7l6.7,4.5L26.8,93.4z"/>
	<circle class="st1" cx="35.1" cy="52.2" r="6.5"/>
</svg>