<svg version="1.1" xmlns="http://www.w3.org/2000/svg" width="89.5px" height="98.6px" viewBox="0 0 89.5 98.6">
<title>bases icon</title>
<style type="text/css">
	.st0{fill:url(#SVGID_1_);}
	.st1{fill:url(#SVGID_2_);}
	.st2{fill:url(#SVGID_3_);}
	.st3{fill:url(#SVGID_4_);}
	.st4{fill:url(#SVGID_5_);}
	.st5{fill:url(#SVGID_6_);}
	.st6{fill:url(#SVGID_7_);}
	.st7{fill:url(#SVGID_8_);}
	.st8{fill:url(#SVGID_9_);}
	.st9{fill:url(#SVGID_10_);}
	.st10{fill:url(#SVGID_11_);}
	.st11{fill:url(#SVGID_12_);}
	.st12{fill:url(#SVGID_13_);}
	.st13{fill:url(#SVGID_14_);}
	.st14{fill:url(#SVGID_15_);}
	.st15{fill:url(#SVGID_16_);}
</style>
	<linearGradient id="SVGID_1_" gradientUnits="userSpaceOnUse" x1="58.9839" y1="94.1047" x2="58.9839" y2="98.5985">
		<stop  offset="0" style="stop-color:#4285F4"/>
		<stop  offset="1" style="stop-color:#4470B3"/>
	</linearGradient>
	<path class="st0" d="M81.2,95.6c-0.1-0.8-0.8-1.5-1.6-1.5H38.4c-0.9,0-1.7,0.7-1.7,1.7c0,0.2,0.1,2.8,0.1,2.8h44.3L81.2,95.6
		L81.2,95.6z"/>
	<linearGradient id="SVGID_2_" gradientUnits="userSpaceOnUse" x1="59.2703" y1="41.3691" x2="59.2703" y2="45.8628">
		<stop  offset="0" style="stop-color:#4285F4"/>
		<stop  offset="1" style="stop-color:#4470B3"/>
	</linearGradient>
	<rect x="56.4" y="41.4" class="st1" width="5.8" height="4.5"/>
	<linearGradient id="SVGID_3_" gradientUnits="userSpaceOnUse" x1="73.7081" y1="0" x2="73.7081" y2="31.3142">
		<stop  offset="0" style="stop-color:#4285F4"/>
		<stop  offset="1" style="stop-color:#4470B3"/>
	</linearGradient>
	<path class="st2" d="M59.1,0c-1.7,0.2-1.5,3.3,0.8,3.2c14.7,0,26.7,12,26.7,26.7c0,1.8,2.8,1.9,2.9,0.3C89.5,13.5,75.9,0,59.1,0z"
		/>
	<linearGradient id="SVGID_4_" gradientUnits="userSpaceOnUse" x1="69.9799" y1="7.005" x2="69.9799" y2="32.2452">
		<stop  offset="0" style="stop-color:#4285F4"/>
		<stop  offset="1" style="stop-color:#4470B3"/>
	</linearGradient>
	<path class="st3" d="M59.1,7c-2.4,0.1-2.3,4.1,0.4,4c11,0,20,8.9,20,20c0,1.8,3.3,1.8,3.2-0.4C82.6,17.5,72.1,7,59.1,7z"/>
	<linearGradient id="SVGID_5_" gradientUnits="userSpaceOnUse" x1="66.553" y1="14.4065" x2="66.553" y2="32.1784">
		<stop  offset="0" style="stop-color:#4285F4"/>
		<stop  offset="1" style="stop-color:#4470B3"/>
	</linearGradient>
	<path class="st4" d="M59.2,14.4c-2.1,0-2.1,3.3,0.1,3.3c7.2,0,13.1,5.9,13.1,13.1c0.1,2,3.2,1.7,3-0.1
		C75.5,21.7,68.2,14.4,59.2,14.4z"/>
	<linearGradient id="SVGID_6_" gradientUnits="userSpaceOnUse" x1="59.2348" y1="46.9202" x2="59.2348" y2="52.9212">
		<stop  offset="0" style="stop-color:#4285F4"/>
		<stop  offset="1" style="stop-color:#4470B3"/>
	</linearGradient>
	<rect x="48.1" y="46.9" class="st5" width="22.2" height="6"/>
	<linearGradient id="SVGID_7_" gradientUnits="userSpaceOnUse" x1="58.5131" y1="53.4146" x2="58.5131" y2="93.3651">
		<stop  offset="0" style="stop-color:#4285F4"/>
		<stop  offset="1" style="stop-color:#4470B3"/>
	</linearGradient>
	<path class="st6" d="M72.6,53.7l-27.7-0.3l-4.3,40h35.9L72.6,53.7z M68.4,74.9l-10.2,6.8L48,74.9H68.4z M48.8,73l9.4-7.2l9.4,7.2
		H48.8z M69.1,71.5l-9.2-7.1l7.8-6L69.1,71.5z M50.1,55.4h17.3l0.1,0.6l-9.3,7.1l-8.3-6.3L50.1,55.4z M49.7,59.2l6.8,5.2l-8,6.2
		L49.7,59.2z M47.7,77.1l8.7,5.8l-10.1,6.7L47.7,77.1z M47.3,91.3L58.2,84l10.9,7.3H47.3z M59.9,82.9l9.7-6.5l1.5,14L59.9,82.9z"/>
	<linearGradient id="SVGID_8_" gradientUnits="userSpaceOnUse" x1="59.2042" y1="21.5436" x2="59.2042" y2="40.3117">
		<stop  offset="0" style="stop-color:#4285F4"/>
		<stop  offset="1" style="stop-color:#4470B3"/>
	</linearGradient>
	<circle class="st7" cx="59.2" cy="30.9" r="9.4"/>
	<linearGradient id="SVGID_9_" gradientUnits="userSpaceOnUse" x1="21.1537" y1="86.3691" x2="21.1537" y2="89.4865">
		<stop  offset="0" style="stop-color:#4285F4"/>
		<stop  offset="1" style="stop-color:#4470B3"/>
	</linearGradient>
	<path class="st8" d="M5.8,87.4c0.1-0.6,0.5-1,1.1-1h28.5c0.6,0,1.1,0.5,1.1,1.1c0,0.2-0.1,2-0.1,2H5.8L5.8,87.4L5.8,87.4z"/>
	<linearGradient id="SVGID_10_" gradientUnits="userSpaceOnUse" x1="20.9551" y1="49.7856" x2="20.9551" y2="52.903">
		<stop  offset="0" style="stop-color:#4285F4"/>
		<stop  offset="1" style="stop-color:#4470B3"/>
	</linearGradient>
	<polygon class="st9" points="19,52.9 23,52.9 23,49.8 19,49.8 	"/>
	<linearGradient id="SVGID_11_" gradientUnits="userSpaceOnUse" x1="10.9393" y1="21.0872" x2="10.9393" y2="42.8103">
		<stop  offset="0" style="stop-color:#4285F4"/>
		<stop  offset="1" style="stop-color:#4470B3"/>
	</linearGradient>
	<path class="st10" d="M21.1,21.1c1.2,0.2,1,2.3-0.6,2.2C10.3,23.3,2,31.6,2,41.8c0,1.2-2,1.3-2,0.2C0,30.5,9.4,21.1,21.1,21.1z"/>
	<linearGradient id="SVGID_12_" gradientUnits="userSpaceOnUse" x1="13.5256" y1="25.9467" x2="13.5256" y2="43.4562">
		<stop  offset="0" style="stop-color:#4285F4"/>
		<stop  offset="1" style="stop-color:#4470B3"/>
	</linearGradient>
	<path class="st11" d="M21.1,25.9c1.7,0.1,1.6,2.9-0.3,2.8C13.2,28.7,7,34.9,7,42.5c0,1.3-2.3,1.3-2.2-0.3
		C4.8,33.3,12.1,25.9,21.1,25.9z"/>
	<linearGradient id="SVGID_13_" gradientUnits="userSpaceOnUse" x1="15.9029" y1="31.0812" x2="15.9029" y2="43.4099">
		<stop  offset="0" style="stop-color:#4285F4"/>
		<stop  offset="1" style="stop-color:#4470B3"/>
	</linearGradient>
	<path class="st12" d="M21,31.1c1.5,0,1.4,2.3-0.1,2.3c-5,0-9.1,4.1-9.1,9.1c-0.1,1.4-2.2,1.2-2.1-0.1C9.7,36.1,14.8,31.1,21,31.1z"
		/>
	<linearGradient id="SVGID_14_" gradientUnits="userSpaceOnUse" x1="20.9797" y1="53.6365" x2="20.9797" y2="57.7995">
		<stop  offset="0" style="stop-color:#4285F4"/>
		<stop  offset="1" style="stop-color:#4470B3"/>
	</linearGradient>
	<polygon class="st13" points="13.3,53.6 28.7,53.6 28.7,57.8 13.3,57.8 	"/>
	<linearGradient id="SVGID_15_" gradientUnits="userSpaceOnUse" x1="21.4803" y1="58.1417" x2="21.4803" y2="85.856">
		<stop  offset="0" style="stop-color:#4285F4"/>
		<stop  offset="1" style="stop-color:#4470B3"/>
	</linearGradient>
	<path class="st14" d="M9,85.9h24.9l-3-27.7l-19.2,0.2L9,85.9z M28.8,73.1l-7.1,4.7l-7.1-4.7H28.8z M15.2,71.7l6.5-5l6.5,5H15.2z
		 M15.1,61.6l5.4,4.1l-6.4,4.9L15.1,61.6z M27.4,60.5l-5.7,4.4l-6.4-4.9l0-0.4h12L27.4,60.5z M28.5,70.1l-5.6-4.3l4.7-3.6L28.5,70.1
		z M29.9,83.2l-7-4.7l6.1-4L29.9,83.2z M14.1,84.4l7.6-5l7.6,5H14.1z M12.7,83.8l1.1-9.7l6.7,4.5L12.7,83.8z"/>
	<linearGradient id="SVGID_16_" gradientUnits="userSpaceOnUse" x1="21.0009" y1="36.0324" x2="21.0009" y2="49.0521">
		<stop  offset="0" style="stop-color:#4285F4"/>
		<stop  offset="1" style="stop-color:#4470B3"/>
	</linearGradient>
	<circle class="st15" cx="21" cy="42.5" r="6.5"/>
</svg>