<svg version="1.1" xmlns="http://www.w3.org/2000/svg" width="120px" height="120px" viewBox="0 0 118.7 118.7">
<title>kurssoft.ru favicon</title>
<style type="text/css">
	.st0{fill:url(#SVGID_1_);}
	.st1{fill:#FFFFFF;}
</style>
<linearGradient id="SVGID_1_" gradientUnits="userSpaceOnUse" x1="59.3747" y1="0" x2="59.3747" y2="118.7495">
	<stop  offset="0" style="stop-color:#4285F4"/>
	<stop  offset="1" style="stop-color:#4470B3"/>
</linearGradient>
<path class="st0" d="M106.7,118.7H12c-6.6,0-12-5.4-12-12V12C0,5.4,5.4,0,12,0h94.7c6.6,0,12,5.4,12,12v94.7
	C118.7,113.3,113.3,118.7,106.7,118.7z"/>
<path class="st1" d="M25.2,90.6c0-2.4,0.2-54.3,0.2-54.3c-0.2-8.3-5.2-10-5.2-12.4s1.3-3.1,3.5-3h21.2c2.9,0,3.6,1.2,3.5,4.1
	c0,1.4-0.1,30.3-0.1,30.3c0.1,2.8,2.8,3,5.3,0.2c7.5-9,16.4-23.2,19.6-30.3c0,0,2.3-4.5,4.9-4.3h16.1c2.8,0.3,3.6,3.5,2.7,5.2
	c-2.6,7.7-19.4,32.2-19.4,32.2c-1.5,2.1-1.8,4.2-0.1,5.6c1.3,1.4,17,18.9,19.8,24.1c2.1,3.7,2.4,8.5-1.1,8.8c-1.9,0-14.7,0-14.7,0
	s-5.4,0.8-8.3-3.5C70,89.1,56.3,76.1,53.8,74.8c-2.5-1.3-4.5-0.2-5.1,1.5c-0.6,1.7-0.4,16.3-0.4,16.3c-0.3,2.2-1.8,3.4-4.3,3.8
	l-13.3,0C26.9,96.2,25.4,94,25.2,90.6z"/>
</svg>