<svg version="1.1" xmlns="http://www.w3.org/2000/svg" width="120px" height="120px" viewBox="0 0 118.7 118.7">
<title>home icon</title>
<style type="text/css">
	.st0{fill:url(#SVGID_1_);}
	.st1{fill:#FFFFFF;}
</style>
<defs>
</defs>
<linearGradient id="SVGID_1_" gradientUnits="userSpaceOnUse" x1="59.3747" y1="0" x2="59.3747" y2="118.7495">
	<stop  offset="0" style="stop-color:#4285F4"/>
	<stop  offset="1" style="stop-color:#4470B3"/>
</linearGradient>
<path class="st0" d="M106.7,118.7H12c-6.6,0-12-5.4-12-12V12C0,5.4,5.4,0,12,0h94.7c6.6,0,12,5.4,12,12v94.7C118.7,113.3,113.3,118.7,106.7,118.7z"/>
	<path class="st1" d="M94.9,56.1L57.5,20.4L21,56.1h-0.3v5.5h5.7c0,0.2,0,0.3,0,0.5v26.5c0,3.2,2.6,5.8,5.8,5.8H40
		c0-0.1,0-0.2,0-0.3V73.9c0-4.1,3.4-7.5,7.5-7.5s7.5,3.4,7.5,7.5v20.2c0,0.1,0,0.2,0,0.3h27.7c3.2,0,5.8-2.6,5.8-5.8V62.1
		c0-0.2,0-0.3,0-0.5h6.4V56.1z M81.2,75.8c0,2.9-2.4,5.3-5.3,5.3h-6.7c-2.9,0-5.3-2.4-5.3-5.3v-3.2c0-2.9,2.4-5.3,5.3-5.3h6.7
		c2.9,0,5.3,2.4,5.3,5.3V75.8z"/>
	<path class="st1" d="M88.7,45.7V27c0-3.5-2.8-6.3-6.3-6.3h-3.8c-3.5,0-6.2,2.8-6.2,6.3v3.5l16.3,15.6C88.7,46,88.7,45.8,88.7,45.7z"/>
</svg>