<svg version="1.1" xmlns="http://www.w3.org/2000/svg" width="74.2px" height="74px" viewBox="0 0 74.2 74">
<title>home icon</title>
<style type="text/css">
	.st0{fill:url(#SVGID_1_);}
</style>
<linearGradient id="SVGID_1_" gradientUnits="userSpaceOnUse" x1="59.3747" y1="0" x2="59.3747" y2="118.7495">
	<stop  offset="0" style="stop-color:#4285F4"/>
	<stop  offset="1" style="stop-color:#4470B3"/>
</linearGradient>
	<path class="st0" d="M74.2,35.7L36.8,0L0.3,35.7H0v5.5h5.7c0,0.2,0,0.3,0,0.5v26.5c0,3.2,2.6,5.8,5.8,5.8h7.9c0-0.1,0-0.2,0-0.3
		V53.5c0-4.1,3.4-7.5,7.5-7.5s7.5,3.4,7.5,7.5v20.2c0,0.1,0,0.2,0,0.3H62c3.2,0,5.8-2.6,5.8-5.8V41.7c0-0.2,0-0.3,0-0.5h6.4V35.7z
		 M60.5,55.3c0,2.9-2.4,5.3-5.3,5.3h-6.7c-2.9,0-5.3-2.4-5.3-5.3v-3.2c0-2.9,2.4-5.3,5.3-5.3h6.7c2.9,0,5.3,2.4,5.3,5.3V55.3z"/>
	<path class="st0" d="M68,25.3V6.6c0-3.5-2.8-6.3-6.2-6.3h-3.8c-3.5,0-6.2,2.8-6.2,6.3v3.5L68,25.6C68,25.5,68,25.4,68,25.3z"/>
</svg>