<svg version="1.1" xmlns="http://www.w3.org/2000/svg" width="120px" height="120px">
<title>kurssoft.ru favicon</title>
<path d="M106.7,0H12C5.4,0,0,5.4,0,12v94.7c0,6.6,5.4,12,12,12h94.7c6.6,0,12-5.4,12-12V12C118.7,5.4,113.3,0,106.7,0z
	 M95.9,96.9c-1.9,0-14.7,0-14.7,0s-5.4,0.8-8.3-3.5C70,89.1,56.3,76.1,53.8,74.8c-2.5-1.3-4.5-0.2-5.1,1.5
	c-0.6,1.7-0.4,16.3-0.4,16.3c-0.3,2.2-1.8,3.4-4.3,3.8l-13.3,0c-3.9-0.2-5.3-2.4-5.6-5.7c0-2.4,0.2-54.3,0.2-54.3
	c-0.2-8.3-5.2-10-5.2-12.4c0-2.4,1.3-3.1,3.5-3h21.2c2.9,0,3.6,1.2,3.5,4.1c0,1.4-0.1,30.3-0.1,30.3c0.1,2.8,2.8,3,5.3,0.2
	c7.5-9,16.4-23.2,19.6-30.3c0,0,2.3-4.5,4.9-4.3h16.1c2.8,0.3,3.6,3.5,2.7,5.2c-2.6,7.7-19.4,32.2-19.4,32.2
	c-1.5,2.1-1.8,4.2-0.1,5.6c1.3,1.4,17,18.9,19.8,24.1C99.2,91.7,99.4,96.5,95.9,96.9z"/>
</svg>