<svg version="1.1" xmlns="http://www.w3.org/2000/svg" width="303.5px" height="124px" viewBox="0 0 303.5 124">
<style type="text/css">
	.st0{fill:url(#SVGID_1_);}
	.st1{fill:#FFFFFF;}
</style>
<linearGradient id="SVGID_1_" gradientUnits="userSpaceOnUse" x1="151.7637" y1="0" x2="151.7637" y2="124">
	<stop  offset="0" style="stop-color:#4285F4"/>
	<stop  offset="1" style="stop-color:#4470B3"/>
</linearGradient>
<path class="st0" d="M296,124H7.5c-4.1,0-7.5-3.4-7.5-7.5V7.5C0,3.4,3.4,0,7.5,0H296c4.1,0,7.5,3.4,7.5,7.5v109
	C303.5,120.6,300.1,124,296,124z"/>
<path class="st1" d="M277.9,85c-4.5-1-19.9-6.3-33.6-20.2c-13.7-14-16.3-31-16.8-33.4c-0.5-2.4-0.8-4.3-0.3-4.3s52.5,0,53.2,0
	c0.7,0,3.3-1.2,3.3-4.3s-2-4.4-3.2-4.5s-85.3-0.1-86.1,0c-9.5,0-20,0-29.3,0c-0.3,0-0.6,0-0.9,0c-0.5,0-1.4,0-2.6,0
	c-13.1,0-23.3,0-23.9,0c-1.7,0-2.9,0.6-3.3,2c-0.4,1.4,1,3.7,1.7,4.4c0.5,0.6,2.9,3.7,4.1,6.6c0.2,6.5,0.4,14.8,0.5,19.4
	c0,2.4,0,4.9,0,7.6c-0.2,1.1-0.8,1.6-2.1,0.5c-2.7-2.2-9.2-6.2-14.4-11.8S111.7,28,110.4,23.4c-1.3-4.6-3.4-5.3-5-5.3
	c-0.3,0-1.1,0-2.2,0c-0.1,0-0.1,0-0.2,0H84.3c-0.2,0-0.4,0-0.6,0c-2.3,0-4,0-4.4,0c-1.9,0-2.8,1.4-2.8,2.6c0,0.6,1,1.9,1.9,3
	c-3.9,8.5-14,24.5-22.5,34.7c-2.9,3.3-6,3-6.1-0.3c0,0,0.1-33.6,0.1-35.3c0.1-3.3-0.7-4.7-4.1-4.7H21c-2.6,0-4,0.8-4,3.5
	s5.9,4.8,6.1,14.4c0,0-0.2,60.3-0.2,63.1c0.2,3.8,2,6.4,6.5,6.6l15.5,0c2.9-0.4,4.7-1.8,5-4.4c0,0-0.2-17,0.5-19
	c0.7-2,3-3.3,5.9-1.7S75,97.4,78.4,102.4c4,4.5,7.9,4.1,9.6,4.2s42.3-0.2,57.2-0.2c0.5,0,1,0.1,1.6,0.1c2.3,0,7.1,0,10.5,0
	c0.9,0,1.6,0,2,0c1.8,0.1,3.5-0.1,4.8-0.7c1.5-0.6,3-1.7,3.1-3.7c0.2-0.7,0.3-1.5,0.3-2.4c0-0.8,0-3,0-6.1c0.4-1.2,1.1-1.5,1.8-2
	c1.1-0.6,10.2-5.1,23-15c7.8-6,13.5-11.5,18.3-17.6c0.5,1.1,1.1,2.1,1.7,3.3c12,23.2,30.8,35,42.5,40.3c11.7,5.3,20.2,3.8,23.5,3.8
	s5.2-3.2,5.1-6c-0.1-2.8,0.1-10.4,0.1-12.8C283.4,85.3,279.6,85.5,277.9,85z M138.3,96.6c-1.3,1.3-6,1.2-6,1.2s-24.2,0.1-24.7,0
	c-0.5-0.1-1-1.3-1.2-1.6c-3.3-6.1-21.5-26.4-23.1-28c-1.9-1.7-1.6-4.1,0.2-6.5c0,0,3.8-5.5,8.3-12.5c5,8.2,9.9,14.7,18.9,23
	c10.2,9.3,18.7,13.7,24.8,16.9C141.6,92.2,139.6,95.3,138.3,96.6z M191.7,36.5c-2,3.6-9.7,15-19.7,20.9c-4.6,3.2-4.6,2.3-4.6-5.5
	c0-7.8,0.1-21.2,0.2-22.7c0-1.4,1.3-2.3,2.6-2.1c1.3,0.2,19.9,0.3,23.3,0.2C196.7,27.5,193.7,33,191.7,36.5z"/>
</svg>