<svg version="1.1" xmlns="http://www.w3.org/2000/svg" width="504.7px" height="170.4px" viewBox="0 0 504.7 170.4" >
<title>logo icon</title>
<style type="text/css">
	.st0{fill:url(#SVGID_1_);}
	.st4{fill:#FFFFFF;}
	.st5{fill:#DB8F1B;}
</style>
	<linearGradient id="SVGID_1_" gradientUnits="userSpaceOnUse" x1="59.3747" y1="-9.094947e-13" x2="59.3747" y2="170.4399">
		<stop  offset="0" style="stop-color:#4285F4"/>
		<stop  offset="1" style="stop-color:#4470B3"/>
	</linearGradient>
	<path class="st0" d="M106.7,170.4H12c-6.6,0-12-5.4-12-12V12C0,5.4,5.4,0,12,0h94.7c6.6,0,12,5.4,12,12v146.4
		C118.7,165,113.3,170.4,106.7,170.4z"/>
	<path class="st0" d="M235.4,170.4h-94.7c-6.6,0-12-5.4-12-12V12c0-6.6,5.4-12,12-12h94.7c6.6,0,12,5.4,12,12v146.4
		C247.4,165,242,170.4,235.4,170.4z"/>
	<path class="st0" d="M364,170.4h-94.7c-6.6,0-12-5.4-12-12V12c0-6.6,5.4-12,12-12H364c6.6,0,12,5.4,12,12v146.4
		C376,165,370.6,170.4,364,170.4z"/>
	<path class="st0" d="M492.7,170.4h-94.7c-6.6,0-12-5.4-12-12V12c0-6.6,5.4-12,12-12h94.7c6.6,0,12,5.4,12,12v146.4
		C504.7,165,499.3,170.4,492.7,170.4z"/>
	<path class="st4" d="M25.2,90.6c0-2.4,0.2-54.3,0.2-54.3c-0.2-8.3-5.2-10-5.2-12.4s1.3-3.1,3.5-3h21.2c2.9,0,3.6,1.2,3.5,4.1
		c0,1.4-0.1,30.3-0.1,30.3c0.1,2.8,2.8,3,5.3,0.2c7.5-9,16.4-23.2,19.6-30.3c0,0,2.3-4.5,4.9-4.3h16.1c2.8,0.3,3.6,3.5,2.7,5.2
		c-2.6,7.7-19.4,32.2-19.4,32.2c-1.5,2.1-1.8,4.2-0.1,5.6c1.3,1.4,17,18.9,19.8,24.1c2.1,3.7,2.4,8.5-1.1,8.8c-1.9,0-14.7,0-14.7,0
		s-5.4,0.8-8.3-3.5C70,89.1,56.3,76.1,53.8,74.8c-2.5-1.3-4.5-0.2-5.1,1.5c-0.6,1.7-0.4,16.3-0.4,16.3c-0.3,2.2-1.8,3.4-4.3,3.8
		l-13.3,0C26.9,96.2,25.4,94,25.2,90.6z"/>
	<path class="st4" d="M176.4,25.1c-1.1-4-2.9-4.5-4.3-4.5c-1.4,0-20.8,0-22.4,0c-1.6,0-2.4,1.2-2.4,2.2c0,1,2.9,3.9,2.9,3.9
		s1.5,1.1,2.5,4.3c1,3.2,1.2,5,6.2,13.4S168,59,176.7,67c8.8,8,16.1,11.8,21.3,14.5c5.2,2.8,3.5,5.4,2.4,6.6s-5.1,1-5.1,1
		s-18.8-0.4-21.6-0.5c-2.9-0.1-5,0.2-5.2,3.5c-0.1,3.3,2.3,4,4.9,4.2s41.1,0.1,44.9,0.2c3.9,0.1,7-1,7-5.9c0.1-4.9,0-63.9,0-66.6
		c0-2.7-0.4-3.5-2.7-3.4c-2.3,0-15.3,0.3-17.2,0.1s-3.8,1.3-3.7,3s0.7,24.9,0.7,27.4c0,2.4,0.5,6.2-1.8,4.3
		c-2.3-1.9-7.9-5.3-12.4-10.2S177.6,29.1,176.4,25.1z"/>
	<path class="st4" d="M355.2,20.7c-2.4,0-72.1,0-73.5,0c-1.4,0-2.5,0.5-2.9,1.7c-0.4,1.2,0.9,3.1,1.4,3.8c0.6,0.7,4,5.1,4,7.9
		c0,2.8-0.3,51.8,0,56.7c0.3,4.9,1,5.8,5.2,5.8c3.2,0,12.3,0,12.3,0s5.2-0.3,5.2-3.9s-0.1-2.7,0-5.3c0.1-2.6,0.9-3,1.9-3.5
		c0.9-0.5,8.8-4.4,19.8-12.9s17.3-15.6,22.7-26.4c5.4-10.7,6.9-17.5,6.9-19.9S357.6,20.7,355.2,20.7z M328.1,36.4
		c-1.7,3.1-8.3,12.9-16.9,18c-3.9,2.8-4,2-4-4.7c0-6.7,0.1-18.3,0.1-19.5c0-1.2,1.1-2,2.3-1.8c1.1,0.2,17.1,0.2,20,0.2
		C332.4,28.6,329.8,33.4,328.1,36.4z"/>
	<path class="st4" d="M435.1,28.2c-0.5,0-0.2,1.6,0.2,3.7s2.7,16.8,14.5,28.8c11.8,12,25,16.5,28.9,17.4c1.5,0.5,4.7,0.3,4.7,2.3
		c0,2-0.1,8.5-0.1,11c0.1,2.4-1.6,5.2-4.4,5.2s-10.2,1.4-20.2-3.2c-10-4.6-26.2-14.8-36.5-34.7c-10.3-19.9-9.6-19.2-11.2-23.5
		s-2.2-5.7-4.1-7.5c-1.9-1.8-2.5-3.3-2.5-4.9s1.9-2.2,4.8-2.2c2.9,0,70.7,0,71.7,0.1s2.7,1.1,2.7,3.9s-2.2,3.7-2.8,3.7
		C480.2,28.2,435.6,28.2,435.1,28.2z"/>
	<path class="st5" d="M42.9,125l-7.6,4.4l7.7,4.4h-4.6l-4-2.3c-0.4-0.2-0.7-0.4-0.9-0.6s-0.4-0.5-0.6-0.8v3.8h-2.5v-8.9h2.5v3.8
		c0.2-0.3,0.4-0.6,0.6-0.8c0.3-0.2,0.6-0.5,1-0.7l3.9-2.3H42.9z"/>
	<path class="st5" d="M53.8,125c0.4,0,0.7,0.1,1.1,0.2s0.6,0.4,0.9,0.6c0.3,0.3,0.5,0.6,0.6,0.9c0.2,0.3,0.2,0.7,0.2,1.1v3.3
		c0,0.4-0.1,0.7-0.2,1c-0.2,0.3-0.4,0.6-0.6,0.9c-0.3,0.2-0.6,0.4-0.9,0.6c-0.3,0.1-0.7,0.2-1.1,0.2H47c-0.4,0-0.8-0.1-1.1-0.2
		c-0.3-0.1-0.6-0.3-0.9-0.6s-0.5-0.5-0.6-0.9c-0.1-0.3-0.2-0.7-0.2-1.1v-3.3c0-0.4,0.1-0.7,0.3-1.1c0.2-0.3,0.4-0.6,0.7-0.8
		s0.6-0.4,1-0.5s0.8-0.2,1.2-0.2H53.8z M46.4,127.3v4.3h7.8v-4.3H46.4z"/>
	<path class="st5" d="M60.1,128.2h8.2v-3.3h2.2v8.9h-2.2v-3.3h-8.2v3.3h-2.2v-8.9h2.2V128.2z"/>
	<path class="st5" d="M84.3,124.9v2.3h-5.2v6.6h-2.3v-6.6h-5.1v-2.3H84.3z"/>
	<path class="st5" d="M41.4,139.5c0.4,0.1,0.7,0.3,1,0.6s0.5,0.5,0.7,0.9c0.2,0.3,0.3,0.7,0.3,1.1c0,0.4-0.1,0.8-0.2,1.1
		c-0.2,0.3-0.4,0.6-0.6,0.9c-0.3,0.3-0.6,0.5-0.9,0.6c-0.4,0.1-0.7,0.2-1.1,0.2h-7.7v3.3h-2.4v-8.9h9.8
		C40.6,139.3,41,139.4,41.4,139.5z M32.7,142.7H41v-1.1h-8.2V142.7z"/>
	<path class="st5" d="M54.2,139.4c0.4,0,0.7,0.1,1.1,0.2s0.6,0.4,0.9,0.6c0.3,0.3,0.5,0.6,0.6,0.9c0.2,0.3,0.2,0.7,0.2,1.1v3.3
		c0,0.4-0.1,0.7-0.2,1c-0.2,0.3-0.4,0.6-0.6,0.9c-0.3,0.2-0.6,0.4-0.9,0.6c-0.3,0.1-0.7,0.2-1.1,0.2h-6.8c-0.4,0-0.8-0.1-1.1-0.2
		c-0.3-0.1-0.6-0.3-0.9-0.6s-0.5-0.5-0.6-0.9c-0.1-0.3-0.2-0.7-0.2-1.1V142c0-0.4,0.1-0.7,0.3-1.1c0.2-0.3,0.4-0.6,0.7-0.8
		s0.6-0.4,1-0.5s0.8-0.2,1.2-0.2H54.2z M46.8,141.7v4.3h7.8v-4.3H46.8z"/>
	<path class="st5" d="M58.2,148.2v-6c0-0.4,0.1-0.7,0.2-1c0.2-0.3,0.4-0.7,0.6-0.9c0.3-0.3,0.6-0.5,0.9-0.7s0.7-0.3,1-0.3h10v8.9
		h-2.4v-6.6h-8.1v6.6H58.2z"/>
	<path class="st5" d="M72.1,148.2v-8.9h2.4v3.3h7.7c0.4,0,0.8,0.1,1.1,0.2c0.4,0.1,0.7,0.3,0.9,0.6c0.3,0.3,0.5,0.6,0.6,0.9
		c0.2,0.3,0.2,0.7,0.2,1.1c0,0.4-0.1,0.8-0.3,1.1c-0.2,0.3-0.4,0.6-0.7,0.9s-0.6,0.4-1,0.6c-0.4,0.1-0.8,0.2-1.2,0.2H72.1z
		 M82.7,146v-1.1h-8.2v1.1H82.7z"/>
	<path class="st5" d="M163.5,128.3V125h2.4v6c0,0.4-0.1,0.7-0.2,1.1c-0.2,0.3-0.4,0.6-0.6,0.9s-0.6,0.5-0.9,0.6
		c-0.3,0.2-0.7,0.2-1.1,0.2h-9.5v-2.3h10.1v-1h-7.6c-0.4,0-0.8-0.1-1.1-0.2c-0.4-0.1-0.7-0.3-0.9-0.6c-0.3-0.2-0.5-0.5-0.6-0.9
		c-0.2-0.3-0.2-0.7-0.2-1.1V125h2.1v3.3H163.5z"/>
	<path class="st5" d="M167,133.8V125h12.7v8.9h-2.4v-6.6h-8.1v6.6H167z"/>
	<path class="st5" d="M192,125.1c0.4,0.1,0.7,0.3,1,0.6s0.5,0.5,0.7,0.9c0.2,0.3,0.3,0.7,0.3,1.1c0,0.4-0.1,0.8-0.2,1.1
		c-0.2,0.3-0.4,0.6-0.6,0.9c-0.3,0.3-0.6,0.5-0.9,0.6c-0.4,0.1-0.7,0.2-1.1,0.2h-7.7v3.3H181v-8.9h9.8
		C191.2,124.9,191.6,125,192,125.1z M183.3,128.3h8.2v-1.1h-8.2V128.3z"/>
	<path class="st5" d="M195.1,133.8l3.4-6.7c0.2-0.3,0.3-0.6,0.5-0.9c0.2-0.3,0.3-0.5,0.5-0.7c0.2-0.2,0.4-0.3,0.7-0.4
		c0.2-0.1,0.5-0.2,0.9-0.2c0.3,0,0.6,0.1,0.8,0.2c0.2,0.1,0.4,0.2,0.6,0.4c0.2,0.2,0.4,0.4,0.5,0.7c0.2,0.3,0.3,0.6,0.5,1l3.4,6.6
		h-2.4l-1.3-2.3h-4.4l-1.2,2.3H195.1z M202.1,129.2l-1-1.9l-1.1,1.9H202.1z"/>
	<path class="st5" d="M218.9,125.1c0.4,0.1,0.7,0.3,1,0.5c0.3,0.2,0.5,0.5,0.7,0.9c0.2,0.3,0.2,0.7,0.2,1.2c0,0.6-0.2,1.1-0.5,1.7
		c0.2,0.2,0.3,0.5,0.5,0.8c0.2,0.3,0.2,0.6,0.2,0.8c0,0.4-0.1,0.8-0.3,1.1c-0.2,0.3-0.4,0.7-0.7,0.9c-0.3,0.3-0.6,0.5-1,0.6
		c-0.4,0.2-0.7,0.2-1.1,0.2h-9.8v-8.9h9.4C218.1,124.9,218.6,125,218.9,125.1z M218.5,127.2h-7.9v1h7.9V127.2z M218.5,130.5h-7.9v1
		h7.9V130.5z"/>
	<path class="st5" d="M152.9,148.2v-6c0-0.4,0.1-0.7,0.2-1c0.2-0.3,0.4-0.7,0.6-0.9c0.3-0.3,0.6-0.5,0.9-0.7s0.7-0.3,1-0.3h10v8.9
		h-2.4v-6.6h-8.1v6.6H152.9z"/>
	<path class="st5" d="M179.3,139.3v2.3h-10.2v1h10.2v2.3h-10.2v1h10.2v2.4H170c-0.4,0-0.8-0.1-1.2-0.2s-0.7-0.3-1-0.6
		s-0.5-0.6-0.7-0.9s-0.3-0.7-0.3-1.2v-3.2c0-0.4,0.1-0.8,0.2-1.2c0.2-0.4,0.4-0.6,0.7-0.9c0.3-0.2,0.6-0.4,1-0.6
		c0.4-0.1,0.8-0.2,1.2-0.2H179.3z"/>
	<path class="st5" d="M182.7,142.6h8.2v-3.3h2.2v8.9h-2.2v-3.3h-8.2v3.3h-2.2v-8.9h2.2V142.6z"/>
	<path class="st5" d="M206.7,148.2h-2.2v-6.6l-6,5.9c-0.3,0.3-0.6,0.5-0.9,0.7c-0.3,0.1-0.6,0.2-1,0.2c-0.4,0-0.7-0.1-0.9-0.2
		c-0.3-0.1-0.5-0.3-0.7-0.5c-0.2-0.2-0.3-0.5-0.4-0.8c-0.1-0.3-0.1-0.6-0.1-1v-6.5h2.3v6.6l6-5.9c0.6-0.6,1.2-0.9,1.8-0.9
		c0.3,0,0.6,0,0.8,0.1c0.3,0.1,0.5,0.2,0.7,0.4s0.4,0.4,0.5,0.7c0.1,0.3,0.2,0.6,0.2,1V148.2z"/>
	<path class="st5" d="M220.4,139.3v2.3h-10.2v1h10.2v2.3h-10.2v1h10.2v2.4H211c-0.4,0-0.8-0.1-1.2-0.2s-0.7-0.3-1-0.6
		s-0.5-0.6-0.7-0.9s-0.3-0.7-0.3-1.2v-3.2c0-0.4,0.1-0.8,0.2-1.2c0.2-0.4,0.4-0.6,0.7-0.9c0.3-0.2,0.6-0.4,1-0.6
		c0.4-0.1,0.8-0.2,1.2-0.2H220.4z"/>
	<path class="st5" d="M294.3,131.5c0.4,0.1,0.7,0.3,1,0.6s0.5,0.5,0.7,0.9c0.2,0.3,0.3,0.7,0.3,1.1c0,0.4-0.1,0.8-0.2,1.1
		s-0.4,0.6-0.6,0.9c-0.3,0.3-0.6,0.5-0.9,0.6c-0.4,0.1-0.7,0.2-1.1,0.2h-7.7v3.3h-2.4v-8.9h9.8
		C293.5,131.3,293.9,131.3,294.3,131.5z M285.7,134.7h8.2v-1.1h-8.2V134.7z"/>
	<path class="st5" d="M297.4,140.1l3.4-6.7c0.2-0.3,0.3-0.6,0.5-0.9c0.2-0.3,0.3-0.5,0.5-0.7c0.2-0.2,0.4-0.3,0.7-0.4
		c0.2-0.1,0.5-0.2,0.9-0.2c0.3,0,0.6,0.1,0.8,0.2c0.2,0.1,0.4,0.2,0.6,0.4c0.2,0.2,0.3,0.4,0.5,0.7c0.2,0.3,0.3,0.6,0.5,1l3.4,6.6
		h-2.4l-1.3-2.3h-4.4l-1.2,2.3H297.4z M304.4,135.6l-1-1.9l-1.1,1.9H304.4z"/>
	<path class="st5" d="M310.6,137.8h0.6V134c0-0.4,0.1-0.8,0.2-1.1c0.2-0.3,0.4-0.6,0.6-0.9c0.3-0.2,0.6-0.4,0.9-0.6
		c0.3-0.1,0.7-0.2,1.1-0.2h6.4c0.4,0,0.8,0.1,1.1,0.2c0.4,0.1,0.7,0.3,0.9,0.5c0.3,0.2,0.5,0.5,0.7,0.8s0.2,0.7,0.2,1.1v3.8h0.9
		v2.4h-13.8V137.8z M321.2,133.6h-8v4.2h8V133.6z"/>
	<path class="st5" d="M337.9,140.1h-2.2v-6.6l-6,5.9c-0.3,0.3-0.6,0.5-0.9,0.7c-0.3,0.1-0.6,0.2-1,0.2c-0.4,0-0.7-0.1-0.9-0.2
		c-0.3-0.1-0.5-0.3-0.7-0.5c-0.2-0.2-0.3-0.5-0.4-0.8c-0.1-0.3-0.2-0.6-0.2-1v-6.5h2.3v6.6l6-5.9c0.6-0.6,1.2-0.9,1.8-0.9
		c0.3,0,0.6,0,0.8,0.1c0.3,0.1,0.5,0.2,0.7,0.4s0.4,0.4,0.5,0.7c0.1,0.3,0.2,0.6,0.2,1V140.1z"/>
	<path class="st5" d="M348.8,131.3c0.4,0,0.7,0.1,1.1,0.2s0.6,0.4,0.9,0.6c0.3,0.3,0.5,0.6,0.6,0.9c0.2,0.3,0.2,0.7,0.2,1.1v3.3
		c0,0.4-0.1,0.7-0.2,1c-0.2,0.3-0.4,0.6-0.6,0.9s-0.6,0.4-0.9,0.6c-0.3,0.1-0.7,0.2-1.1,0.2h-6.8c-0.4,0-0.8-0.1-1.1-0.2
		c-0.3-0.1-0.6-0.3-0.9-0.6s-0.5-0.5-0.6-0.9c-0.1-0.3-0.2-0.7-0.2-1.1v-3.3c0-0.4,0.1-0.7,0.3-1.1s0.4-0.6,0.7-0.8s0.6-0.4,1-0.5
		s0.8-0.2,1.2-0.2H348.8z M341.4,133.6v4.3h7.8v-4.3H341.4z"/>
	<path class="st5" d="M424.2,133.8h-10.3v4.4h10.3v2.2h-9.7c-0.4,0-0.7-0.1-1.1-0.2c-0.3-0.1-0.7-0.3-0.9-0.5
		c-0.3-0.2-0.5-0.5-0.7-0.8c-0.2-0.3-0.3-0.7-0.3-1v-3c0-1.1,0.3-1.9,0.8-2.5c0.6-0.5,1.4-0.8,2.5-0.8h9.3V133.8z"/>
	<path class="st5" d="M437.9,131.6v2.3h-10.2v1h10.2v2.3h-10.2v1h10.2v2.4h-9.3c-0.4,0-0.8-0.1-1.2-0.2s-0.7-0.3-1-0.6
		s-0.5-0.6-0.7-0.9s-0.3-0.7-0.3-1.2v-3.2c0-0.4,0.1-0.8,0.2-1.2c0.2-0.4,0.4-0.6,0.7-0.9s0.6-0.4,1-0.6c0.4-0.1,0.8-0.2,1.2-0.2
		H437.9z"/>
	<path class="st5" d="M451.6,131.6v2.3h-5.2v6.6h-2.3v-6.6h-5.1v-2.3H451.6z"/>
	<path class="st5" d="M452.8,140.5v-8.9h2.4v3.3h7.7c0.4,0,0.8,0.1,1.1,0.2c0.4,0.1,0.7,0.3,0.9,0.6c0.3,0.3,0.5,0.6,0.6,0.9
		c0.2,0.3,0.2,0.7,0.2,1.1c0,0.4-0.1,0.8-0.3,1.1c-0.2,0.3-0.4,0.6-0.7,0.9s-0.6,0.4-1,0.6c-0.4,0.1-0.8,0.2-1.2,0.2H452.8z
		 M463.4,138.3v-1.1h-8.2v1.1H463.4z"/>
	<path class="st5" d="M477.1,131.6c0.4,0,0.7,0.1,1.1,0.2s0.6,0.4,0.9,0.6c0.3,0.3,0.5,0.6,0.6,0.9c0.2,0.3,0.2,0.7,0.2,1.1v3.3
		c0,0.4-0.1,0.7-0.2,1c-0.2,0.3-0.4,0.6-0.6,0.9s-0.6,0.4-0.9,0.6c-0.3,0.1-0.7,0.2-1.1,0.2h-3.5c-0.2,0-0.5-0.1-0.8-0.2
		c-0.3-0.1-0.6-0.3-0.8-0.6c-0.2-0.2-0.5-0.5-0.6-0.8s-0.2-0.6-0.2-1v-0.6h-1.8v3.2H467v-8.7h2.3v3.1h1.8V134
		c0-0.3,0.1-0.6,0.3-0.8c0.2-0.3,0.4-0.5,0.7-0.8c0.3-0.2,0.6-0.4,0.9-0.5c0.3-0.1,0.6-0.2,0.9-0.2H477.1z M473.4,133.9v4.3h4.1
		v-4.3H473.4z"/>
</svg>