<svg version="1.1" xmlns="http://www.w3.org/2000/svg" width="436.9px" height="76.5px" viewBox="0 0 436.9 76.5" >
<title>kurssoft.ru icon</title>
<style type="text/css">
	.st0{fill:url(#SVGID_1_);}
	.st1{fill:#FFFFFF;}
</style>
	<linearGradient id="SVGID_1_" gradientUnits="userSpaceOnUse" x1="39.2368" y1="0.427" x2="39.2368" y2="76.4509">
		<stop  offset="0" style="stop-color:#4285F4"/>
		<stop  offset="1" style="stop-color:#4470B3"/>
	</linearGradient>
	<path class="st0" d="M5.1,70.2c0-2.4,0.2-54.3,0.2-54.3C5,7.6,0,5.9,0,3.5s1.3-3.1,3.5-3h21.2c2.9,0,3.6,1.2,3.5,4.1
		c0,1.4-0.1,30.3-0.1,30.3c0.1,2.8,2.8,3,5.3,0.2c7.5-9,16.4-23.2,19.6-30.3c0,0,2.3-4.5,4.9-4.3H74c2.8,0.3,3.6,3.5,2.7,5.2
		C74,13.3,57.2,37.8,57.2,37.8c-1.5,2.1-1.8,4.2-0.1,5.6c1.3,1.4,17,18.9,19.8,24.1c2.1,3.7,2.4,8.5-1.1,8.8c-1.9,0-14.7,0-14.7,0
		s-5.4,0.8-8.3-3.5c-2.9-4.3-16.7-17.3-19.1-18.6s-4.5-0.2-5.1,1.5c-0.6,1.7-0.4,16.3-0.4,16.3c-0.3,2.2-1.8,3.4-4.3,3.8l-13.3,0
		C6.8,75.7,5.3,73.5,5.1,70.2z"/>
	<path class="st0" d="M111.3,4.6c-1.1-4-2.9-4.5-4.3-4.5c-1.4,0-20.8,0-22.4,0c-1.6,0-2.4,1.2-2.4,2.2S85,6.3,85,6.3
		s1.5,1.1,2.5,4.3s1.2,5,6.2,13.4s9.2,14.5,17.9,22.6s16.1,11.8,21.3,14.5c5.2,2.8,3.5,5.4,2.4,6.6s-5.1,1-5.1,1s-18.8-0.4-21.6-0.5
		c-2.9-0.1-5,0.2-5.2,3.5s2.3,4,4.9,4.2s41.1,0.1,44.9,0.2c3.9,0.1,7-1,7-5.9c0.1-4.9,0-63.9,0-66.6c0-2.7-0.4-3.5-2.7-3.4
		s-15.3,0.3-17.2,0.1s-3.8,1.3-3.7,3s0.7,24.9,0.7,27.4c0,2.4,0.5,6.2-1.8,4.3c-2.3-1.9-7.9-5.3-12.4-10.2
		C118.6,19.9,112.5,8.6,111.3,4.6z"/>
	<path class="st0" d="M244.1,0.2c-2.4,0-72.1,0-73.5,0c-1.4,0-2.5,0.5-2.9,1.7c-0.4,1.2,0.9,3.1,1.4,3.8c0.6,0.7,4,5.1,4,7.9
		c0,2.8-0.3,51.8,0,56.7c0.3,4.9,1,5.8,5.2,5.8c3.2,0,12.3,0,12.3,0s5.2-0.3,5.2-3.9s-0.1-2.7,0-5.3c0.1-2.6,0.9-3,1.9-3.5
		c0.9-0.5,8.8-4.4,19.8-12.9s17.3-15.6,22.7-26.4s6.9-17.5,6.9-19.9S246.4,0.2,244.1,0.2z M217,15.9c-1.7,3.1-8.3,12.9-16.9,18
		c-3.9,2.8-4,2-4-4.7c0-6.7,0.1-18.3,0.1-19.5c0-1.2,1.1-2,2.3-1.8c1.1,0.2,17.1,0.2,20,0.2C221.3,8.2,218.7,12.9,217,15.9z"/>
	<path class="st0" d="M283,7.7c-0.5,0-0.2,1.6,0.2,3.7s2.7,16.8,14.5,28.8c11.8,12,25,16.5,28.9,17.4c1.5,0.5,4.7,0.3,4.7,2.3
		c0,2-0.1,8.5-0.1,11s-1.6,5.2-4.4,5.2s-10.2,1.4-20.2-3.2c-10-4.6-26.2-14.8-36.5-34.7c-10.3-19.9-9.6-19.2-11.2-23.5
		c-1.7-4.2-2.2-5.7-4.1-7.5c-1.9-1.8-2.5-3.3-2.5-4.9S254.2,0,257,0c2.9,0,70.7,0,71.7,0.1c1,0.1,2.7,1.1,2.7,3.9s-2.2,3.7-2.8,3.7
		C328.1,7.7,283.4,7.7,283,7.7z"/>
	<path class="st1" d="M362.9,66.8c0.6,0.3,1.2,0.6,1.7,1c0.5,0.4,0.8,1,1.1,1.6c0.3,0.6,0.4,1.2,0.4,1.9c0,0.7-0.1,1.3-0.4,1.9
		c-0.3,0.6-0.7,1.1-1.2,1.5c-0.5,0.4-1,0.7-1.7,1c-0.6,0.2-1.3,0.4-1.9,0.4h-17.4v-3.9h18.6v-1.8h-14.4c-0.7,0-1.3-0.1-2-0.4
		c-0.6-0.2-1.2-0.6-1.7-1c-0.5-0.4-0.9-0.9-1.2-1.5c-0.3-0.6-0.4-1.2-0.4-1.9c0-0.8,0.2-1.4,0.5-2c0.3-0.6,0.8-1.1,1.3-1.5
		c0.5-0.4,1.2-0.7,1.8-0.9c0.7-0.2,1.4-0.3,2.1-0.3H365v3.8h-18.4v1.9h14.2C361.6,66.5,362.3,66.6,362.9,66.8z"/>
	<path class="st1" d="M385,60.7c0.6,0,1.3,0.1,1.8,0.4c0.6,0.3,1.1,0.6,1.5,1.1c0.4,0.4,0.8,1,1.1,1.6c0.3,0.6,0.4,1.2,0.4,1.9v5.7
		c0,0.6-0.1,1.2-0.4,1.8c-0.3,0.6-0.6,1.1-1.1,1.5c-0.5,0.4-1,0.8-1.6,1c-0.6,0.2-1.2,0.4-1.8,0.4H373c-0.7,0-1.3-0.1-1.9-0.4
		c-0.6-0.2-1.1-0.6-1.6-1c-0.4-0.4-0.8-1-1-1.6c-0.2-0.6-0.4-1.3-0.4-2v-5.8c0-0.7,0.2-1.3,0.5-1.8c0.3-0.6,0.7-1,1.2-1.4
		c0.5-0.4,1.1-0.7,1.7-0.9c0.7-0.2,1.3-0.3,2-0.3H385z M372.1,64.7v7.4h13.6v-7.4H372.1z"/>
	<path class="st1" d="M391.9,65.7c0-0.9,0.2-1.6,0.5-2.2c0.3-0.6,0.7-1.1,1.3-1.5c0.5-0.4,1.1-0.7,1.8-0.9c0.7-0.2,1.4-0.3,2.2-0.3H413v3.9
		h-17.2v1.7h17.2v3.9h-17.2v5.8h-3.9V65.7z"/>
	<path class="st1" d="M436.9,60.7v3.9h-9v11.5h-3.9V64.6h-9v-3.9H436.9z"/>
</svg>