<svg version="1.1" xmlns="http://www.w3.org/2000/svg" width="504.7px" height="118.7px" viewBox="0 0 504.7 118.7">
<title>kurssoft.ru icon</title>
<style type="text/css">
	.st0{fill:url(#SVGID_1_);}
	.st4{fill:#FFFFFF;}
</style>
	<linearGradient id="SVGID_1_" gradientUnits="userSpaceOnUse" x1="59.3747" y1="0" x2="59.3747" y2="118.7495">
		<stop  offset="0" style="stop-color:#4285F4"/>
		<stop  offset="1" style="stop-color:#4470B3"/>
	</linearGradient>
	<path class="st0" d="M106.7,118.7H12c-6.6,0-12-5.4-12-12V12C0,5.4,5.4,0,12,0h94.7c6.6,0,12,5.4,12,12v94.7
		C118.7,113.3,113.3,118.7,106.7,118.7z"/>
	<path class="st0" d="M235.4,118.7h-94.7c-6.6,0-12-5.4-12-12V12c0-6.6,5.4-12,12-12h94.7c6.6,0,12,5.4,12,12v94.7
		C247.4,113.3,242,118.7,235.4,118.7z"/>
	<path class="st0" d="M364,118.7h-94.7c-6.6,0-12-5.4-12-12V12c0-6.6,5.4-12,12-12H364c6.6,0,12,5.4,12,12v94.7
		C376,113.3,370.6,118.7,364,118.7z"/>
	<path class="st0" d="M492.7,118.7h-94.7c-6.6,0-12-5.4-12-12V12c0-6.6,5.4-12,12-12h94.7c6.6,0,12,5.4,12,12v94.7
		C504.7,113.3,499.3,118.7,492.7,118.7z"/>
	<path class="st4" d="M25.2,90.6c0-2.4,0.2-54.3,0.2-54.3c-0.2-8.3-5.2-10-5.2-12.4s1.3-3.1,3.5-3h21.2c2.9,0,3.6,1.2,3.5,4.1
		c0,1.4-0.1,30.3-0.1,30.3c0.1,2.8,2.8,3,5.3,0.2c7.5-9,16.4-23.2,19.6-30.3c0,0,2.3-4.5,4.9-4.3h16.1c2.8,0.3,3.6,3.5,2.7,5.2
		c-2.6,7.7-19.4,32.2-19.4,32.2c-1.5,2.1-1.8,4.2-0.1,5.6c1.3,1.4,17,18.9,19.8,24.1c2.1,3.7,2.4,8.5-1.1,8.8c-1.9,0-14.7,0-14.7,0
		s-5.4,0.8-8.3-3.5C70,89.1,56.3,76.1,53.8,74.8c-2.5-1.3-4.5-0.2-5.1,1.5c-0.6,1.7-0.4,16.3-0.4,16.3c-0.3,2.2-1.8,3.4-4.3,3.8
		l-13.3,0C26.9,96.2,25.4,94,25.2,90.6z"/>
	<path class="st4" d="M176.4,25.1c-1.1-4-2.9-4.5-4.3-4.5c-1.4,0-20.8,0-22.4,0c-1.6,0-2.4,1.2-2.4,2.2c0,1,2.9,3.9,2.9,3.9
		s1.5,1.1,2.5,4.3c1,3.2,1.2,5,6.2,13.4S168,59,176.7,67c8.8,8,16.1,11.8,21.3,14.5c5.2,2.8,3.5,5.4,2.4,6.6s-5.1,1-5.1,1
		s-18.8-0.4-21.6-0.5c-2.9-0.1-5,0.2-5.2,3.5c-0.1,3.3,2.3,4,4.9,4.2s41.1,0.1,44.9,0.2c3.9,0.1,7-1,7-5.9c0.1-4.9,0-63.9,0-66.6
		c0-2.7-0.4-3.5-2.7-3.4c-2.3,0-15.3,0.3-17.2,0.1s-3.8,1.3-3.7,3s0.7,24.9,0.7,27.4c0,2.4,0.5,6.2-1.8,4.3
		c-2.3-1.9-7.9-5.3-12.4-10.2S177.6,29.1,176.4,25.1z"/>
	<path class="st4" d="M355.2,20.7c-2.4,0-72.1,0-73.5,0c-1.4,0-2.5,0.5-2.9,1.7c-0.4,1.2,0.9,3.1,1.4,3.8c0.6,0.7,4,5.1,4,7.9
		c0,2.8-0.3,51.8,0,56.7c0.3,4.9,1,5.8,5.2,5.8c3.2,0,12.3,0,12.3,0s5.2-0.3,5.2-3.9s-0.1-2.7,0-5.3c0.1-2.6,0.9-3,1.9-3.5
		c0.9-0.5,8.8-4.4,19.8-12.9s17.3-15.6,22.7-26.4c5.4-10.7,6.9-17.5,6.9-19.9S357.6,20.7,355.2,20.7z M328.1,36.4
		c-1.7,3.1-8.3,12.9-16.9,18c-3.9,2.8-4,2-4-4.7c0-6.7,0.1-18.3,0.1-19.5c0-1.2,1.1-2,2.3-1.8c1.1,0.2,17.1,0.2,20,0.2
		C332.4,28.6,329.8,33.4,328.1,36.4z"/>
	<path class="st4" d="M435.1,28.2c-0.5,0-0.2,1.6,0.2,3.7s2.7,16.8,14.5,28.8c11.8,12,25,16.5,28.9,17.4c1.5,0.5,4.7,0.3,4.7,2.3
		c0,2-0.1,8.5-0.1,11c0.1,2.4-1.6,5.2-4.4,5.2s-10.2,1.4-20.2-3.2c-10-4.6-26.2-14.8-36.5-34.7c-10.3-19.9-9.6-19.2-11.2-23.5
		s-2.2-5.7-4.1-7.5c-1.9-1.8-2.5-3.3-2.5-4.9s1.9-2.2,4.8-2.2c2.9,0,70.7,0,71.7,0.1s2.7,1.1,2.7,3.9s-2.2,3.7-2.8,3.7
		C480.2,28.2,435.6,28.2,435.1,28.2z"/>
</svg>