<svg version="1.1" xmlns="http://www.w3.org/2000/svg" width="85.7px" height="95.5px" viewBox="0 0 85.7 95.5">
<title>loggin icon</title>
<style type="text/css">
	.st0{fill:url(#SVGID_1_);}
	.st1{fill:url(#SVGID_2_);}
	.st2{fill:url(#SVGID_3_);}
	.st3{fill:url(#SVGID_4_);}
	.st4{fill:url(#SVGID_5_);}
	.st5{fill:url(#SVGID_6_);}
	.st6{fill:url(#SVGID_7_);}
</style>
	<linearGradient id="SVGID_1_" gradientUnits="userSpaceOnUse" x1="42.8418" y1="47.489" x2="42.8418" y2="95.5087">
		<stop  offset="0" style="stop-color:#4285F4"/>
		<stop  offset="1" style="stop-color:#4470B3"/>
	</linearGradient>
	<path class="st0" d="M63.4,70.8c0,4.2-0.3,24.3-0.3,24.3l-40-0.5c0,0-0.3-18.5-0.3-23.7c0-5.2-7.8-3.7-7.8-0.3c0,3.3-0.2,24-0.2,24
		H0.2c0,0-0.3-23.3-0.2-27.3s3.8-20.5,18.3-19.8c14.8,14.2,36.2,13.3,48.3,0.7c7.7,0,18.8,5.2,18.8,19.8s0.2,27.5,0.2,27.5
		l-14.6-0.3c0,0-0.4-18.7-0.6-23.8S63.4,66.7,63.4,70.8z"/>
	<linearGradient id="SVGID_2_" gradientUnits="userSpaceOnUse" x1="42.767" y1="0" x2="42.767" y2="21.342">
		<stop  offset="0" style="stop-color:#4285F4"/>
		<stop  offset="1" style="stop-color:#4470B3"/>
	</linearGradient>
	<path class="st1" d="M67.7,21.2c0,0-3.7-20.7-24-21.2S17.9,20.8,17.9,20.8L25,21c0,0,4-4.8,18.5-4.8s16.7,5.2,16.7,5.2L67.7,21.2z"
		/>
	<linearGradient id="SVGID_3_" gradientUnits="userSpaceOnUse" x1="12.1822" y1="21.9253" x2="12.1822" y2="34.6337">
		<stop  offset="0" style="stop-color:#4285F4"/>
		<stop  offset="1" style="stop-color:#4470B3"/>
	</linearGradient>
	<path class="st2" d="M15.4,22v12.7l-3-0.2c0,0-3.2,0-3.3-6s3.7-6.5,3.7-6.5L15.4,22z"/>
	<linearGradient id="SVGID_4_" gradientUnits="userSpaceOnUse" x1="17.8503" y1="22.1753" x2="17.8503" y2="34.842">
		<stop  offset="0" style="stop-color:#4285F4"/>
		<stop  offset="1" style="stop-color:#4470B3"/>
	</linearGradient>
	<polygon class="st3" points="18.9,22.2 19,34.8 16.7,34.8 16.7,22.2 	"/>
	<linearGradient id="SVGID_5_" gradientUnits="userSpaceOnUse" x1="27.1003" y1="31.217" x2="27.1003" y2="44.7226">
		<stop  offset="0" style="stop-color:#4285F4"/>
		<stop  offset="1" style="stop-color:#4470B3"/>
	</linearGradient>
	<path class="st4" d="M21.2,31.2c0,0,7.3,9.2,8.3,10.1c1.1,1,3,0.8,3.6,0.7c-0.3,1-0.4,2.7-0.4,2.7s-0.5,0.2-3.5-1.6
		c-2-2-8.1-7.9-8.1-7.9L21.2,31.2z"/>
	<linearGradient id="SVGID_6_" gradientUnits="userSpaceOnUse" x1="39.6235" y1="41.1743" x2="39.6235" y2="47.1561">
		<stop  offset="0" style="stop-color:#4285F4"/>
		<stop  offset="1" style="stop-color:#4470B3"/>
	</linearGradient>
	<path class="st5" d="M34.6,41.2c0.7-0.2,9.1,0.4,10.2,1.1c1.1,0.7,0.5,4.2-0.2,4.7c-0.4,0.5-9.7-0.1-10.4-0.8
		C33.5,45.4,34,41.4,34.6,41.2z"/>
	<linearGradient id="SVGID_7_" gradientUnits="userSpaceOnUse" x1="43.8781" y1="22.967" x2="43.8781" y2="54.3225">
		<stop  offset="0" style="stop-color:#4285F4"/>
		<stop  offset="1" style="stop-color:#4470B3"/>
	</linearGradient>
	<path class="st6" d="M20.4,37.3c-0.6-0.4-0.8,0-0.7,0.7c0,0,4.4,16.1,23.2,16.3c18.9,0.2,23.8-15.6,24.9-22.5
		c0.6-4.9-0.1-8.9-0.1-8.9s-2.7,0-3.6,0C66.9,33.2,64,52,43,51.8C27.8,51.5,25,45.2,20.4,37.3z"/>
</svg>