<svg version="1.1" xmlns="http://www.w3.org/2000/svg" width="120px" height="120px" viewBox="0 0 118.7 118.7">
<title>loggin icon</title>
<style type="text/css">
	.st0{fill:url(#SVGID_1_);}
	.st1{fill:#FFFFFF;}
</style>
<linearGradient id="SVGID_1_" gradientUnits="userSpaceOnUse" x1="59.3747" y1="0" x2="59.3747" y2="118.7495">
	<stop  offset="0" style="stop-color:#4285F4"/>
	<stop  offset="1" style="stop-color:#4470B3"/>
</linearGradient>
<path class="st0" d="M106.7,118.7H12c-6.6,0-12-5.4-12-12V12C0,5.4,5.4,0,12,0h94.7c6.6,0,12,5.4,12,12v94.7
	C118.7,113.3,113.3,118.7,106.7,118.7z"/>
	<path class="st1" d="M77.1,81c0,4.2-0.3,24.3-0.3,24.3l-40-0.5c0,0-0.3-18.5-0.3-23.7c0-5.2-7.8-3.7-7.8-0.3s-0.2,24-0.2,24H13.9
		c0,0-0.3-23.3-0.2-27.3c0.1-4,3.8-20.5,18.3-19.8C46.9,71.8,68.2,71,80.4,58.3c7.7,0,18.8,5.2,18.8,19.8s0.2,27.5,0.2,27.5
		l-14.6-0.3c0,0-0.4-18.7-0.6-23.8C84.1,76.3,77.1,76.8,77.1,81z"/>
	<path class="st1" d="M81.4,31.3c0,0-3.7-20.7-24-21.2S31.6,31,31.6,31l7.2,0.2c0,0,4-4.8,18.5-4.8s16.7,5.2,16.7,5.2L81.4,31.3z"/>
	<path class="st1" d="M29.1,32.1v12.7l-3-0.2c0,0-3.2,0-3.3-6s3.7-6.5,3.7-6.5L29.1,32.1z"/>
	<polygon class="st1" points="32.6,32.3 32.7,45 30.4,45 30.4,32.3 	"/>
	<path class="st1" d="M34.9,41.4c0,0,7.3,9.2,8.3,10.1c1.1,1,3,0.8,3.6,0.7c-0.3,1-0.4,2.7-0.4,2.7s-0.5,0.2-3.5-1.6
		c-2-2-8.1-7.9-8.1-7.9L34.9,41.4z"/>
	<path class="st1" d="M48.3,51.4c0.7-0.2,9.1,0.4,10.2,1.1c1.1,0.7,0.5,4.2-0.2,4.7c-0.4,0.5-9.7-0.1-10.4-0.8
		C47.2,55.6,47.7,51.6,48.3,51.4z"/>
	<path class="st1" d="M34.1,47.5c-0.6-0.4-0.8,0-0.7,0.7c0,0,4.4,16.1,23.2,16.3C75.5,64.6,80.4,48.8,81.6,42
		c0.6-4.9-0.1-8.9-0.1-8.9s-2.7,0-3.6,0c2.8,10.2-0.1,29-21.1,28.8C41.5,61.6,38.7,55.3,34.1,47.5z"/>
</svg>