<svg version="1.1" xmlns="http://www.w3.org/2000/svg" width="120px" height="120px" viewBox="0 0 118.7 118.7">
<title>radio links icon</title>
<style type="text/css">
	.st0{fill:url(#SVGID_1_);}
	.st1{fill:#FFFFFF;}
</style>
<linearGradient id="SVGID_1_" gradientUnits="userSpaceOnUse" x1="59.3747" y1="0" x2="59.3747" y2="118.7495">
	<stop  offset="0" style="stop-color:#4285F4"/>
	<stop  offset="1" style="stop-color:#4470B3"/>
</linearGradient>
<path class="st0" d="M106.7,118.7H12c-6.6,0-12-5.4-12-12V12C0,5.4,5.4,0,12,0h94.7c6.6,0,12,5.4,12,12v94.7
	C118.7,113.3,113.3,118.7,106.7,118.7z"/>
	<path class="st1" d="M42.6,10.3l-7,7.9c-12.7,14.4-11.9,36,1.5,49.4c0.9-4.4,4.8-7.8,9.5-7.8c5.4,0,9.7,4.3,9.7,9.7
		c0,3.1-1.4,5.8-3.7,7.6c13.1,4,27.9,0.3,37.6-10.6l4-4.5L42.6,10.3z"/>
	<path class="st1" d="M46.4,61.6c-4.5,0-8.2,3.7-8.2,8.2c0,4.5,3.7,8.2,8.2,8.2c4.5,0,8.2-3.7,8.2-8.2
		C54.6,65.2,50.9,61.6,46.4,61.6z M46.7,76.1c-3.6,0-6.4-2.9-6.4-6.4c0-3.6,2.9-6.4,6.4-6.4c3.6,0,6.4,2.9,6.4,6.4
		C53.1,73.2,50.2,76.1,46.7,76.1z"/>
	<circle class="st1" cx="46.7" cy="69.8" r="4.4"/>
	<path class="st1" d="M38.2,75c0,0,4.2,4.6,7.9,4.6s5.5-1.5,6.1-1.9c1.8,0.8,2.9,0.6,3.2,1.1c0.3,0.5,7.9,23.7,7.1,25.8
		s-31,1-32-0.3C29.7,103,38.2,75,38.2,75z"/>
		<rect x="67.6" y="28.1" transform="matrix(0.7071 -0.7071 0.7071 0.7071 -0.6729 60.5684)" class="st1" width="10.3" height="5.9"/>
	<circle class="st1" cx="81.1" cy="23.5" r="5"/>
</svg>