<svg version="1.1" xmlns="http://www.w3.org/2000/svg" width="120px" height="120px" viewBox="0 0 118.7 118.7">
<title>scripts icon</title>
<style type="text/css">
	.st0{fill:url(#SVGID_1_);}
	.st1{fill:#FFFFFF;}
</style>
<linearGradient id="SVGID_1_" gradientUnits="userSpaceOnUse" x1="59.3747" y1="0" x2="59.3747" y2="118.7495">
	<stop  offset="0" style="stop-color:#4285F4"/>
	<stop  offset="1" style="stop-color:#4470B3"/>
</linearGradient>
<path class="st0" d="M106.7,118.7H12c-6.6,0-12-5.4-12-12V12C0,5.4,5.4,0,12,0h94.7c6.6,0,12,5.4,12,12v94.7
	C118.7,113.3,113.3,118.7,106.7,118.7z"/>
	<path class="st1" d="M100.2,21.9c0-2.6-2.1-4.8-4.8-4.8H36.1c-2.6,0-4.8,2.1-4.8,4.8v14.9h-5.9c-3.3,0-5.9,2.6-5.9,5.9v54.8
		c0,3.3,2.6,5.9,5.9,5.9h68.8c3.3,0,5.9-2.6,5.9-5.9V42.7c0-0.9-0.2-1.8-0.6-2.5c0.4-0.7,0.6-1.4,0.6-2.2V21.9z M57.9,23h16v16.2
		h-16V23z M37.6,23h16v16.2h-16V23z M94.4,96.2h-69V43.5h69V96.2z M94.4,39.2h-16V23h16V39.2z"/>
	<rect x="40.2" y="33.8" class="st1" width="11" height="3.5"/>
	<path class="st1" d="M60.1,26.5v10.8h11.7V26.5H60.1z M70.1,33.8h-8.2v-6.2h8.2V33.8z"/>
	<polygon class="st1" points="88.5,27.5 92.7,27.6 88.8,31.7 92.6,36.4 88.2,36.4 86.6,34.2 84.6,36.4 80.1,36.4 84,32.2 80.1,27.6 
		84.6,27.5 86.5,30.2 	"/>
</svg>