<svg version="1.1" xmlns="http://www.w3.org/2000/svg" width="120px" height="120px" viewBox="0 0 118.7 118.7">
<title>service icon</title>
<style type="text/css">
	.st0{fill:url(#SVGID_1_);}
	.st1{fill:#FFFFFF;}
</style>
<linearGradient id="SVGID_1_" gradientUnits="userSpaceOnUse" x1="59.3747" y1="0" x2="59.3747" y2="118.7495">
	<stop  offset="0" style="stop-color:#4285F4"/>
	<stop  offset="1" style="stop-color:#4470B3"/>
</linearGradient>
<path class="st0" d="M106.7,118.7H12c-6.6,0-12-5.4-12-12V12C0,5.4,5.4,0,12,0h94.7c6.6,0,12,5.4,12,12v94.7
	C118.7,113.3,113.3,118.7,106.7,118.7z"/>
		<rect x="37.3" y="43.4" transform="matrix(0.7071 -0.7071 0.7071 0.7071 -17.6632 46.6969)" class="st1" width="20.5" height="2.5"/>
	<rect x="60.3" y="65.9" transform="matrix(0.709 -0.7052 0.7052 0.709 -26.8084 69.3057)" class="st1" width="20.5" height="2.5"/>
	<path class="st1" d="M92.9,34.8L80.7,22.6c-1.1-1.1-3-1.1-4.1,0c-0.1,0.1-0.3,0.3-0.4,0.5L72,27.3l16.3,16.3l4.4-4.4l0,0
		c0.1-0.1,0.2-0.1,0.2-0.2C94.1,37.8,94.1,36,92.9,34.8z"/>
	<path class="st1" d="M35.7,69.4l10.2,10.3l-5.1,5.5c0,0,0.3-2.8-0.5-5.4c-1.5-4.9-6-9.1-6-9.1L35.7,69.4z"/>
	<path class="st1" d="M25.2,102.3c-5.5,0-6,0-6,0V68c0,0,3.8,0,6,0C42.8,70.8,45.6,97.6,25.2,102.3z"/>
	<rect x="12.9" y="83.8" class="st1" width="5.1" height="2.8"/>
	<circle class="st1" cx="9.1" cy="85.1" r="2.9"/>
	<path class="st1" d="M36.6,8.4L13,31.9l22,22l23.5-23.5L36.6,8.4z M15.9,32.1l20.6-20.6l19.3,19.3L35.1,51.3L15.9,32.1z"/>
	<path class="st1" d="M85.5,49L54,80.5c-1.5,1.5-3.9,1.5-5.4,0l-14-14c-1.5-1.5-1.5-3.9,0-5.4L66,29.6c1.5-1.5,3.9-1.5,5.4,0l14,14
		C87,45.1,87,47.5,85.5,49z"/>
		<rect x="24.3" y="18.5" transform="matrix(0.7071 0.7071 -0.7071 0.7071 32.3914 -16.1226)" class="st1" width="22.6" height="25.1"/>
	<path class="st1" d="M84.9,56.1L61.3,79.6l21.9,22.1l23.6-23.5L84.9,56.1z M63.9,79.5L84.5,59l19.2,19.3L83.1,98.8L63.9,79.5z"/>
		<rect x="72.8" y="66.5" transform="matrix(-0.7052 -0.709 0.709 -0.7052 87.4829 194.4699)" class="st1" width="22.6" height="25.1"/>
</svg>