<svg version="1.1" xmlns="http://www.w3.org/2000/svg" width="100.6px" height="93.9px" viewBox="0 0 100.6 93.9">
<title>service icon</title>
<style type="text/css">
	.st0{fill:url(#SVGID_1_);}
</style>
<linearGradient id="SVGID_1_" gradientUnits="userSpaceOnUse" x1="59.3747" y1="0" x2="59.3747" y2="118.7495">
	<stop  offset="0" style="stop-color:#4285F4"/>
	<stop  offset="1" style="stop-color:#4470B3"/>
</linearGradient>
	<polygon class="st0" points="47.7,28.2 33.2,42.7 35,44.4 49.5,29.9 	"/>
	<polygon class="st0" points="72.5,52.4 58,66.9 56.2,65.1 70.7,50.6 	"/>
	<path class="st0" d="M86.7,26.4L74.5,14.2c-1.1-1.1-3-1.1-4.1,0c-0.1,0.1-0.3,0.3-0.4,0.5l-4.2,4.2l16.3,16.3l4.4-4.4l0,0
		c0.1-0.1,0.2-0.1,0.2-0.2C87.9,29.4,87.9,27.6,86.7,26.4z"/>
	<path class="st0" d="M29.5,61l10.2,10.3l-5.1,5.5c0,0,0.3-2.8-0.5-5.4c-1.5-4.9-6-9.1-6-9.1L29.5,61z"/>
	<path class="st0" d="M19,93.9c-5.5,0-6,0-6,0V59.7c0,0,3.8,0,6,0C36.6,62.5,39.4,89.3,19,93.9z"/>
	<rect x="6.7" y="75.4" class="st0" width="5.1" height="2.8"/>
	<circle class="st0" cx="2.9" cy="76.7" r="2.9"/>
	<path class="st0" d="M30.4,0L6.8,23.5l22,22L52.4,22L30.4,0z M9.7,23.7L30.3,3.1l19.2,19.3L28.9,43L9.7,23.7z"/>
	<path class="st0" d="M79.3,40.7L47.8,72.1c-1.5,1.5-3.9,1.5-5.4,0l-14-14c-1.5-1.5-1.5-3.9,0-5.4l31.5-31.5c1.5-1.5,3.9-1.5,5.4,0
		l14,14C80.8,36.7,80.8,39.2,79.3,40.7z"/>
	<polygon class="st0" points="30.3,5.8 46.3,21.8 28.6,39.5 12.6,23.5 	"/>
	<path class="st0" d="M78.7,47.8L55.1,71.2L77,93.3l23.6-23.5L78.7,47.8z M57.7,71.1l20.7-20.5l19.2,19.3L76.9,90.4L57.7,71.1z"/>
	<polygon class="st0" points="94.8,69.9 78.9,53.8 61.1,71.5 77.1,87.6 	"/>
</svg>