<svg version="1.1" xmlns="http://www.w3.org/2000/svg" width="100.2px" height="80.5px" viewBox="0 0 100.2 80.5">
<title>zayavki icon</title>
<style type="text/css">
	.st0{fill:url(#SVGID_1_);}
	.st1{fill:url(#SVGID_2_);}
</style>
	<linearGradient id="SVGID_1_" gradientUnits="userSpaceOnUse" x1="64.5208" y1="0" x2="64.5208" y2="77.6667">
		<stop  offset="0" style="stop-color:#4285F4"/>
		<stop  offset="1" style="stop-color:#4470B3"/>
	</linearGradient>
	<path class="st0" d="M100.2,25.2v-0.3C100.2,11.1,89.1,0,75.4,0H53.7C40,0,28.9,11.1,28.9,24.8v0.3C28.9,38.9,40,50,53.7,50H58
		c9.7,15.5,38.2,27.7,38.2,27.7S80.9,67.4,82.8,48.9C92.9,45.7,100.2,36.3,100.2,25.2z M46.9,12.9h34.5c1,0,1.8,0.8,1.8,1.8
		s-0.8,1.8-1.8,1.8H46.9c-1,0-1.8-0.8-1.8-1.8S46,12.9,46.9,12.9z M46.9,22.2h34.5c1,0,1.8,0.8,1.8,1.8s-0.8,1.8-1.8,1.8H46.9
		c-1,0-1.8-0.8-1.8-1.8S46,22.2,46.9,22.2z M81.5,35.2H46.9c-1,0-1.8-0.8-1.8-1.8s0.8-1.8,1.8-1.8h34.5c1,0,1.8,0.8,1.8,1.8
		S82.5,35.2,81.5,35.2z"/>
	<linearGradient id="SVGID_2_" gradientUnits="userSpaceOnUse" x1="26.4163" y1="12.2452" x2="26.4163" y2="80.4792">
		<stop  offset="0" style="stop-color:#4285F4"/>
		<stop  offset="1" style="stop-color:#4470B3"/>
	</linearGradient>
	<path class="st1" d="M32.8,43.2H16.4c-0.9,0-1.6-0.7-1.6-1.6c0-0.9,0.7-1.6,1.6-1.6h14c-1-1.6-1.9-3.3-2.6-5.2H16.4
		c-0.9,0-1.6-0.7-1.6-1.6c0-0.9,0.7-1.6,1.6-1.6h10.4c-0.4-1.6-0.7-3.4-0.8-5.1h-9.7c-0.9,0-1.6-0.7-1.6-1.6c0-0.9,0.7-1.6,1.6-1.6
		h9.7c0.2-4.1,1.4-7.9,3.2-11.3h-7.5C9.8,12.2,0,22,0,34.1v0.3c0,9.8,6.4,18,15.3,20.8C16.9,71.4,3.5,80.5,3.5,80.5
		s25.1-10.7,33.6-24.3h3.8c4.4,0,8.5-1.3,12-3.6C44.9,52.4,37.7,48.8,32.8,43.2z"/>
</svg>