<svg version="1.1" xmlns="http://www.w3.org/2000/svg" width="120px" height="120px" viewBox="0 0 118.7 118.7">
<title>zayavki icon</title>
<style type="text/css">
	.st0{fill:url(#SVGID_1_);}
	.st1{fill:#FFFFFF;}
</style>
<linearGradient id="SVGID_1_" gradientUnits="userSpaceOnUse" x1="59.3747" y1="0" x2="59.3747" y2="118.7495">
	<stop  offset="0" style="stop-color:#4285F4"/>
	<stop  offset="1" style="stop-color:#4470B3"/>
</linearGradient>
<path class="st0" d="M106.7,118.7H12c-6.6,0-12-5.4-12-12V12C0,5.4,5.4,0,12,0h94.7c6.6,0,12,5.4,12,12v94.7
	C118.7,113.3,113.3,118.7,106.7,118.7z"/>
	<path class="st1" d="M110.3,45.7v-0.3c0-13.7-11.1-24.8-24.8-24.8H63.8C50.1,20.5,39,31.6,39,45.3v0.3c0,13.7,11.1,24.8,24.8,24.8
		h4.3c9.7,15.5,38.2,27.7,38.2,27.7S91.1,87.9,93,69.4C103,66.2,110.3,56.8,110.3,45.7z M57.1,33.3h34.5c1,0,1.8,0.8,1.8,1.8
		s-0.8,1.8-1.8,1.8H57.1c-1,0-1.8-0.8-1.8-1.8S56.1,33.3,57.1,33.3z M57.1,42.7h34.5c1,0,1.8,0.8,1.8,1.8s-0.8,1.8-1.8,1.8H57.1
		c-1,0-1.8-0.8-1.8-1.8S56.1,42.7,57.1,42.7z M91.6,55.7H57.1c-1,0-1.8-0.8-1.8-1.8s0.8-1.8,1.8-1.8h34.5c1,0,1.8,0.8,1.8,1.8
		S92.6,55.7,91.6,55.7z"/>
	<path class="st1" d="M43,63.7H26.6c-0.9,0-1.6-0.7-1.6-1.6c0-0.9,0.7-1.6,1.6-1.6h14c-1-1.6-1.9-3.3-2.6-5.2H26.6
		c-0.9,0-1.6-0.7-1.6-1.6c0-0.9,0.7-1.6,1.6-1.6H37c-0.4-1.6-0.7-3.4-0.8-5.1h-9.7c-0.9,0-1.6-0.7-1.6-1.6c0-0.9,0.7-1.6,1.6-1.6
		h9.7c0.2-4.1,1.4-7.9,3.2-11.3H32c-12,0-21.8,9.8-21.8,21.8v0.3c0,9.8,6.4,18,15.3,20.8C27.1,91.9,13.7,101,13.7,101
		s25.1-10.7,33.6-24.3H51c4.4,0,8.5-1.3,12-3.6C55,72.9,47.9,69.3,43,63.7z"/>
</svg>
