<?xml version="1.0" encoding="utf-8"?>
<!-- Generator: Adobe Illustrator 22.0.0, SVG Export Plug-In . SVG Version: 6.00 Build 0)  -->
<svg version="1.1" id="Слой_1" xmlns="http://www.w3.org/2000/svg" xmlns:xlink="http://www.w3.org/1999/xlink" x="0px" y="0px"
	 width="318.196px" height="75.417px" viewBox="0 0 318.196 75.417" enable-background="new 0 0 318.196 75.417"
	 xml:space="preserve">
<linearGradient id="SVGID_1_" gradientUnits="userSpaceOnUse" x1="15.0453" y1="78.0962" x2="61.5164" y2="-2.3942">
	<stop  offset="0" style="stop-color:#2581C4"/>
	<stop  offset="1" style="stop-color:#0075BF;stop-opacity:0.5"/>
</linearGradient>
<path fill="url(#SVGID_1_)" d="M63.522,75.092H13.039c-6.6,0-12-5.4-12-12V12.61c0-6.6,5.4-12,12-12h50.483c6.6,0,12,5.4,12,12
	v50.483C75.522,69.692,70.122,75.092,63.522,75.092z"/>
<linearGradient id="SVGID_2_" gradientUnits="userSpaceOnUse" x1="95.7349" y1="78.0962" x2="142.206" y2="-2.3942">
	<stop  offset="0" style="stop-color:#2581C4"/>
	<stop  offset="1" style="stop-color:#0075BF;stop-opacity:0.5"/>
</linearGradient>
<path fill="url(#SVGID_2_)" d="M144.212,75.092H93.729c-6.6,0-12-5.4-12-12V12.61c0-6.6,5.4-12,12-12h50.483c6.6,0,12,5.4,12,12
	v50.483C156.212,69.692,150.812,75.092,144.212,75.092z"/>
<linearGradient id="SVGID_3_" gradientUnits="userSpaceOnUse" x1="176.4246" y1="78.0962" x2="222.8957" y2="-2.3942">
	<stop  offset="0" style="stop-color:#2581C4"/>
	<stop  offset="1" style="stop-color:#0075BF;stop-opacity:0.5"/>
</linearGradient>
<path fill="url(#SVGID_3_)" d="M224.902,75.092h-50.483c-6.6,0-12-5.4-12-12V12.61c0-6.6,5.4-12,12-12h50.483c6.6,0,12,5.4,12,12
	v50.483C236.902,69.692,231.502,75.092,224.902,75.092z"/>
<linearGradient id="SVGID_4_" gradientUnits="userSpaceOnUse" x1="257.1142" y1="78.0962" x2="303.5853" y2="-2.3942">
	<stop  offset="0" style="stop-color:#2581C4"/>
	<stop  offset="1" style="stop-color:#0075BF;stop-opacity:0.5"/>
</linearGradient>
<path fill="url(#SVGID_4_)" d="M305.591,75.092h-50.483c-6.6,0-12-5.4-12-12V12.61c0-6.6,5.4-12,12-12h50.483c6.6,0,12,5.4,12,12
	v50.483C317.591,69.692,312.191,75.092,305.591,75.092z"/>
<path fill="#FFFFFF" d="M53.304,58.344H44.76l-6.723-20.531l-10.531,10.43l-1.888,10.101h-8.08l7.551-40.912h8.114l-3.312,17.833
	c-0.066,0.34-0.409,1.779-1.027,4.316c0.795-1.119,1.644-2.128,2.55-3.027l19.075-19.123h8.676L44.363,32.029L53.304,58.344z"/>
<path fill="#FFFFFF" d="M113.134,46.378l-10.829-28.983h8.842l7.418,20.711l12.817-20.711h7.782l-19.573,30.782
	c-2.517,3.976-4.907,6.659-7.17,8.047c-2.263,1.389-5.215,2.083-8.858,2.083h-3.014l1.159-6.354h3.046
	c1.965,0,3.449-0.31,4.454-0.929c1.004-0.619,2.004-1.688,2.997-3.207L113.134,46.378z"/>
<path fill="#FFFFFF" d="M187.743,58.344h-8.445l7.55-40.912h12.12c3.93,0,6.8,0.075,8.611,0.225c1.81,0.15,3.576,0.685,5.299,1.604
	c1.722,0.919,3.113,2.243,4.172,3.971c1.059,1.729,1.59,3.662,1.59,5.8c0,2.837-0.856,5.35-2.567,7.538
	c-1.711,2.188-3.71,3.632-5.994,4.331c-2.286,0.7-5.083,1.049-8.395,1.049h-10.895L187.743,58.344z M194.2,23.397l-2.286,12.528
	h8.015c2.826,0,4.801-0.165,5.927-0.495c1.127-0.33,2.12-1.049,2.981-2.158c0.86-1.109,1.292-2.453,1.292-4.031
	c0-1.479-0.387-2.692-1.159-3.642c-0.773-0.949-1.69-1.553-2.749-1.813c-1.059-0.26-2.959-0.39-5.696-0.39H194.2z"/>
<path fill="#FFFFFF" d="M296.027,47.135c-3.863,8.192-9.836,12.289-17.916,12.289c-4.901,0-8.892-1.604-11.971-4.811
	c-3.081-3.207-4.62-7.568-4.62-13.083c0-6.894,1.976-12.813,5.928-17.758c3.951-4.945,9.029-7.418,15.233-7.418
	c4.835,0,8.665,1.269,11.491,3.806c2.826,2.538,4.438,6.055,4.836,10.55l-7.352,1.199c-0.662-6.274-3.709-9.411-9.14-9.411
	c-4.394,0-7.556,2.358-9.488,7.073c-1.932,4.716-2.898,9.202-2.898,13.458c0,3.317,0.812,5.815,2.435,7.493
	c1.622,1.679,3.692,2.518,6.209,2.518c2.318,0,4.421-0.814,6.309-2.442s3.328-3.612,4.321-5.95L296.027,47.135z"/>
</svg>
