<?xml version="1.0" encoding="utf-8"?>
<!-- Generator: Adobe Illustrator 22.0.0, SVG Export Plug-In . SVG Version: 6.00 Build 0)  -->
<svg version="1.1" id="Слой_1" xmlns="http://www.w3.org/2000/svg" xmlns:xlink="http://www.w3.org/1999/xlink" x="0px" y="0px"
	 width="318.196px" height="75.417px" viewBox="0 0 318.196 75.417" enable-background="new 0 0 318.196 75.417"
	 xml:space="preserve">
<linearGradient id="SVGID_1_" gradientUnits="userSpaceOnUse" x1="14.9716" y1="78.2279" x2="61.4427" y2="-2.2624">
	<stop  offset="0" style="stop-color:#2581C4"/>
	<stop  offset="1" style="stop-color:#0075BF;stop-opacity:0.5"/>
</linearGradient>
<path fill="url(#SVGID_1_)" d="M63.449,75.224H12.966c-6.6,0-12-5.4-12-12V12.741c0-6.6,5.4-12,12-12h50.483c6.6,0,12,5.4,12,12
	v50.483C75.449,69.824,70.049,75.224,63.449,75.224z"/>
<linearGradient id="SVGID_2_" gradientUnits="userSpaceOnUse" x1="95.6613" y1="78.2279" x2="142.1324" y2="-2.2624">
	<stop  offset="0" style="stop-color:#2581C4"/>
	<stop  offset="1" style="stop-color:#0075BF;stop-opacity:0.5"/>
</linearGradient>
<path fill="url(#SVGID_2_)" d="M144.138,75.224H93.655c-6.6,0-12-5.4-12-12V12.741c0-6.6,5.4-12,12-12h50.483c6.6,0,12,5.4,12,12
	v50.483C156.138,69.824,150.738,75.224,144.138,75.224z"/>
<linearGradient id="SVGID_3_" gradientUnits="userSpaceOnUse" x1="176.3509" y1="78.2279" x2="222.822" y2="-2.2624">
	<stop  offset="0" style="stop-color:#2581C4"/>
	<stop  offset="1" style="stop-color:#0075BF;stop-opacity:0.5"/>
</linearGradient>
<path fill="url(#SVGID_3_)" d="M224.828,75.224h-50.483c-6.6,0-12-5.4-12-12V12.741c0-6.6,5.4-12,12-12h50.483c6.6,0,12,5.4,12,12
	v50.483C236.828,69.824,231.428,75.224,224.828,75.224z"/>
<linearGradient id="SVGID_4_" gradientUnits="userSpaceOnUse" x1="257.0406" y1="78.2279" x2="303.5117" y2="-2.2624">
	<stop  offset="0" style="stop-color:#2581C4"/>
	<stop  offset="1" style="stop-color:#0075BF;stop-opacity:0.5"/>
</linearGradient>
<path fill="url(#SVGID_4_)" d="M305.518,75.224h-50.483c-6.6,0-12-5.4-12-12V12.741c0-6.6,5.4-12,12-12h50.483c6.6,0,12,5.4,12,12
	v50.483C317.518,69.824,312.117,75.224,305.518,75.224z"/>
<g>
	<path fill="#FFFFFF" d="M48.438,57.651h-7.2l-3.512-28.026L25.403,57.651h-6.937l-4.683-37.487h7.727l2.664,28.109l12.264-28.109
		h7.113l3.19,28.109l12.146-28.109h6.322L48.438,57.651z"/>
</g>
<g>
	<path fill="#FFFFFF" d="M211.679,57.379h-5.707l-13.64-27.972l-5.005,27.972h-5.767l6.674-37.215h7.405l12.439,25.546l4.595-25.546
		h5.708L211.679,57.379z"/>
</g>
<g>
	<path fill="#FFFFFF" d="M133.915,27.226l-6.557,2.263c-1.405-3.09-3.942-4.635-7.61-4.635c-2.225,0-3.957,0.486-5.195,1.459
		c-1.24,0.973-1.859,2.177-1.859,3.612c0,1.108,0.419,2.014,1.259,2.713c0.839,0.699,2.224,1.304,4.156,1.813l5.473,1.5
		c1.581,0.418,3.083,1.081,4.508,1.99c1.424,0.909,2.488,2.045,3.19,3.407c0.702,1.363,1.054,2.8,1.054,4.308
		c0,3.381-1.352,6.312-4.054,8.793c-2.703,2.48-6.649,3.722-11.839,3.722c-8.04,0-13.25-3.09-15.63-9.27l6.527-2.154
		c1.581,3.89,4.761,5.834,9.542,5.834c2.732,0,4.761-0.586,6.088-1.758c1.327-1.173,1.991-2.504,1.991-3.994
		c0-0.854-0.249-1.595-0.747-2.222c-0.498-0.628-1.127-1.104-1.888-1.432c-0.761-0.327-2.283-0.791-4.566-1.391
		c-3.181-0.854-5.557-1.663-7.127-2.427c-1.571-0.763-2.849-1.871-3.834-3.325s-1.478-3.181-1.478-5.181
		c0-3.398,1.317-6.18,3.952-8.343c2.634-2.162,6.224-3.244,10.771-3.244C126.753,19.265,131.377,21.919,133.915,27.226z"/>
</g>
<g>
	<path fill="#FFFFFF" d="M295.293,47.183c-3.416,7.452-8.693,11.178-15.836,11.178c-4.332,0-7.858-1.459-10.58-4.376
		c-2.723-2.917-4.084-6.884-4.084-11.9c0-6.271,1.746-11.655,5.24-16.153c3.492-4.498,7.98-6.748,13.463-6.748
		c4.273,0,7.659,1.155,10.157,3.463c2.497,2.309,3.922,5.507,4.273,9.597l-6.498,1.091c-0.585-5.707-3.278-8.561-8.078-8.561
		c-3.884,0-6.679,2.145-8.386,6.434c-1.708,4.29-2.561,8.37-2.561,12.241c0,3.018,0.717,5.289,2.15,6.816
		c1.435,1.526,3.264,2.29,5.488,2.29c2.049,0,3.908-0.741,5.576-2.223c1.668-1.48,2.941-3.285,3.819-5.411L295.293,47.183z"/>
</g>
</svg>
