<?xml version="1.0" encoding="utf-8"?>
<!-- Generator: Adobe Illustrator 22.0.0, SVG Export Plug-In . SVG Version: 6.00 Build 0)  -->
<svg version="1.1" xmlns="http://www.w3.org/2000/svg" xmlns:xlink="http://www.w3.org/1999/xlink" x="0px" y="0px"
	 width="317.005px" height="73.944px" viewBox="0 0 317.005 73.944" enable-background="new 0 0 317.005 73.944"
	 xml:space="preserve">
<g id="Слой_1" display="none">
	<g display="inline">
		<path fill="#2B64AE" d="M67.897,79.724H17.414c-6.6,0-12-5.4-12-12V17.241c0-6.6,5.4-12,12-12h50.483c6.6,0,12,5.4,12,12v50.483
			C79.897,74.324,74.497,79.724,67.897,79.724z"/>
		<path fill="#2B64AE" d="M148.586,79.724H98.103c-6.6,0-12-5.4-12-12V17.241c0-6.6,5.4-12,12-12h50.483c6.6,0,12,5.4,12,12v50.483
			C160.586,74.324,155.186,79.724,148.586,79.724z"/>
		<path fill="#2B64AE" d="M229.276,79.724h-50.483c-6.6,0-12-5.4-12-12V17.241c0-6.6,5.4-12,12-12h50.483c6.6,0,12,5.4,12,12v50.483
			C241.276,74.324,235.876,79.724,229.276,79.724z"/>
		<path fill="#2B64AE" d="M309.966,79.724h-50.483c-6.6,0-12-5.4-12-12V17.241c0-6.6,5.4-12,12-12h50.483c6.6,0,12,5.4,12,12v50.483
			C321.966,74.324,316.566,79.724,309.966,79.724z"/>
		<g>
			<path fill="#FFFFFF" d="M51.414,18.616l14.459-0.362L44.332,39.824l14.786,26.864L46.77,66.62l-10.32-19.55l-5.018,6.668
				l-2.204,13.031l-9.792-0.081l6.776-48.433H36.22l-3.343,19.887"/>
		</g>
		<g>
			<path fill="#FFFFFF" d="M192.312,66.769h-9.063l8.104-48.514h13.007c4.218,0,7.298,0.089,9.241,0.267
				c1.942,0.178,3.839,0.812,5.687,1.901c1.848,1.09,3.34,2.66,4.478,4.71c1.137,2.05,1.706,4.342,1.706,6.877
				c0,3.365-0.919,6.344-2.755,8.939c-1.837,2.595-3.981,4.306-6.433,5.136c-2.452,0.829-5.456,1.244-9.01,1.244h-11.693
				L192.312,66.769z M199.242,25.327l-2.452,14.857h8.601c3.033,0,5.154-0.196,6.362-0.586c1.21-0.391,2.276-1.244,3.199-2.559
				c0.924-1.315,1.386-2.908,1.386-4.781c0-1.753-0.415-3.192-1.244-4.318c-0.83-1.125-1.813-1.842-2.95-2.15
				s-3.176-0.462-6.113-0.462H199.242z"/>
		</g>
		<g>
			<path fill="#FFFFFF" d="M115.809,51.775L104.53,18.422l10.569-0.168l7.726,23.834l13.348-23.834l9.851,0.063l-18.157,34.84
				c-3.55,7.041-4.388,8.971-9.517,11.791c-3.093,1.701-6.559,1.897-11.209,1.801h-3.314l1.441-8.726h3.173
				c2.047,0,3.593-0.356,4.639-1.069c1.046-0.713,2.086-1.943,3.122-3.691L115.809,51.775z"/>
		</g>
		<g>
			<path fill="#FFFFFF" d="M300.078,52.309c-3.926,9.197-10.331,14.377-18.54,14.377c-4.98,0-9.034-1.8-12.163-5.4
				c-3.129-3.6-4.693-8.496-4.693-14.687c0-7.738,2.007-14.383,6.023-19.935c4.014-5.552,9.174-8.327,15.477-8.327
				c4.912,0,8.803,1.425,11.675,4.272c2.872,2.849,4.508,8.133,4.912,13.181l-7.47,0.009c-0.672-7.043-3.767-10.564-9.286-10.564
				c-4.463,0-7.677,2.647-9.639,7.94c-1.963,5.294-2.943,10.329-2.943,15.107c0,3.724,0.824,6.527,2.473,8.411
				c1.648,1.884,3.751,2.826,6.308,2.826c2.355,0,4.493-0.914,6.41-2.742c1.917-1.828,2.351-1.803,3.36-4.427L300.078,52.309z"/>
		</g>
		<text transform="matrix(1 0 0 1 5.4132 103.0888)"><tspan x="0" y="0" font-family="'FranklinGothic-MediumItalic'" font-size="17.2976px">К</tspan><tspan x="10.144" y="0" font-family="'FranklinGothic-MediumItalic'" font-size="17.2976px">ОНТР</tspan><tspan x="50.812" y="0" font-family="'FranklinGothic-MediumItalic'" font-size="17.2976px">О</tspan><tspan x="61.826" y="0" font-family="'FranklinGothic-MediumItalic'" font-size="17.2976px">ЛЬ И УП</tspan><tspan x="120.897" y="0" font-family="'FranklinGothic-MediumItalic'" font-size="17.2976px">Р</tspan><tspan x="130.585" y="0" font-family="'FranklinGothic-MediumItalic'" font-size="17.2976px">АВЛЕНИЕ </tspan><tspan x="205.907" y="0" font-family="'FranklinGothic-MediumItalic'" font-size="17.2976px">Р</tspan><tspan x="215.596" y="0" font-family="'FranklinGothic-MediumItalic'" font-size="17.2976px">АДИО СЕТЬЮ</tspan></text>
	</g>
</g>
<g id="Слой_2">
	<g>
		<path fill="#2B64AE" d="M62.483,74.483H12.001c-6.6,0-12-5.4-12-12V12c0-6.6,5.4-12,12-12h50.483c6.6,0,12,5.4,12,12v50.483
			C74.483,69.083,69.083,74.483,62.483,74.483z"/>
		<path fill="#2B64AE" d="M143.173,74.483H92.69c-6.6,0-12-5.4-12-12V12c0-6.6,5.4-12,12-12h50.483c6.6,0,12,5.4,12,12v50.483
			C155.173,69.083,149.773,74.483,143.173,74.483z"/>
		<path fill="#2B64AE" d="M223.863,74.483H173.38c-6.6,0-12-5.4-12-12V12c0-6.6,5.4-12,12-12h50.483c6.6,0,12,5.4,12,12v50.483
			C235.863,69.083,230.463,74.483,223.863,74.483z"/>
		<path fill="#2B64AE" d="M304.552,74.483H254.07c-6.6,0-12-5.4-12-12V12c0-6.6,5.4-12,12-12h50.483c6.6,0,12,5.4,12,12v50.483
			C316.552,69.083,311.152,74.483,304.552,74.483z"/>
		<g>
			<path fill="#FFFFFF" d="M46.001,13.375l14.459-0.362L38.919,34.582l14.786,26.864l-12.349-0.068l-10.32-19.55l-5.018,6.668
				l-2.204,13.031l-9.792-0.081l6.776-48.433h10.008L27.464,32.9"/>
		</g>
		<g>
			<path fill="#FFFFFF" d="M186.899,61.527h-9.063l8.104-48.514h13.007c4.218,0,7.298,0.089,9.241,0.267
				c1.942,0.178,3.839,0.812,5.687,1.901c1.848,1.09,3.34,2.66,4.478,4.71c1.137,2.05,1.706,4.342,1.706,6.877
				c0,3.365-0.919,6.344-2.755,8.939c-1.837,2.595-3.981,4.306-6.433,5.136c-2.452,0.829-5.456,1.244-9.01,1.244h-11.693
				L186.899,61.527z M193.829,20.086l-2.452,14.857h8.601c3.033,0,5.154-0.196,6.362-0.586c1.21-0.391,2.276-1.244,3.199-2.559
				s1.386-2.908,1.386-4.781c0-1.753-0.415-3.192-1.244-4.318c-0.83-1.125-1.813-1.842-2.95-2.15s-3.176-0.462-6.113-0.462H193.829z
				"/>
		</g>
		<g>
			<path fill="#FFFFFF" d="M110.396,46.534L99.117,13.181l10.569-0.168l7.726,23.834l13.348-23.834l9.851,0.063l-18.157,34.84
				c-3.55,7.041-4.388,8.971-9.517,11.791c-3.093,1.701-6.559,1.897-11.209,1.801h-3.314l1.441-8.726h3.173
				c2.047,0,3.593-0.356,4.639-1.069c1.046-0.713,2.086-1.943,3.122-3.691L110.396,46.534z"/>
		</g>
		<g>
			<path fill="#FFFFFF" d="M294.665,47.067c-3.926,9.197-10.331,14.377-18.54,14.377c-4.98,0-9.034-1.8-12.163-5.4
				s-4.693-8.496-4.693-14.687c0-7.738,2.007-14.383,6.023-19.935c4.014-5.552,9.174-8.327,15.477-8.327
				c4.912,0,8.803,1.425,11.675,4.272c2.872,2.849,4.508,8.133,4.912,13.181l-7.47,0.009c-0.672-7.043-3.767-10.564-9.286-10.564
				c-4.463,0-7.677,2.647-9.639,7.94c-1.963,5.294-2.943,10.329-2.943,15.107c0,3.724,0.824,6.527,2.473,8.411
				c1.648,1.884,3.751,2.826,6.308,2.826c2.355,0,4.492-0.914,6.41-2.742c1.917-1.828,2.351-1.803,3.36-4.427L294.665,47.067z"/>
		</g>
		<text transform="matrix(1 0 0 1 -1.525879e-05 97.8474)"><tspan x="0" y="0" font-family="'FranklinGothic-MediumItalic'" font-size="17.2976px">К</tspan><tspan x="10.144" y="0" font-family="'FranklinGothic-MediumItalic'" font-size="17.2976px">ОНТР</tspan><tspan x="50.812" y="0" font-family="'FranklinGothic-MediumItalic'" font-size="17.2976px">О</tspan><tspan x="61.826" y="0" font-family="'FranklinGothic-MediumItalic'" font-size="17.2976px">ЛЬ И УП</tspan><tspan x="120.897" y="0" font-family="'FranklinGothic-MediumItalic'" font-size="17.2976px">Р</tspan><tspan x="130.585" y="0" font-family="'FranklinGothic-MediumItalic'" font-size="17.2976px">АВЛЕНИЕ </tspan><tspan x="205.907" y="0" font-family="'FranklinGothic-MediumItalic'" font-size="17.2976px">Р</tspan><tspan x="215.596" y="0" font-family="'FranklinGothic-MediumItalic'" font-size="17.2976px">АДИО СЕТЬЮ</tspan></text>
	</g>
</g>
</svg>
