<?xml version="1.0" encoding="utf-8"?>
<!-- Generator: Adobe Illustrator 22.0.0, SVG Export Plug-In . SVG Version: 6.00 Build 0)  -->
<svg version="1.1" id="Слой_1" xmlns="http://www.w3.org/2000/svg" xmlns:xlink="http://www.w3.org/1999/xlink" x="0px" y="0px"
	 width="317.987px" height="75.519px" viewBox="0 0 317.987 75.519" enable-background="new 0 0 317.987 75.519"
	 xml:space="preserve">
<path fill="#008AD1" d="M63.354,74.888H12.871c-6.6,0-12-5.4-12-12V12.405c0-6.6,5.4-12,12-12h50.483c6.6,0,12,5.4,12,12v50.483
	C75.354,69.488,69.954,74.888,63.354,74.888z"/>
<path fill="#008AD1" d="M144.043,74.888H93.561c-6.6,0-12-5.4-12-12V12.405c0-6.6,5.4-12,12-12h50.483c6.6,0,12,5.4,12,12v50.483
	C156.043,69.488,150.643,74.888,144.043,74.888z"/>
<path fill="#008AD1" d="M224.733,74.888H174.25c-6.6,0-12-5.4-12-12V12.405c0-6.6,5.4-12,12-12h50.483c6.6,0,12,5.4,12,12v50.483
	C236.733,69.488,231.333,74.888,224.733,74.888z"/>
<path fill="#008AD1" d="M305.423,74.888H254.94c-6.6,0-12-5.4-12-12V12.405c0-6.6,5.4-12,12-12h50.483c6.6,0,12,5.4,12,12v50.483
	C317.423,69.488,312.023,74.888,305.423,74.888z"/>
<g>
	
		<text transform="matrix(1.0736 0 0 1 8.3563 57.0427)" fill="#FFFFFF" font-family="'FranklinGothic-MediumItalic'" font-size="55.8352px">W</text>
</g>
<g>
	
		<text transform="matrix(1.0736 0 0 1 179.5634 57.0427)" fill="#FFFFFF" font-family="'FranklinGothic-MediumItalic'" font-size="55.8352px">N</text>
</g>
<g>
	
		<text transform="matrix(1.0736 0 0 1 101.184 57.0427)" fill="#FFFFFF" font-family="'FranklinGothic-MediumItalic'" font-size="55.8352px">S</text>
</g>
<g>
	
		<text transform="matrix(1.0736 0 0 1 260.1151 57.0427)" fill="#FFFFFF" font-family="'FranklinGothic-MediumItalic'" font-size="55.8352px">C</text>
</g>
</svg>
