<?xml version="1.0" encoding="utf-8"?>
<!-- Generator: Adobe Illustrator 22.0.0, SVG Export Plug-In . SVG Version: 6.00 Build 0)  -->
<svg version="1.1" id="Слой_1" xmlns="http://www.w3.org/2000/svg" xmlns:xlink="http://www.w3.org/1999/xlink" x="0px" y="0px"
	 width="316.591px" height="98.941px" viewBox="0 0 316.591 98.941" enable-background="new 0 0 316.591 98.941"
	 xml:space="preserve">
<g>
	<path fill="#008AD1" d="M62.442,74.483H11.96c-6.6,0-12-5.4-12-12V12c0-6.6,5.4-12,12-12h50.483c6.6,0,12,5.4,12,12v50.483
		C74.442,69.083,69.042,74.483,62.442,74.483z"/>
	<path fill="#008AD1" d="M143.132,74.483H92.649c-6.6,0-12-5.4-12-12V12c0-6.6,5.4-12,12-12h50.483c6.6,0,12,5.4,12,12v50.483
		C155.132,69.083,149.732,74.483,143.132,74.483z"/>
	<path fill="#008AD1" d="M223.822,74.483h-50.483c-6.6,0-12-5.4-12-12V12c0-6.6,5.4-12,12-12h50.483c6.6,0,12,5.4,12,12v50.483
		C235.822,69.083,230.422,74.483,223.822,74.483z"/>
	<path fill="#008AD1" d="M304.511,74.483h-50.483c-6.6,0-12-5.4-12-12V12c0-6.6,5.4-12,12-12h50.483c6.6,0,12,5.4,12,12v50.483
		C316.511,69.083,311.111,74.483,304.511,74.483z"/>
	<g>
		<path fill="#FFFFFF" d="M47.432,56.91h-7.2l-3.512-28.026L24.397,56.91H17.46l-4.683-37.487h7.727l2.664,28.109l12.264-28.109
			h7.113l3.19,28.109l12.146-28.109h6.322L47.432,56.91z"/>
	</g>
	<g>
		<path fill="#FFFFFF" d="M210.673,56.638h-5.707l-13.64-27.972l-5.005,27.972h-5.767l6.674-37.215h7.405l12.439,25.546
			l4.595-25.546h5.708L210.673,56.638z"/>
	</g>
	<g>
		<path fill="#FFFFFF" d="M132.908,26.484l-6.557,2.263c-1.405-3.09-3.942-4.635-7.61-4.635c-2.225,0-3.957,0.486-5.195,1.459
			c-1.24,0.973-1.859,2.177-1.859,3.612c0,1.108,0.419,2.014,1.259,2.713c0.839,0.699,2.224,1.304,4.156,1.813l5.473,1.5
			c1.581,0.418,3.083,1.081,4.508,1.99c1.424,0.909,2.488,2.045,3.19,3.407c0.702,1.363,1.054,2.8,1.054,4.308
			c0,3.381-1.352,6.312-4.054,8.793c-2.703,2.48-6.649,3.722-11.839,3.722c-8.04,0-13.25-3.09-15.63-9.27l6.527-2.154
			c1.581,3.89,4.761,5.834,9.542,5.834c2.732,0,4.761-0.586,6.088-1.758c1.327-1.173,1.991-2.504,1.991-3.994
			c0-0.854-0.249-1.595-0.747-2.222c-0.498-0.628-1.127-1.104-1.888-1.432c-0.761-0.327-2.283-0.791-4.566-1.391
			c-3.181-0.854-5.557-1.663-7.127-2.427c-1.571-0.763-2.849-1.871-3.834-3.325s-1.478-3.181-1.478-5.181
			c0-3.398,1.317-6.18,3.952-8.343c2.634-2.162,6.224-3.244,10.771-3.244C125.747,18.523,130.371,21.178,132.908,26.484z"/>
	</g>
	<g>
		<path fill="#FFFFFF" d="M294.287,46.441c-3.416,7.452-8.693,11.178-15.836,11.178c-4.332,0-7.858-1.459-10.58-4.376
			c-2.723-2.917-4.084-6.884-4.084-11.9c0-6.271,1.746-11.655,5.24-16.153c3.492-4.498,7.98-6.748,13.463-6.748
			c4.273,0,7.659,1.155,10.157,3.463c2.497,2.309,3.922,5.507,4.273,9.597l-6.498,1.091c-0.585-5.707-3.278-8.561-8.078-8.561
			c-3.884,0-6.679,2.145-8.386,6.434c-1.708,4.29-2.561,8.37-2.561,12.241c0,3.018,0.717,5.289,2.15,6.816
			c1.435,1.526,3.264,2.29,5.488,2.29c2.049,0,3.908-0.741,5.576-2.223c1.668-1.48,2.941-3.285,3.819-5.411L294.287,46.441z"/>
	</g>
	<g>
		<path d="M14.411,98.948h-2.668L10.44,87.796L5.873,98.948H3.301L1.566,84.031H4.43l0.987,11.185l4.546-11.185h2.636l1.183,11.185
			l4.502-11.185h2.343L14.411,98.948z"/>
		<path d="M22.407,98.84h-2.55l1.845-11.033h2.549L22.407,98.84z M24.468,86.526h-2.549l0.445-2.647h2.549L24.468,86.526z"/>
		<path d="M27.799,98.84h-2.43l1.845-11.033h2.235l-0.499,3.005c0.947-2.206,2.22-3.309,3.819-3.309
			c0.065,0,0.163,0.003,0.293,0.011l-0.315,2.712c-0.239-0.015-0.419-0.021-0.542-0.021c-0.6,0-1.166,0.159-1.698,0.478
			s-0.948,0.747-1.248,1.285c-0.3,0.539-0.552,1.423-0.754,2.652L27.799,98.84z"/>
		<path d="M42.738,95.726c-1.013,2.256-2.618,3.385-4.817,3.385c-1.447,0-2.584-0.445-3.412-1.335s-1.242-2.072-1.242-3.547
			c0-1.881,0.522-3.469,1.568-4.764c1.045-1.294,2.388-1.941,4.03-1.941c1.476,0,2.591,0.467,3.347,1.399s1.134,2.206,1.134,3.819
			c0,0.268-0.011,0.557-0.032,0.867H35.73c-0.051,0.312-0.076,0.586-0.076,0.825c0,0.831,0.201,1.5,0.602,2.007
			c0.401,0.506,0.971,0.759,1.709,0.759c1.143,0,2.011-0.683,2.604-2.05L42.738,95.726z M41.046,92.037
			c0-1.865-0.723-2.799-2.17-2.799c-1.497,0-2.459,0.934-2.886,2.799H41.046z"/>
		<path d="M47.219,98.84h-2.55l2.474-14.809h2.55L47.219,98.84z"/>
		<path d="M59.836,95.726c-1.013,2.256-2.618,3.385-4.817,3.385c-1.447,0-2.584-0.445-3.412-1.335s-1.242-2.072-1.242-3.547
			c0-1.881,0.522-3.469,1.568-4.764c1.045-1.294,2.388-1.941,4.03-1.941c1.476,0,2.591,0.467,3.347,1.399s1.134,2.206,1.134,3.819
			c0,0.268-0.011,0.557-0.032,0.867h-7.583c-0.051,0.312-0.076,0.586-0.076,0.825c0,0.831,0.201,1.5,0.602,2.007
			c0.401,0.506,0.971,0.759,1.709,0.759c1.143,0,2.011-0.683,2.604-2.05L59.836,95.726z M58.144,92.037
			c0-1.865-0.723-2.799-2.17-2.799c-1.497,0-2.459,0.934-2.886,2.799H58.144z"/>
		<path d="M63.124,95.596c0.427,1.1,1.298,1.649,2.614,1.649c0.658,0,1.177-0.136,1.557-0.407c0.38-0.271,0.569-0.616,0.569-1.036
			c0-0.311-0.128-0.557-0.385-0.737c-0.257-0.181-0.693-0.358-1.308-0.531c-0.991-0.275-1.725-0.528-2.202-0.76
			c-0.478-0.231-0.879-0.586-1.204-1.063c-0.326-0.478-0.488-1.023-0.488-1.638c0-0.962,0.365-1.8,1.096-2.512
			c0.73-0.713,1.761-1.068,3.092-1.068c2.163,0,3.682,0.867,4.557,2.604l-2.094,0.673c-0.485-0.962-1.284-1.443-2.398-1.443
			c-0.499,0-0.922,0.116-1.269,0.348s-0.521,0.542-0.521,0.933c0,0.275,0.085,0.503,0.255,0.684s0.512,0.344,1.025,0.488
			c1.172,0.347,2.042,0.649,2.609,0.905c0.567,0.257,1.016,0.622,1.345,1.096c0.329,0.475,0.494,1.019,0.494,1.633
			c0,1.042-0.4,1.914-1.199,2.615c-0.799,0.701-1.984,1.052-3.553,1.052c-2.51,0-4.148-0.973-4.915-2.918L63.124,95.596z"/>
		<path d="M73.3,95.596c0.427,1.1,1.298,1.649,2.614,1.649c0.658,0,1.177-0.136,1.557-0.407c0.38-0.271,0.569-0.616,0.569-1.036
			c0-0.311-0.128-0.557-0.385-0.737c-0.257-0.181-0.693-0.358-1.308-0.531c-0.991-0.275-1.725-0.528-2.202-0.76
			c-0.478-0.231-0.879-0.586-1.204-1.063c-0.326-0.478-0.488-1.023-0.488-1.638c0-0.962,0.365-1.8,1.096-2.512
			c0.73-0.713,1.761-1.068,3.092-1.068c2.163,0,3.682,0.867,4.557,2.604l-2.094,0.673c-0.485-0.962-1.284-1.443-2.398-1.443
			c-0.499,0-0.922,0.116-1.269,0.348s-0.521,0.542-0.521,0.933c0,0.275,0.085,0.503,0.255,0.684s0.512,0.344,1.025,0.488
			c1.172,0.347,2.042,0.649,2.609,0.905c0.567,0.257,1.016,0.622,1.345,1.096c0.329,0.475,0.494,1.019,0.494,1.633
			c0,1.042-0.4,1.914-1.199,2.615c-0.799,0.701-1.984,1.052-3.553,1.052c-2.51,0-4.148-0.973-4.915-2.918L73.3,95.596z"/>
		<path d="M99.207,86.841l-2.43,0.9c-0.521-1.229-1.461-1.845-2.821-1.845c-0.825,0-1.466,0.194-1.926,0.581
			s-0.689,0.866-0.689,1.438c0,0.441,0.156,0.801,0.467,1.079c0.311,0.278,0.824,0.52,1.541,0.722l2.029,0.597
			c0.586,0.166,1.143,0.431,1.67,0.792c0.528,0.361,0.922,0.813,1.183,1.356c0.261,0.542,0.391,1.113,0.391,1.714
			c0,1.346-0.501,2.512-1.502,3.499c-1.002,0.987-2.465,1.48-4.389,1.48c-2.98,0-4.911-1.229-5.793-3.688l2.419-0.857
			c0.586,1.548,1.765,2.322,3.537,2.322c1.012,0,1.765-0.233,2.256-0.7s0.738-0.996,0.738-1.589c0-0.34-0.092-0.635-0.277-0.885
			c-0.184-0.249-0.417-0.439-0.7-0.569c-0.282-0.13-0.846-0.314-1.692-0.554c-1.179-0.34-2.06-0.661-2.642-0.965
			c-0.583-0.304-1.056-0.745-1.421-1.324c-0.365-0.578-0.548-1.266-0.548-2.061c0-1.353,0.488-2.459,1.465-3.32
			c0.976-0.86,2.307-1.291,3.992-1.291C96.553,83.673,98.267,84.728,99.207,86.841z"/>
		<path d="M109.611,95.726c-1.013,2.256-2.618,3.385-4.817,3.385c-1.447,0-2.584-0.445-3.412-1.335s-1.242-2.072-1.242-3.547
			c0-1.881,0.522-3.469,1.568-4.764c1.045-1.294,2.388-1.941,4.03-1.941c1.476,0,2.591,0.467,3.347,1.399s1.134,2.206,1.134,3.819
			c0,0.268-0.011,0.557-0.032,0.867h-7.583c-0.051,0.312-0.076,0.586-0.076,0.825c0,0.831,0.201,1.5,0.602,2.007
			c0.401,0.506,0.971,0.759,1.709,0.759c1.143,0,2.011-0.683,2.604-2.05L109.611,95.726z M107.919,92.037
			c0-1.865-0.723-2.799-2.17-2.799c-1.497,0-2.459,0.934-2.886,2.799H107.919z"/>
		<path d="M113.973,98.84h-2.43l1.845-11.033h2.235l-0.499,3.005c0.947-2.206,2.22-3.309,3.819-3.309
			c0.065,0,0.163,0.003,0.293,0.011l-0.315,2.712c-0.239-0.015-0.419-0.021-0.542-0.021c-0.6,0-1.166,0.159-1.698,0.478
			s-0.948,0.747-1.248,1.285c-0.3,0.539-0.552,1.423-0.754,2.652L113.973,98.84z"/>
		<path d="M124.714,98.84h-2.267l-2.344-11.033h2.658l1.464,7.725l3.591-7.725h2.148L124.714,98.84z"/>
		<path d="M132.286,98.84h-2.55l1.845-11.033h2.549L132.286,98.84z M134.347,86.526h-2.549l0.445-2.647h2.549L134.347,86.526z"/>
		<path d="M144.535,95.563c-1.042,2.344-2.604,3.515-4.687,3.515c-1.295,0-2.351-0.436-3.168-1.307
			c-0.817-0.872-1.226-2.096-1.226-3.673c0-1.779,0.502-3.327,1.508-4.644s2.268-1.975,3.786-1.975c1.15,0,2.11,0.335,2.88,1.004
			c0.771,0.669,1.253,1.618,1.449,2.848l-2.062,0.401c-0.29-1.446-1.009-2.17-2.159-2.17c-0.853,0-1.548,0.485-2.083,1.454
			c-0.535,0.97-0.803,2.087-0.803,3.353c0,0.962,0.203,1.644,0.608,2.045c0.405,0.401,0.886,0.603,1.443,0.603
			c1.085,0,1.909-0.728,2.474-2.181L144.535,95.563z"/>
		<path d="M155.525,95.726c-1.013,2.256-2.618,3.385-4.817,3.385c-1.447,0-2.584-0.445-3.412-1.335s-1.242-2.072-1.242-3.547
			c0-1.881,0.522-3.469,1.568-4.764c1.045-1.294,2.388-1.941,4.03-1.941c1.476,0,2.591,0.467,3.347,1.399s1.134,2.206,1.134,3.819
			c0,0.268-0.011,0.557-0.032,0.867h-7.583c-0.051,0.312-0.076,0.586-0.076,0.825c0,0.831,0.201,1.5,0.602,2.007
			c0.401,0.506,0.971,0.759,1.709,0.759c1.143,0,2.011-0.683,2.604-2.05L155.525,95.726z M153.832,92.037
			c0-1.865-0.723-2.799-2.17-2.799c-1.497,0-2.459,0.934-2.886,2.799H153.832z"/>
		<path d="M174.316,98.84h-2.117l-5.055-11.131l-1.855,11.131h-2.137l2.473-14.809h2.746l4.609,10.165l1.703-10.165h2.117
			L174.316,98.84z"/>
		<path d="M187.095,95.726c-1.013,2.256-2.618,3.385-4.817,3.385c-1.446,0-2.583-0.445-3.411-1.335
			c-0.829-0.89-1.242-2.072-1.242-3.547c0-1.881,0.522-3.469,1.567-4.764c1.045-1.294,2.389-1.941,4.03-1.941
			c1.476,0,2.591,0.467,3.347,1.399s1.134,2.206,1.134,3.819c0,0.268-0.011,0.557-0.032,0.867h-7.584
			c-0.051,0.312-0.075,0.586-0.075,0.825c0,0.831,0.2,1.5,0.602,2.007c0.401,0.506,0.971,0.759,1.709,0.759
			c1.143,0,2.011-0.683,2.604-2.05L187.095,95.726z M185.403,92.037c0-1.865-0.724-2.799-2.17-2.799
			c-1.497,0-2.459,0.934-2.886,2.799H185.403z"/>
		<path d="M194.039,98.861c-0.73,0.108-1.248,0.163-1.552,0.163c-1.02,0-1.767-0.229-2.24-0.689
			c-0.474-0.459-0.711-1.018-0.711-1.676c0-0.34,0.083-1.002,0.25-1.985l0.835-4.882h-1.638l0.336-1.985h1.66l0.662-2.973
			l2.213-0.152l-0.521,3.125h2.376l-0.326,1.985h-2.387l-0.824,4.914c-0.102,0.607-0.152,0.998-0.152,1.172
			c0,0.702,0.521,1.053,1.563,1.053c0.217,0,0.481-0.025,0.792-0.076L194.039,98.861z"/>
		<path d="M206.624,98.84h-2.278l-0.836-7.844l-3.189,7.844h-2.234l-1.649-11.033h2.506l0.998,7.627l3.19-7.627h2.191l0.803,7.604
			l3.406-7.604h2.148L206.624,98.84z"/>
		<path d="M216.29,99.122c-0.817,0-1.607-0.181-2.37-0.543c-0.764-0.361-1.346-0.935-1.747-1.719
			c-0.401-0.785-0.602-1.72-0.602-2.805c0-1.758,0.517-3.278,1.551-4.563c1.034-1.283,2.387-1.926,4.058-1.926
			c1.374,0,2.474,0.461,3.299,1.384c0.824,0.922,1.236,2.16,1.236,3.716c0,1.599-0.492,3.074-1.476,4.426
			C219.256,98.445,217.939,99.122,216.29,99.122z M216.312,97.137c0.983,0,1.706-0.508,2.169-1.524s0.694-2.081,0.694-3.195
			c0-1.909-0.737-2.864-2.213-2.864c-1.034,0-1.775,0.547-2.224,1.639c-0.449,1.092-0.673,2.181-0.673,3.266
			c0,0.918,0.217,1.595,0.65,2.028C215.151,96.92,215.682,97.137,216.312,97.137z"/>
		<path d="M225.458,98.84h-2.43l1.844-11.033h2.235l-0.499,3.005c0.947-2.206,2.22-3.309,3.818-3.309
			c0.065,0,0.163,0.003,0.293,0.011l-0.314,2.712c-0.238-0.015-0.42-0.021-0.542-0.021c-0.601,0-1.167,0.159-1.698,0.478
			s-0.947,0.747-1.248,1.285c-0.3,0.539-0.551,1.423-0.754,2.652L225.458,98.84z"/>
		<path d="M241.07,98.84h-2.626l-1.92-5.88l-2.907,2.69l-0.532,3.189h-2.43l2.474-14.809h2.43l-1.486,8.929l5.555-5.153h2.593
			l-3.742,3.482L241.07,98.84z"/>
		<path d="M260.109,94.782c-1.266,2.966-3.222,4.448-5.869,4.448c-1.605,0-2.913-0.58-3.922-1.741s-1.514-2.739-1.514-4.735
			c0-2.496,0.647-4.639,1.942-6.429s2.958-2.685,4.99-2.685c1.584,0,2.839,0.459,3.765,1.378c0.926,0.918,1.454,2.191,1.584,3.818
			l-2.408,0.435c-0.217-2.271-1.215-3.407-2.994-3.407c-1.439,0-2.476,0.854-3.108,2.561s-0.949,3.331-0.949,4.871
			c0,1.201,0.266,2.104,0.797,2.712c0.532,0.608,1.21,0.912,2.034,0.912c0.76,0,1.448-0.295,2.067-0.885
			c0.618-0.589,1.09-1.307,1.415-2.153L260.109,94.782z"/>
		<path d="M266.314,99.122c-0.817,0-1.607-0.181-2.37-0.543c-0.764-0.361-1.346-0.935-1.747-1.719
			c-0.401-0.785-0.602-1.72-0.602-2.805c0-1.758,0.517-3.278,1.551-4.563c1.034-1.283,2.387-1.926,4.058-1.926
			c1.374,0,2.474,0.461,3.299,1.384c0.824,0.922,1.236,2.16,1.236,3.716c0,1.599-0.492,3.074-1.476,4.426
			C269.28,98.445,267.964,99.122,266.314,99.122z M266.337,97.137c0.983,0,1.706-0.508,2.169-1.524s0.694-2.081,0.694-3.195
			c0-1.909-0.737-2.864-2.213-2.864c-1.034,0-1.775,0.547-2.224,1.639c-0.449,1.092-0.673,2.181-0.673,3.266
			c0,0.918,0.217,1.595,0.65,2.028C265.175,96.92,265.707,97.137,266.337,97.137z"/>
		<path d="M282.024,98.84h-2.43l1.128-6.629c0.079-0.499,0.119-0.926,0.119-1.28c0-0.404-0.113-0.746-0.342-1.025
			c-0.228-0.278-0.573-0.417-1.036-0.417c-0.737,0-1.389,0.374-1.952,1.123c-0.564,0.748-0.962,1.835-1.193,3.26l-0.836,4.969h-2.43
			l1.844-11.033h2.257l-0.434,2.571c0.687-1.288,1.323-2.089,1.909-2.403s1.157-0.472,1.714-0.472c0.803,0,1.499,0.272,2.089,0.818
			c0.589,0.547,0.884,1.308,0.884,2.284c0,0.384-0.072,0.994-0.217,1.833L282.024,98.84z"/>
		<path d="M290.15,98.861c-0.73,0.108-1.248,0.163-1.552,0.163c-1.02,0-1.767-0.229-2.24-0.689
			c-0.474-0.459-0.711-1.018-0.711-1.676c0-0.34,0.083-1.002,0.25-1.985l0.835-4.882h-1.638l0.336-1.985h1.66l0.662-2.973
			l2.213-0.152l-0.521,3.125h2.376l-0.326,1.985h-2.387l-0.824,4.914c-0.102,0.607-0.152,0.998-0.152,1.172
			c0,0.702,0.521,1.053,1.563,1.053c0.217,0,0.481-0.025,0.792-0.076L290.15,98.861z"/>
		<path d="M294.544,98.84h-2.43l1.844-11.033h2.235l-0.499,3.005c0.947-2.206,2.22-3.309,3.818-3.309
			c0.065,0,0.163,0.003,0.293,0.011l-0.314,2.712c-0.238-0.015-0.42-0.021-0.542-0.021c-0.601,0-1.167,0.159-1.698,0.478
			s-0.947,0.747-1.248,1.285c-0.3,0.539-0.551,1.423-0.754,2.652L294.544,98.84z"/>
		<path d="M304.753,99.122c-0.817,0-1.607-0.181-2.37-0.543c-0.764-0.361-1.346-0.935-1.747-1.719
			c-0.401-0.785-0.602-1.72-0.602-2.805c0-1.758,0.517-3.278,1.551-4.563c1.034-1.283,2.387-1.926,4.058-1.926
			c1.374,0,2.474,0.461,3.299,1.384c0.824,0.922,1.236,2.16,1.236,3.716c0,1.599-0.492,3.074-1.476,4.426
			C307.718,98.445,306.402,99.122,304.753,99.122z M304.775,97.137c0.983,0,1.706-0.508,2.169-1.524s0.694-2.081,0.694-3.195
			c0-1.909-0.737-2.864-2.213-2.864c-1.034,0-1.775,0.547-2.224,1.639c-0.449,1.092-0.673,2.181-0.673,3.266
			c0,0.918,0.217,1.595,0.65,2.028C303.614,96.92,304.145,97.137,304.775,97.137z"/>
		<path d="M314.04,98.84h-2.549l2.474-14.809h2.549L314.04,98.84z"/>
	</g>
</g>
</svg>
