<?xml version="1.0" encoding="utf-8"?>
<!-- Generator: Adobe Illustrator 22.0.0, SVG Export Plug-In . SVG Version: 6.00 Build 0)  -->
<svg version="1.1" id="Слой_1" xmlns="http://www.w3.org/2000/svg" xmlns:xlink="http://www.w3.org/1999/xlink" x="0px" y="0px"
	 width="316.591px" height="98.941px" viewBox="0 0 316.591 98.941" enable-background="new 0 0 316.591 98.941"
	 xml:space="preserve">
<g>
	<path fill="#008AD1" d="M62.503,74.483H12.02c-6.6,0-12-5.4-12-12V12c0-6.6,5.4-12,12-12h50.483c6.6,0,12,5.4,12,12v50.483
		C74.503,69.083,69.103,74.483,62.503,74.483z"/>
	<path fill="#008AD1" d="M143.192,74.483H92.709c-6.6,0-12-5.4-12-12V12c0-6.6,5.4-12,12-12h50.483c6.6,0,12,5.4,12,12v50.483
		C155.192,69.083,149.792,74.483,143.192,74.483z"/>
	<path fill="#008AD1" d="M223.882,74.483h-50.483c-6.6,0-12-5.4-12-12V12c0-6.6,5.4-12,12-12h50.483c6.6,0,12,5.4,12,12v50.483
		C235.882,69.083,230.482,74.483,223.882,74.483z"/>
	<path fill="#008AD1" d="M304.572,74.483h-50.483c-6.6,0-12-5.4-12-12V12c0-6.6,5.4-12,12-12h50.483c6.6,0,12,5.4,12,12v50.483
		C316.572,69.083,311.172,74.483,304.572,74.483z"/>
	<g>
		<path d="M11.723,97.348H9.148l-2.026-6.579l-3.174,3.342l-0.569,3.237H0.942l2.276-13.111h2.446l-0.998,5.715
			c-0.02,0.109-0.124,0.57-0.31,1.384c0.24-0.359,0.496-0.682,0.769-0.971l5.75-6.128h2.616l-4.462,4.678L11.723,97.348z"/>
		<path d="M17.334,97.597c-0.752,0-1.479-0.16-2.181-0.481c-0.702-0.319-1.238-0.828-1.607-1.523
			c-0.369-0.694-0.554-1.523-0.554-2.483c0-1.556,0.476-2.902,1.427-4.039s2.196-1.705,3.734-1.705c1.264,0,2.276,0.408,3.035,1.225
			c0.759,0.816,1.138,1.913,1.138,3.29c0,1.416-0.453,2.722-1.357,3.919C20.062,96.999,18.851,97.597,17.334,97.597z M17.354,95.84
			c0.905,0,1.57-0.45,1.997-1.349c0.426-0.9,0.639-1.843,0.639-2.829c0-1.69-0.679-2.536-2.036-2.536
			c-0.952,0-1.634,0.484-2.047,1.45c-0.413,0.967-0.619,1.931-0.619,2.892c0,0.813,0.2,1.411,0.599,1.796
			C16.285,95.648,16.775,95.84,17.354,95.84z"/>
		<path d="M23.533,97.348l1.697-9.769h2.236l-0.649,3.727h3.934l0.649-3.727h2.236l-1.697,9.769h-2.236l0.749-4.313h-3.933
			l-0.749,4.313H23.533z"/>
		<path d="M35.971,97.348l1.398-8.04h-2.775l0.299-1.729h7.737l-0.299,1.729h-2.726l-1.397,8.04H35.971z"/>
		<path d="M43.828,100.758h-2.236l2.296-13.179h1.997l-0.35,2.018c0.838-1.563,1.89-2.344,3.155-2.344
			c0.952,0,1.724,0.372,2.316,1.114c0.592,0.743,0.888,1.745,0.888,3.006c0,1.569-0.401,3.004-1.203,4.303
			c-0.802,1.3-1.849,1.95-3.14,1.95c-1.391,0-2.336-0.668-2.835-2.007L43.828,100.758z M47.132,95.868
			c0.779,0,1.379-0.472,1.802-1.417c0.422-0.945,0.634-1.916,0.634-2.915c0-1.684-0.533-2.527-1.597-2.527
			c-0.806,0-1.479,0.46-2.021,1.379c-0.542,0.919-0.814,1.932-0.814,3.04c0,0.814,0.195,1.423,0.584,1.83
			C46.109,95.665,46.58,95.868,47.132,95.868z"/>
		<path d="M57.624,97.597c-0.752,0-1.479-0.16-2.181-0.481c-0.702-0.319-1.238-0.828-1.607-1.523
			c-0.369-0.694-0.554-1.523-0.554-2.483c0-1.556,0.476-2.902,1.427-4.039s2.196-1.705,3.734-1.705c1.264,0,2.276,0.408,3.035,1.225
			c0.759,0.816,1.138,1.913,1.138,3.29c0,1.416-0.453,2.722-1.357,3.919C60.353,96.999,59.142,97.597,57.624,97.597z M57.644,95.84
			c0.905,0,1.57-0.45,1.997-1.349c0.426-0.9,0.639-1.843,0.639-2.829c0-1.69-0.679-2.536-2.036-2.536
			c-0.952,0-1.634,0.484-2.047,1.45c-0.413,0.967-0.619,1.931-0.619,2.892c0,0.813,0.2,1.411,0.599,1.796
			C56.576,95.648,57.065,95.84,57.644,95.84z"/>
		<path d="M62.306,97.348l4.912-9.702h2.686l1.447,9.702h-2.286l-0.978-8.001l-3.934,8.001H62.306z"/>
		<path d="M72.618,97.348l1.697-9.769h2.236l-0.619,3.583h2.246c2.156,0,3.234,0.893,3.234,2.68c0,1.012-0.336,1.849-1.008,2.512
			c-0.672,0.662-1.727,0.994-3.165,0.994H72.618z M75.154,95.618h2.206c1.245,0,1.867-0.55,1.867-1.652
			c0-0.82-0.546-1.23-1.637-1.23h-1.937L75.154,95.618z"/>
		<path d="M91.586,93.525l-3.264-9.288h2.666l2.236,6.637l3.863-6.637h2.346l-5.9,9.865c-0.759,1.275-1.479,2.134-2.161,2.579
			c-0.682,0.445-1.572,0.667-2.67,0.667h-0.909l0.35-2.037h0.918c0.592,0,1.04-0.099,1.343-0.297
			c0.303-0.199,0.604-0.542,0.903-1.028L91.586,93.525z"/>
		<path d="M97.705,97.348l1.697-9.769h7.966l-1.697,9.769h-2.236l1.428-8.203h-3.494l-1.427,8.203H97.705z"/>
		<path d="M110.034,100.758h-2.236l2.296-13.179h1.997l-0.35,2.018c0.838-1.563,1.89-2.344,3.155-2.344
			c0.952,0,1.724,0.372,2.316,1.114c0.592,0.743,0.888,1.745,0.888,3.006c0,1.569-0.401,3.004-1.203,4.303
			c-0.802,1.3-1.849,1.95-3.14,1.95c-1.391,0-2.336-0.668-2.835-2.007L110.034,100.758z M113.338,95.868
			c0.779,0,1.379-0.472,1.802-1.417c0.422-0.945,0.634-1.916,0.634-2.915c0-1.684-0.533-2.527-1.597-2.527
			c-0.806,0-1.479,0.46-2.021,1.379c-0.542,0.919-0.814,1.932-0.814,3.04c0,0.814,0.195,1.423,0.584,1.83
			C112.315,95.665,112.786,95.868,113.338,95.868z"/>
		<path d="M127.723,97.348h-2.206c-0.013-0.173-0.02-0.313-0.02-0.423c0-0.467,0.06-1.027,0.18-1.681
			c-0.333,0.73-0.812,1.305-1.438,1.724c-0.625,0.419-1.314,0.63-2.066,0.63c-0.905,0-1.642-0.27-2.211-0.812
			c-0.569-0.541-0.854-1.208-0.854-2.002c0-1.095,0.507-1.966,1.522-2.613c1.015-0.647,2.604-0.971,4.767-0.971
			c0.279,0,0.605,0.013,0.978,0.039c0.047-0.295,0.07-0.528,0.07-0.701c0-0.525-0.188-0.922-0.564-1.191
			c-0.376-0.27-0.843-0.404-1.402-0.404c-1.072,0-1.854,0.451-2.346,1.355l-1.997-0.605c0.839-1.588,2.319-2.382,4.442-2.382
			c1.265,0,2.263,0.276,2.995,0.826c0.732,0.551,1.098,1.284,1.098,2.2c0,0.39-0.16,1.421-0.479,3.092
			c-0.339,1.761-0.509,2.879-0.509,3.352C127.684,96.954,127.697,97.143,127.723,97.348z M126.176,92.362
			c-1.737,0.09-2.945,0.311-3.624,0.663c-0.679,0.352-1.018,0.867-1.018,1.546c0,0.391,0.136,0.71,0.409,0.956
			c0.273,0.247,0.646,0.37,1.118,0.37c0.679,0,1.308-0.287,1.887-0.86C125.527,94.464,125.937,93.572,126.176,92.362z"/>
		<path d="M130.149,97.348l1.697-9.769h4.802c0.758,0,1.342,0.067,1.752,0.202c0.409,0.134,0.747,0.371,1.013,0.71
			s0.399,0.753,0.399,1.239c0,1.262-0.806,2.081-2.416,2.459c1.311,0.372,1.967,1.112,1.967,2.219c0,0.845-0.313,1.547-0.938,2.104
			c-0.625,0.557-1.487,0.835-2.585,0.835H130.149z M132.685,95.618h2.605c1.238,0,1.857-0.512,1.857-1.536
			c0-0.801-0.549-1.201-1.647-1.201h-2.336L132.685,95.618z M133.383,91.604h2.605c0.559,0,0.963-0.141,1.213-0.423
			c0.25-0.282,0.375-0.615,0.375-0.999c0-0.685-0.476-1.027-1.428-1.027h-2.336L133.383,91.604z"/>
		<path d="M139.473,97.348l4.912-9.702h2.686l1.447,9.702h-2.286l-0.978-8.001l-3.934,8.001H139.473z"/>
		<path d="M158.67,94.591c-0.932,1.998-2.409,2.997-4.433,2.997c-1.331,0-2.377-0.394-3.139-1.182
			c-0.762-0.788-1.143-1.835-1.143-3.141c0-1.665,0.48-3.071,1.442-4.217c0.961-1.146,2.198-1.72,3.708-1.72
			c1.358,0,2.384,0.413,3.08,1.239c0.695,0.826,1.043,1.953,1.043,3.381c0,0.238-0.01,0.493-0.03,0.769h-6.978
			c-0.047,0.276-0.07,0.518-0.07,0.729c0,0.737,0.185,1.33,0.554,1.777c0.37,0.449,0.894,0.673,1.572,0.673
			c1.052,0,1.85-0.605,2.396-1.815L158.67,94.591z M157.113,91.325c0-1.652-0.666-2.478-1.997-2.478
			c-1.378,0-2.263,0.826-2.656,2.478H157.113z"/>
		<path d="M160.447,97.348l1.697-9.769h2.236l-0.648,3.727h3.933l0.649-3.727h2.236l-1.697,9.769h-2.236l0.749-4.313h-3.934
			l-0.749,4.313H160.447z"/>
		<path d="M173.964,96.502l-0.15,0.846h-2.235l1.696-9.769h2.236l-0.719,4.111c-0.073,0.449-0.216,1.157-0.429,2.123
			c0.485-0.608,1.088-1.271,1.807-1.988l3.114-3.131l0.2-1.114h2.226l-1.697,9.769h-2.235l0.669-3.88
			c0.146-0.833,0.296-1.575,0.449-2.229c-0.427,0.544-0.985,1.175-1.678,1.892L173.964,96.502z"/>
		<path d="M191.622,94.591c-0.932,1.998-2.409,2.997-4.432,2.997c-1.331,0-2.378-0.394-3.14-1.182
			c-0.763-0.788-1.144-1.835-1.144-3.141c0-1.665,0.481-3.071,1.442-4.217c0.962-1.146,2.198-1.72,3.709-1.72
			c1.357,0,2.384,0.413,3.08,1.239c0.695,0.826,1.043,1.953,1.043,3.381c0,0.238-0.01,0.493-0.03,0.769h-6.978
			c-0.047,0.276-0.07,0.518-0.07,0.729c0,0.737,0.185,1.33,0.555,1.777c0.369,0.449,0.894,0.673,1.572,0.673
			c1.051,0,1.85-0.605,2.396-1.815L191.622,94.591z M190.066,91.325c0-1.652-0.666-2.478-1.997-2.478
			c-1.377,0-2.263,0.826-2.655,2.478H190.066z"/>
		<path d="M201.187,97.348h-2.546l2.276-13.111h3.654c1.184,0,2.049,0.024,2.595,0.071c0.546,0.048,1.078,0.22,1.598,0.514
			s0.938,0.719,1.258,1.273c0.319,0.554,0.479,1.174,0.479,1.858c0,0.909-0.259,1.715-0.774,2.416
			c-0.516,0.701-1.118,1.163-1.807,1.387c-0.688,0.225-1.532,0.337-2.53,0.337h-3.284L201.187,97.348z M203.134,86.147l-0.689,4.016
			h2.416c0.852,0,1.447-0.053,1.787-0.158c0.339-0.106,0.639-0.337,0.898-0.692c0.26-0.356,0.389-0.786,0.389-1.293
			c0-0.474-0.116-0.862-0.349-1.167c-0.233-0.304-0.51-0.498-0.829-0.581c-0.319-0.083-0.892-0.125-1.717-0.125H203.134z"/>
		<path d="M219.146,97.348h-2.206c-0.014-0.173-0.02-0.313-0.02-0.423c0-0.467,0.06-1.027,0.18-1.681
			c-0.333,0.73-0.813,1.305-1.438,1.724c-0.626,0.419-1.314,0.63-2.066,0.63c-0.905,0-1.643-0.27-2.212-0.812
			c-0.568-0.541-0.854-1.208-0.854-2.002c0-1.095,0.508-1.966,1.522-2.613s2.604-0.971,4.767-0.971c0.28,0,0.605,0.013,0.979,0.039
			c0.047-0.295,0.07-0.528,0.07-0.701c0-0.525-0.188-0.922-0.564-1.191c-0.376-0.27-0.844-0.404-1.402-0.404
			c-1.071,0-1.854,0.451-2.346,1.355l-1.997-0.605c0.839-1.588,2.319-2.382,4.442-2.382c1.265,0,2.263,0.276,2.995,0.826
			c0.731,0.551,1.098,1.284,1.098,2.2c0,0.39-0.159,1.421-0.479,3.092c-0.34,1.761-0.51,2.879-0.51,3.352
			C219.106,96.954,219.119,97.143,219.146,97.348z M217.599,92.362c-1.737,0.09-2.945,0.311-3.624,0.663
			c-0.679,0.352-1.019,0.867-1.019,1.546c0,0.391,0.137,0.71,0.409,0.956c0.273,0.247,0.646,0.37,1.118,0.37
			c0.68,0,1.309-0.287,1.887-0.86C216.949,94.464,217.359,93.572,217.599,92.362z"/>
		<path d="M221.471,95.648l3.744-8.002h3.504l0.908,8.002h0.918l-0.688,3.929h-1.478l0.12-2.229H222l-0.659,2.229h-1.477
			l0.688-3.929H221.471z M223.298,95.648h4.143l-0.499-6.301h-0.889L223.298,95.648z"/>
		<path d="M233.941,96.502l-0.15,0.846h-2.235l1.696-9.769h2.236l-0.719,4.111c-0.073,0.449-0.216,1.157-0.429,2.123
			c0.485-0.608,1.088-1.271,1.807-1.988l3.114-3.131l0.2-1.114h2.226l-1.697,9.769h-2.235l0.669-3.88
			c0.146-0.833,0.296-1.575,0.449-2.229c-0.427,0.544-0.985,1.175-1.678,1.892L233.941,96.502z"/>
		<path d="M247.247,97.597c-0.753,0-1.479-0.16-2.182-0.481c-0.702-0.319-1.238-0.828-1.607-1.523
			c-0.369-0.694-0.554-1.523-0.554-2.483c0-1.556,0.476-2.902,1.428-4.039c0.951-1.137,2.196-1.705,3.733-1.705
			c1.264,0,2.275,0.408,3.034,1.225c0.759,0.816,1.139,1.913,1.139,3.29c0,1.416-0.453,2.722-1.358,3.919
			C249.976,96.999,248.764,97.597,247.247,97.597z M247.267,95.84c0.905,0,1.57-0.45,1.996-1.349s0.64-1.843,0.64-2.829
			c0-1.69-0.679-2.536-2.037-2.536c-0.951,0-1.634,0.484-2.046,1.45c-0.413,0.967-0.619,1.931-0.619,2.892
			c0,0.813,0.199,1.411,0.599,1.796C246.198,95.648,246.688,95.84,247.267,95.84z"/>
		<path d="M269.469,93.755c-1.165,2.626-2.965,3.939-5.401,3.939c-1.478,0-2.68-0.514-3.608-1.542
			c-0.929-1.027-1.393-2.425-1.393-4.192c0-2.21,0.596-4.107,1.787-5.691c1.191-1.585,2.722-2.378,4.592-2.378
			c1.457,0,2.612,0.407,3.464,1.22c0.852,0.813,1.338,1.94,1.458,3.381l-2.217,0.384c-0.199-2.011-1.118-3.016-2.755-3.016
			c-1.324,0-2.278,0.755-2.86,2.267s-0.873,2.949-0.873,4.313c0,1.064,0.244,1.864,0.733,2.402c0.489,0.537,1.113,0.807,1.872,0.807
			c0.698,0,1.332-0.261,1.901-0.783s1.003-1.157,1.303-1.907L269.469,93.755z"/>
		<path d="M279.531,94.591c-0.932,1.998-2.409,2.997-4.432,2.997c-1.331,0-2.378-0.394-3.14-1.182
			c-0.763-0.788-1.144-1.835-1.144-3.141c0-1.665,0.481-3.071,1.442-4.217c0.962-1.146,2.198-1.72,3.709-1.72
			c1.357,0,2.384,0.413,3.08,1.239c0.695,0.826,1.043,1.953,1.043,3.381c0,0.238-0.01,0.493-0.03,0.769h-6.978
			c-0.047,0.276-0.07,0.518-0.07,0.729c0,0.737,0.185,1.33,0.555,1.777c0.369,0.449,0.894,0.673,1.572,0.673
			c1.051,0,1.85-0.605,2.396-1.815L279.531,94.591z M277.975,91.325c0-1.652-0.666-2.478-1.997-2.478
			c-1.377,0-2.263,0.826-2.655,2.478H277.975z"/>
		<path d="M282.616,97.348l1.397-8.04h-2.775l0.3-1.729h7.736l-0.3,1.729h-2.725l-1.397,8.04H282.616z"/>
		<path d="M288.836,97.348l1.696-9.769h2.236l-0.619,3.583h2.246c2.156,0,3.234,0.893,3.234,2.68c0,1.012-0.336,1.849-1.008,2.512
			c-0.672,0.662-1.727,0.994-3.164,0.994H288.836z M291.371,95.618h2.206c1.244,0,1.867-0.55,1.867-1.652
			c0-0.82-0.546-1.23-1.638-1.23h-1.937L291.371,95.618z"/>
		<path d="M303.909,93.073h-2.176l-0.739,4.275h-2.235l1.696-9.769h2.236l-0.648,3.766h2.086c0.326-1.204,0.91-2.177,1.752-2.92
			s1.862-1.114,3.06-1.114c1.271,0,2.283,0.418,3.035,1.254c0.752,0.835,1.128,1.907,1.128,3.213c0,1.498-0.454,2.844-1.362,4.039
			s-2.139,1.791-3.688,1.791c-1.318,0-2.338-0.386-3.061-1.157C304.271,95.678,303.909,94.552,303.909,93.073z M308.143,95.849
			c0.904,0,1.568-0.453,1.991-1.359s0.634-1.849,0.634-2.829c0-1.729-0.679-2.594-2.036-2.594c-0.966,0-1.652,0.506-2.062,1.518
			s-0.614,1.965-0.614,2.862c0,0.795,0.194,1.393,0.584,1.796C307.029,95.648,307.53,95.849,308.143,95.849z"/>
	</g>
	<path fill="#FFFFFF" d="M52.284,57.735H43.74l-6.723-20.531l-10.531,10.43l-1.888,10.101h-8.08l7.551-40.912h8.114l-3.312,17.833
		c-0.066,0.34-0.409,1.779-1.027,4.316c0.795-1.119,1.644-2.128,2.55-3.027L49.47,16.822h8.676L43.343,31.419L52.284,57.735z"/>
	<path fill="#FFFFFF" d="M112.114,45.769l-10.829-28.983h8.842l7.418,20.711l12.817-20.711h7.782l-19.573,30.782
		c-2.517,3.976-4.907,6.659-7.17,8.047c-2.263,1.389-5.215,2.083-8.858,2.083H99.53l1.159-6.354h3.046
		c1.965,0,3.449-0.31,4.454-0.929c1.004-0.619,2.004-1.688,2.997-3.207L112.114,45.769z"/>
	<path fill="#FFFFFF" d="M186.723,57.735h-8.445l7.55-40.912h12.12c3.93,0,6.8,0.075,8.611,0.225c1.81,0.15,3.576,0.685,5.299,1.604
		c1.722,0.919,3.113,2.243,4.172,3.971c1.059,1.729,1.59,3.662,1.59,5.8c0,2.837-0.856,5.35-2.567,7.538
		c-1.711,2.188-3.71,3.632-5.994,4.331c-2.286,0.7-5.083,1.049-8.395,1.049H189.77L186.723,57.735z M193.181,22.788l-2.286,12.528
		h8.015c2.826,0,4.801-0.165,5.927-0.495c1.127-0.33,2.12-1.049,2.981-2.158c0.86-1.109,1.292-2.453,1.292-4.031
		c0-1.479-0.387-2.692-1.159-3.642c-0.773-0.949-1.69-1.553-2.749-1.813s-2.959-0.39-5.696-0.39H193.181z"/>
	<path fill="#FFFFFF" d="M295.007,46.525c-3.863,8.192-9.836,12.289-17.916,12.289c-4.901,0-8.892-1.604-11.971-4.811
		c-3.081-3.207-4.62-7.568-4.62-13.083c0-6.894,1.976-12.813,5.928-17.758c3.951-4.945,9.029-7.418,15.233-7.418
		c4.835,0,8.665,1.269,11.491,3.806c2.826,2.538,4.437,6.055,4.836,10.55l-7.352,1.199c-0.662-6.274-3.709-9.411-9.14-9.411
		c-4.394,0-7.556,2.358-9.488,7.073c-1.932,4.716-2.898,9.202-2.898,13.458c0,3.317,0.812,5.815,2.435,7.493
		c1.622,1.679,3.692,2.518,6.209,2.518c2.318,0,4.421-0.814,6.309-2.442s3.328-3.612,4.321-5.95L295.007,46.525z"/>
</g>
</svg>
