<?xml version="1.0" encoding="utf-8"?>
<!-- Generator: Adobe Illustrator 22.0.0, SVG Export Plug-In . SVG Version: 6.00 Build 0)  -->
<svg version="1.1" id="Слой_1" xmlns="http://www.w3.org/2000/svg" xmlns:xlink="http://www.w3.org/1999/xlink" x="0px" y="0px"
	 width="318.196px" height="100.89px" viewBox="0 0 318.196 100.89" enable-background="new 0 0 318.196 100.89"
	 xml:space="preserve">
<linearGradient id="SVGID_1_" gradientUnits="userSpaceOnUse" x1="15.0453" y1="78.0962" x2="61.5164" y2="-2.3942">
	<stop  offset="0" style="stop-color:#2581C4"/>
	<stop  offset="1" style="stop-color:#0075BF;stop-opacity:0.5"/>
</linearGradient>
<path fill="url(#SVGID_1_)" d="M63.522,75.092H13.039c-6.6,0-12-5.4-12-12V12.61c0-6.6,5.4-12,12-12h50.483c6.6,0,12,5.4,12,12
	v50.483C75.522,69.692,70.122,75.092,63.522,75.092z"/>
<linearGradient id="SVGID_2_" gradientUnits="userSpaceOnUse" x1="95.7349" y1="78.0962" x2="142.206" y2="-2.3942">
	<stop  offset="0" style="stop-color:#2581C4"/>
	<stop  offset="1" style="stop-color:#0075BF;stop-opacity:0.5"/>
</linearGradient>
<path fill="url(#SVGID_2_)" d="M144.212,75.092H93.729c-6.6,0-12-5.4-12-12V12.61c0-6.6,5.4-12,12-12h50.483c6.6,0,12,5.4,12,12
	v50.483C156.212,69.692,150.812,75.092,144.212,75.092z"/>
<linearGradient id="SVGID_3_" gradientUnits="userSpaceOnUse" x1="176.4246" y1="78.0962" x2="222.8957" y2="-2.3942">
	<stop  offset="0" style="stop-color:#2581C4"/>
	<stop  offset="1" style="stop-color:#0075BF;stop-opacity:0.5"/>
</linearGradient>
<path fill="url(#SVGID_3_)" d="M224.902,75.092h-50.483c-6.6,0-12-5.4-12-12V12.61c0-6.6,5.4-12,12-12h50.483c6.6,0,12,5.4,12,12
	v50.483C236.902,69.692,231.502,75.092,224.902,75.092z"/>
<linearGradient id="SVGID_4_" gradientUnits="userSpaceOnUse" x1="257.1142" y1="78.0962" x2="303.5853" y2="-2.3942">
	<stop  offset="0" style="stop-color:#2581C4"/>
	<stop  offset="1" style="stop-color:#0075BF;stop-opacity:0.5"/>
</linearGradient>
<path fill="url(#SVGID_4_)" d="M305.591,75.092h-50.483c-6.6,0-12-5.4-12-12V12.61c0-6.6,5.4-12,12-12h50.483c6.6,0,12,5.4,12,12
	v50.483C317.591,69.692,312.191,75.092,305.591,75.092z"/>
<g>
	<path d="M12.743,97.957h-2.576l-2.026-6.579L4.967,94.72l-0.569,3.237H1.962l2.276-13.111h2.446l-0.998,5.715
		c-0.02,0.109-0.124,0.57-0.31,1.384c0.24-0.359,0.496-0.682,0.769-0.971l5.75-6.128h2.616l-4.462,4.678L12.743,97.957z"/>
	<path d="M18.353,98.207c-0.752,0-1.479-0.16-2.181-0.481c-0.702-0.319-1.238-0.828-1.607-1.523
		c-0.369-0.694-0.554-1.523-0.554-2.483c0-1.556,0.476-2.902,1.427-4.039c0.952-1.137,2.196-1.705,3.734-1.705
		c1.264,0,2.276,0.408,3.035,1.225c0.759,0.816,1.138,1.913,1.138,3.29c0,1.416-0.453,2.722-1.357,3.919
		C21.082,97.608,19.871,98.207,18.353,98.207z M18.373,96.449c0.905,0,1.57-0.45,1.997-1.349c0.426-0.9,0.639-1.843,0.639-2.829
		c0-1.69-0.679-2.536-2.036-2.536c-0.952,0-1.634,0.484-2.047,1.45c-0.413,0.967-0.619,1.931-0.619,2.892
		c0,0.813,0.2,1.411,0.599,1.796C17.305,96.257,17.794,96.449,18.373,96.449z"/>
	<path d="M24.553,97.957l1.697-9.769h2.236l-0.649,3.727h3.934l0.649-3.727h2.236l-1.697,9.769h-2.236l0.749-4.313h-3.933
		l-0.749,4.313H24.553z"/>
	<path d="M36.991,97.957l1.398-8.04h-2.775l0.299-1.729h7.737l-0.299,1.729h-2.726l-1.397,8.04H36.991z"/>
	<path d="M44.847,101.367h-2.236l2.296-13.179h1.997l-0.35,2.018c0.838-1.563,1.89-2.344,3.155-2.344
		c0.952,0,1.724,0.372,2.316,1.114c0.592,0.743,0.888,1.745,0.888,3.006c0,1.569-0.401,3.004-1.203,4.303
		c-0.802,1.3-1.849,1.95-3.14,1.95c-1.391,0-2.336-0.668-2.835-2.007L44.847,101.367z M48.152,96.478
		c0.779,0,1.379-0.472,1.802-1.417c0.422-0.945,0.634-1.916,0.634-2.915c0-1.684-0.533-2.527-1.597-2.527
		c-0.806,0-1.479,0.46-2.021,1.379c-0.542,0.919-0.814,1.932-0.814,3.04c0,0.814,0.195,1.423,0.584,1.83
		C47.129,96.275,47.599,96.478,48.152,96.478z"/>
	<path d="M58.644,98.207c-0.752,0-1.479-0.16-2.181-0.481c-0.702-0.319-1.238-0.828-1.607-1.523
		c-0.369-0.694-0.554-1.523-0.554-2.483c0-1.556,0.476-2.902,1.427-4.039s2.196-1.705,3.734-1.705c1.264,0,2.276,0.408,3.035,1.225
		c0.759,0.816,1.138,1.913,1.138,3.29c0,1.416-0.453,2.722-1.357,3.919C61.372,97.608,60.161,98.207,58.644,98.207z M58.664,96.449
		c0.905,0,1.57-0.45,1.997-1.349c0.426-0.9,0.639-1.843,0.639-2.829c0-1.69-0.679-2.536-2.036-2.536
		c-0.952,0-1.634,0.484-2.047,1.45c-0.413,0.967-0.619,1.931-0.619,2.892c0,0.813,0.2,1.411,0.599,1.796
		C57.595,96.257,58.085,96.449,58.664,96.449z"/>
	<path d="M63.326,97.957l4.912-9.702h2.686l1.447,9.702h-2.286l-0.978-8.001l-3.934,8.001H63.326z"/>
	<path d="M73.638,97.957l1.697-9.769h2.236l-0.619,3.583h2.246c2.156,0,3.234,0.893,3.234,2.68c0,1.012-0.336,1.849-1.008,2.512
		c-0.672,0.662-1.727,0.994-3.165,0.994H73.638z M76.174,96.228h2.206c1.245,0,1.867-0.55,1.867-1.652c0-0.82-0.546-1.23-1.637-1.23
		h-1.937L76.174,96.228z"/>
	<path d="M92.605,94.135l-3.264-9.288h2.666l2.236,6.637l3.863-6.637h2.346l-5.9,9.865c-0.759,1.275-1.479,2.134-2.161,2.579
		c-0.682,0.445-1.572,0.667-2.67,0.667h-0.909l0.35-2.037h0.918c0.592,0,1.04-0.099,1.343-0.297
		c0.303-0.199,0.604-0.542,0.903-1.028L92.605,94.135z"/>
	<path d="M98.725,97.957l1.697-9.769h7.966l-1.697,9.769h-2.236l1.428-8.203h-3.494l-1.427,8.203H98.725z"/>
	<path d="M111.053,101.367h-2.236l2.296-13.179h1.997l-0.35,2.018c0.838-1.563,1.89-2.344,3.155-2.344
		c0.952,0,1.724,0.372,2.316,1.114c0.592,0.743,0.888,1.745,0.888,3.006c0,1.569-0.401,3.004-1.203,4.303
		c-0.802,1.3-1.849,1.95-3.14,1.95c-1.391,0-2.336-0.668-2.835-2.007L111.053,101.367z M114.358,96.478
		c0.779,0,1.379-0.472,1.802-1.417c0.422-0.945,0.634-1.916,0.634-2.915c0-1.684-0.533-2.527-1.597-2.527
		c-0.806,0-1.479,0.46-2.021,1.379c-0.542,0.919-0.814,1.932-0.814,3.04c0,0.814,0.195,1.423,0.584,1.83
		C113.335,96.275,113.805,96.478,114.358,96.478z"/>
	<path d="M128.743,97.957h-2.206c-0.013-0.173-0.02-0.313-0.02-0.423c0-0.467,0.06-1.027,0.18-1.681
		c-0.333,0.73-0.812,1.305-1.438,1.724c-0.625,0.419-1.314,0.63-2.066,0.63c-0.905,0-1.642-0.27-2.211-0.812
		c-0.569-0.541-0.854-1.208-0.854-2.002c0-1.095,0.507-1.966,1.522-2.613c1.015-0.647,2.604-0.971,4.767-0.971
		c0.279,0,0.605,0.013,0.978,0.039c0.047-0.295,0.07-0.528,0.07-0.701c0-0.525-0.188-0.922-0.564-1.191
		c-0.376-0.27-0.843-0.404-1.402-0.404c-1.072,0-1.854,0.451-2.346,1.355l-1.997-0.605c0.839-1.588,2.319-2.382,4.442-2.382
		c1.265,0,2.263,0.276,2.995,0.826c0.732,0.551,1.098,1.284,1.098,2.2c0,0.39-0.16,1.421-0.479,3.092
		c-0.339,1.761-0.509,2.879-0.509,3.352C128.703,97.564,128.717,97.752,128.743,97.957z M127.196,92.972
		c-1.737,0.09-2.945,0.311-3.624,0.663c-0.679,0.352-1.018,0.867-1.018,1.546c0,0.391,0.136,0.71,0.409,0.956
		c0.273,0.247,0.646,0.37,1.118,0.37c0.679,0,1.308-0.287,1.887-0.86C126.547,95.074,126.956,94.182,127.196,92.972z"/>
	<path d="M131.169,97.957l1.697-9.769h4.802c0.758,0,1.342,0.067,1.752,0.202c0.409,0.134,0.747,0.371,1.013,0.71
		s0.399,0.753,0.399,1.239c0,1.262-0.806,2.081-2.416,2.459c1.311,0.372,1.967,1.112,1.967,2.219c0,0.845-0.313,1.547-0.938,2.104
		s-1.487,0.835-2.585,0.835H131.169z M133.704,96.228h2.605c1.238,0,1.857-0.512,1.857-1.536c0-0.801-0.549-1.201-1.647-1.201
		h-2.336L133.704,96.228z M134.403,92.213h2.605c0.559,0,0.963-0.141,1.213-0.423c0.25-0.282,0.375-0.615,0.375-0.999
		c0-0.685-0.476-1.027-1.428-1.027h-2.336L134.403,92.213z"/>
	<path d="M140.492,97.957l4.912-9.702h2.686l1.447,9.702h-2.286l-0.978-8.001l-3.934,8.001H140.492z"/>
	<path d="M159.69,95.201c-0.932,1.998-2.409,2.997-4.433,2.997c-1.331,0-2.377-0.394-3.139-1.182
		c-0.762-0.788-1.143-1.835-1.143-3.141c0-1.665,0.48-3.071,1.442-4.217c0.961-1.146,2.198-1.72,3.708-1.72
		c1.358,0,2.384,0.413,3.08,1.239c0.695,0.826,1.043,1.953,1.043,3.381c0,0.238-0.01,0.493-0.03,0.769h-6.978
		c-0.047,0.276-0.07,0.518-0.07,0.729c0,0.737,0.185,1.33,0.554,1.777c0.37,0.449,0.894,0.673,1.572,0.673
		c1.052,0,1.85-0.605,2.396-1.815L159.69,95.201z M158.133,91.934c0-1.652-0.666-2.478-1.997-2.478
		c-1.378,0-2.263,0.826-2.656,2.478H158.133z"/>
	<path d="M161.467,97.957l1.697-9.769h2.236l-0.648,3.727h3.933l0.649-3.727h2.236l-1.697,9.769h-2.236l0.749-4.313h-3.934
		l-0.749,4.313H161.467z"/>
	<path d="M174.984,97.112l-0.15,0.846h-2.235l1.696-9.769h2.236l-0.719,4.111c-0.073,0.449-0.216,1.157-0.429,2.123
		c0.485-0.608,1.088-1.271,1.807-1.988l3.114-3.131l0.2-1.114h2.226l-1.697,9.769h-2.235l0.669-3.88
		c0.146-0.833,0.296-1.575,0.449-2.229c-0.427,0.544-0.985,1.175-1.678,1.892L174.984,97.112z"/>
	<path d="M192.642,95.201c-0.932,1.998-2.409,2.997-4.432,2.997c-1.331,0-2.378-0.394-3.14-1.182
		c-0.763-0.788-1.144-1.835-1.144-3.141c0-1.665,0.481-3.071,1.442-4.217c0.962-1.146,2.198-1.72,3.709-1.72
		c1.357,0,2.384,0.413,3.08,1.239c0.695,0.826,1.043,1.953,1.043,3.381c0,0.238-0.01,0.493-0.03,0.769h-6.978
		c-0.047,0.276-0.07,0.518-0.07,0.729c0,0.737,0.185,1.33,0.555,1.777c0.369,0.449,0.894,0.673,1.572,0.673
		c1.051,0,1.85-0.605,2.396-1.815L192.642,95.201z M191.085,91.934c0-1.652-0.666-2.478-1.997-2.478
		c-1.377,0-2.263,0.826-2.655,2.478H191.085z"/>
	<path d="M202.206,97.957h-2.546l2.276-13.111h3.654c1.184,0,2.049,0.024,2.595,0.071c0.546,0.048,1.078,0.22,1.598,0.514
		s0.938,0.719,1.258,1.273c0.319,0.554,0.479,1.174,0.479,1.858c0,0.909-0.259,1.715-0.774,2.416
		c-0.516,0.701-1.118,1.163-1.807,1.387c-0.688,0.225-1.532,0.337-2.53,0.337h-3.284L202.206,97.957z M204.154,86.757l-0.689,4.016
		h2.416c0.852,0,1.447-0.053,1.787-0.158c0.339-0.106,0.639-0.337,0.898-0.692c0.26-0.356,0.389-0.786,0.389-1.293
		c0-0.474-0.116-0.862-0.349-1.167c-0.233-0.304-0.51-0.498-0.829-0.581c-0.319-0.083-0.892-0.125-1.717-0.125H204.154z"/>
	<path d="M220.165,97.957h-2.206c-0.014-0.173-0.02-0.313-0.02-0.423c0-0.467,0.06-1.027,0.18-1.681
		c-0.333,0.73-0.813,1.305-1.438,1.724c-0.626,0.419-1.314,0.63-2.066,0.63c-0.905,0-1.643-0.27-2.212-0.812
		c-0.568-0.541-0.854-1.208-0.854-2.002c0-1.095,0.508-1.966,1.522-2.613s2.604-0.971,4.767-0.971c0.28,0,0.605,0.013,0.979,0.039
		c0.047-0.295,0.07-0.528,0.07-0.701c0-0.525-0.188-0.922-0.564-1.191c-0.376-0.27-0.844-0.404-1.402-0.404
		c-1.071,0-1.854,0.451-2.346,1.355l-1.997-0.605c0.839-1.588,2.319-2.382,4.442-2.382c1.265,0,2.263,0.276,2.995,0.826
		c0.731,0.551,1.098,1.284,1.098,2.2c0,0.39-0.159,1.421-0.479,3.092c-0.34,1.761-0.51,2.879-0.51,3.352
		C220.125,97.564,220.139,97.752,220.165,97.957z M218.618,92.972c-1.737,0.09-2.945,0.311-3.624,0.663
		c-0.679,0.352-1.019,0.867-1.019,1.546c0,0.391,0.137,0.71,0.409,0.956c0.273,0.247,0.646,0.37,1.118,0.37
		c0.68,0,1.309-0.287,1.887-0.86C217.969,95.074,218.378,94.182,218.618,92.972z"/>
	<path d="M222.49,96.257l3.744-8.002h3.504l0.908,8.002h0.918l-0.688,3.929h-1.478l0.12-2.229h-6.499l-0.659,2.229h-1.477
		l0.688-3.929H222.49z M224.318,96.257h4.143l-0.499-6.301h-0.889L224.318,96.257z"/>
	<path d="M234.96,97.112l-0.15,0.846h-2.235l1.696-9.769h2.236l-0.719,4.111c-0.073,0.449-0.216,1.157-0.429,2.123
		c0.485-0.608,1.088-1.271,1.807-1.988l3.114-3.131l0.2-1.114h2.226l-1.697,9.769h-2.235l0.669-3.88
		c0.146-0.833,0.296-1.575,0.449-2.229c-0.427,0.544-0.985,1.175-1.678,1.892L234.96,97.112z"/>
	<path d="M248.267,98.207c-0.753,0-1.479-0.16-2.182-0.481c-0.702-0.319-1.238-0.828-1.607-1.523
		c-0.369-0.694-0.554-1.523-0.554-2.483c0-1.556,0.476-2.902,1.428-4.039c0.951-1.137,2.196-1.705,3.733-1.705
		c1.264,0,2.275,0.408,3.034,1.225c0.759,0.816,1.139,1.913,1.139,3.29c0,1.416-0.453,2.722-1.358,3.919
		C250.995,97.608,249.783,98.207,248.267,98.207z M248.286,96.449c0.905,0,1.57-0.45,1.996-1.349s0.64-1.843,0.64-2.829
		c0-1.69-0.679-2.536-2.037-2.536c-0.951,0-1.634,0.484-2.046,1.45c-0.413,0.967-0.619,1.931-0.619,2.892
		c0,0.813,0.199,1.411,0.599,1.796C247.218,96.257,247.707,96.449,248.286,96.449z"/>
	<path d="M270.489,94.365c-1.165,2.626-2.965,3.939-5.401,3.939c-1.478,0-2.68-0.514-3.608-1.542
		c-0.929-1.027-1.393-2.425-1.393-4.192c0-2.21,0.596-4.107,1.787-5.691c1.191-1.585,2.722-2.378,4.592-2.378
		c1.457,0,2.612,0.407,3.464,1.22c0.852,0.813,1.338,1.94,1.458,3.381l-2.217,0.384c-0.199-2.011-1.118-3.016-2.755-3.016
		c-1.324,0-2.278,0.755-2.86,2.267s-0.873,2.949-0.873,4.313c0,1.064,0.244,1.864,0.733,2.402c0.489,0.537,1.113,0.807,1.872,0.807
		c0.698,0,1.332-0.261,1.901-0.783s1.003-1.157,1.303-1.907L270.489,94.365z"/>
	<path d="M280.551,95.201c-0.932,1.998-2.409,2.997-4.432,2.997c-1.331,0-2.378-0.394-3.14-1.182
		c-0.763-0.788-1.144-1.835-1.144-3.141c0-1.665,0.481-3.071,1.442-4.217c0.962-1.146,2.198-1.72,3.709-1.72
		c1.357,0,2.384,0.413,3.08,1.239c0.695,0.826,1.043,1.953,1.043,3.381c0,0.238-0.01,0.493-0.03,0.769h-6.978
		c-0.047,0.276-0.07,0.518-0.07,0.729c0,0.737,0.185,1.33,0.555,1.777c0.369,0.449,0.894,0.673,1.572,0.673
		c1.051,0,1.85-0.605,2.396-1.815L280.551,95.201z M278.994,91.934c0-1.652-0.666-2.478-1.997-2.478
		c-1.377,0-2.263,0.826-2.655,2.478H278.994z"/>
	<path d="M283.636,97.957l1.397-8.04h-2.775l0.3-1.729h7.736l-0.3,1.729h-2.725l-1.397,8.04H283.636z"/>
	<path d="M289.856,97.957l1.696-9.769h2.236l-0.619,3.583h2.246c2.156,0,3.234,0.893,3.234,2.68c0,1.012-0.336,1.849-1.008,2.512
		c-0.672,0.662-1.727,0.994-3.164,0.994H289.856z M292.391,96.228h2.206c1.244,0,1.867-0.55,1.867-1.652
		c0-0.82-0.546-1.23-1.638-1.23h-1.937L292.391,96.228z"/>
	<path d="M304.929,93.682h-2.176l-0.739,4.275h-2.235l1.696-9.769h2.236l-0.648,3.766h2.086c0.326-1.204,0.91-2.177,1.752-2.92
		c0.842-0.743,1.862-1.114,3.06-1.114c1.271,0,2.283,0.418,3.035,1.254c0.752,0.835,1.128,1.907,1.128,3.213
		c0,1.498-0.454,2.844-1.362,4.039s-2.139,1.791-3.688,1.791c-1.318,0-2.338-0.386-3.061-1.157
		C305.29,96.287,304.929,95.162,304.929,93.682z M309.162,96.459c0.904,0,1.568-0.453,1.991-1.359s0.634-1.849,0.634-2.829
		c0-1.729-0.679-2.594-2.036-2.594c-0.966,0-1.652,0.506-2.062,1.518s-0.614,1.965-0.614,2.862c0,0.795,0.194,1.393,0.584,1.796
		C308.049,96.257,308.55,96.459,309.162,96.459z"/>
</g>
<path fill="#FFFFFF" d="M53.304,58.344H44.76l-6.723-20.531l-10.531,10.43l-1.888,10.101h-8.08l7.551-40.912h8.114l-3.312,17.833
	c-0.066,0.34-0.409,1.779-1.027,4.316c0.795-1.119,1.644-2.128,2.55-3.027l19.075-19.123h8.676L44.363,32.029L53.304,58.344z"/>
<path fill="#FFFFFF" d="M113.134,46.378l-10.829-28.983h8.842l7.418,20.711l12.817-20.711h7.782l-19.573,30.782
	c-2.517,3.976-4.907,6.659-7.17,8.047c-2.263,1.389-5.215,2.083-8.858,2.083h-3.014l1.159-6.354h3.046
	c1.965,0,3.449-0.31,4.454-0.929c1.004-0.619,2.004-1.688,2.997-3.207L113.134,46.378z"/>
<path fill="#FFFFFF" d="M187.743,58.344h-8.445l7.55-40.912h12.12c3.93,0,6.8,0.075,8.611,0.225c1.81,0.15,3.576,0.685,5.299,1.604
	c1.722,0.919,3.113,2.243,4.172,3.971c1.059,1.729,1.59,3.662,1.59,5.8c0,2.837-0.856,5.35-2.567,7.538
	c-1.711,2.188-3.71,3.632-5.994,4.331c-2.286,0.7-5.083,1.049-8.395,1.049h-10.895L187.743,58.344z M194.2,23.397l-2.286,12.528
	h8.015c2.826,0,4.801-0.165,5.927-0.495c1.127-0.33,2.12-1.049,2.981-2.158c0.86-1.109,1.292-2.453,1.292-4.031
	c0-1.479-0.387-2.692-1.159-3.642c-0.773-0.949-1.69-1.553-2.749-1.813c-1.059-0.26-2.959-0.39-5.696-0.39H194.2z"/>
<path fill="#FFFFFF" d="M296.027,47.135c-3.863,8.192-9.836,12.289-17.916,12.289c-4.901,0-8.892-1.604-11.971-4.811
	c-3.081-3.207-4.62-7.568-4.62-13.083c0-6.894,1.976-12.813,5.928-17.758c3.951-4.945,9.029-7.418,15.233-7.418
	c4.835,0,8.665,1.269,11.491,3.806c2.826,2.538,4.438,6.055,4.836,10.55l-7.352,1.199c-0.662-6.274-3.709-9.411-9.14-9.411
	c-4.394,0-7.556,2.358-9.488,7.073c-1.932,4.716-2.898,9.202-2.898,13.458c0,3.317,0.812,5.815,2.435,7.493
	c1.622,1.679,3.692,2.518,6.209,2.518c2.318,0,4.421-0.814,6.309-2.442s3.328-3.612,4.321-5.95L296.027,47.135z"/>
</svg>
