<?xml version="1.0" encoding="utf-8"?>
<!-- Generator: Adobe Illustrator 22.0.0, SVG Export Plug-In . SVG Version: 6.00 Build 0)  -->
<svg version="1.1" id="Слой_1" xmlns="http://www.w3.org/2000/svg" xmlns:xlink="http://www.w3.org/1999/xlink" x="0px" y="0px"
	 width="319.418px" height="77.752px" viewBox="0 0 319.418 77.752" enable-background="new 0 0 319.418 77.752"
	 xml:space="preserve">
<g>
	<path fill="#008AD1" d="M63.781,76.385H13.298c-6.6,0-12-5.4-12-12V13.903c0-6.6,5.4-12,12-12h50.483c6.6,0,12,5.4,12,12v50.483
		C75.781,70.985,70.381,76.385,63.781,76.385z"/>
	<path fill="#008AD1" d="M144.47,76.385H93.988c-6.6,0-12-5.4-12-12V13.903c0-6.6,5.4-12,12-12h50.483c6.6,0,12,5.4,12,12v50.483
		C156.47,70.985,151.07,76.385,144.47,76.385z"/>
	<path fill="#008AD1" d="M225.16,76.385h-50.483c-6.6,0-12-5.4-12-12V13.903c0-6.6,5.4-12,12-12h50.483c6.6,0,12,5.4,12,12v50.483
		C237.16,70.985,231.76,76.385,225.16,76.385z"/>
	<path fill="#008AD1" d="M305.85,76.385h-50.483c-6.6,0-12-5.4-12-12V13.903c0-6.6,5.4-12,12-12h50.483c6.6,0,12,5.4,12,12v50.483
		C317.85,70.985,312.45,76.385,305.85,76.385z"/>
	<g>
		<path fill="#FFFFFF" d="M47.299,18.709l14.459-0.306L40.216,36.643l14.786,22.718l-12.349-0.057l-10.32-16.533l-5.018,5.639
			l-2.204,11.02l-9.792-0.069l6.776-40.959h10.008l-3.343,16.818"/>
	</g>
	<g>
		<path fill="#FFFFFF" d="M188.196,59.43h-9.063l8.104-41.027h13.007c4.218,0,7.298,0.075,9.241,0.226
			c1.942,0.15,3.839,0.686,5.687,1.608c1.848,0.922,3.34,2.25,4.478,3.983c1.137,1.733,1.706,3.672,1.706,5.816
			c0,2.845-0.919,5.365-2.755,7.559c-1.837,2.194-3.981,3.642-6.433,4.343c-2.452,0.701-5.456,1.052-9.01,1.052h-11.693
			L188.196,59.43z M195.126,24.384l-2.452,12.564h8.601c3.033,0,5.154-0.165,6.362-0.496c1.21-0.331,2.276-1.052,3.199-2.164
			c0.924-1.112,1.386-2.459,1.386-4.043c0-1.483-0.415-2.7-1.244-3.652c-0.83-0.951-1.813-1.558-2.95-1.818
			c-1.137-0.26-3.176-0.391-6.113-0.391H195.126z"/>
	</g>
	<g>
		<path fill="#FFFFFF" d="M111.693,46.751l-11.279-28.206l10.569-0.142l7.726,20.156l13.348-20.156l9.851,0.053l-18.157,29.463
			c-3.55,5.955-4.388,7.586-9.517,9.971c-3.093,1.438-6.559,1.604-11.209,1.523h-3.314l1.441-7.379h3.173
			c2.047,0,3.593-0.301,4.639-0.904c1.046-0.603,2.086-1.643,3.122-3.121L111.693,46.751z"/>
	</g>
	<g>
		<path fill="#FFFFFF" d="M295.962,47.202c-3.926,7.777-10.331,12.158-18.54,12.158c-4.98,0-9.034-1.522-12.163-4.567
			c-3.129-3.044-4.693-7.184-4.693-12.42c0-6.544,2.007-12.164,6.023-16.858c4.014-4.695,9.174-7.042,15.477-7.042
			c4.912,0,8.803,1.205,11.675,3.613c2.872,2.409,4.508,6.878,4.912,11.146l-7.47,0.007c-0.672-5.956-3.767-8.934-9.286-8.934
			c-4.463,0-7.677,2.239-9.639,6.715c-1.963,4.477-2.943,8.735-2.943,12.776c0,3.149,0.824,5.52,2.473,7.113
			c1.648,1.593,3.751,2.39,6.308,2.39c2.355,0,4.493-0.773,6.41-2.319c1.917-1.545,2.351-1.525,3.36-3.744L295.962,47.202z"/>
	</g>
</g>
</svg>
