<?xml version="1.0" encoding="utf-8"?>
<!-- Generator: Adobe Illustrator 22.0.0, SVG Export Plug-In . SVG Version: 6.00 Build 0)  -->
<svg version="1.1" id="Слой_1" xmlns="http://www.w3.org/2000/svg" xmlns:xlink="http://www.w3.org/1999/xlink" x="0px" y="0px"
	 width="321.487px" height="103.269px" viewBox="0 0 321.487 103.269" enable-background="new 0 0 321.487 103.269"
	 xml:space="preserve">
<g>
	<path fill="#008AD1" d="M65.104,77.638H14.621c-6.6,0-12-5.4-12-12V15.155c0-6.6,5.4-12,12-12h50.483c6.6,0,12,5.4,12,12v50.483
		C77.104,72.238,71.704,77.638,65.104,77.638z"/>
	<path fill="#008AD1" d="M145.793,77.638H95.311c-6.6,0-12-5.4-12-12V15.155c0-6.6,5.4-12,12-12h50.483c6.6,0,12,5.4,12,12v50.483
		C157.793,72.238,152.393,77.638,145.793,77.638z"/>
	<path fill="#008AD1" d="M226.483,77.638H176c-6.6,0-12-5.4-12-12V15.155c0-6.6,5.4-12,12-12h50.483c6.6,0,12,5.4,12,12v50.483
		C238.483,72.238,233.083,77.638,226.483,77.638z"/>
	<path fill="#008AD1" d="M307.173,77.638H256.69c-6.6,0-12-5.4-12-12V15.155c0-6.6,5.4-12,12-12h50.483c6.6,0,12,5.4,12,12v50.483
		C319.173,72.238,313.773,77.638,307.173,77.638z"/>
	<g>
		
			<text transform="matrix(1.0736 0 0 1 10.1063 59.7927)" fill="#FFFFFF" font-family="'FranklinGothic-MediumItalic'" font-size="55.8352px">W</text>
	</g>
	<g>
		
			<text transform="matrix(1.0736 0 0 1 181.3134 59.7927)" fill="#FFFFFF" font-family="'FranklinGothic-MediumItalic'" font-size="55.8352px">N</text>
	</g>
	<g>
		
			<text transform="matrix(1.0736 0 0 1 102.934 59.7927)" fill="#FFFFFF" font-family="'FranklinGothic-MediumItalic'" font-size="55.8352px">S</text>
	</g>
	<g>
		
			<text transform="matrix(1.0736 0 0 1 261.8651 59.7927)" fill="#FFFFFF" font-family="'FranklinGothic-MediumItalic'" font-size="55.8352px">C</text>
	</g>
	<g>
		<path d="M17.072,102.103h-2.668l-1.302-11.152l-4.567,11.152H5.963L4.227,87.186h2.864l0.987,11.185l4.546-11.185h2.636
			l1.183,11.185l4.502-11.185h2.343L17.072,102.103z"/>
		<path d="M25.068,101.995h-2.55l1.845-11.033h2.549L25.068,101.995z M27.129,89.681H24.58l0.445-2.647h2.549L27.129,89.681z"/>
		<path d="M30.46,101.995h-2.43l1.845-11.033h2.235l-0.499,3.005c0.947-2.206,2.22-3.309,3.819-3.309
			c0.065,0,0.163,0.003,0.293,0.011l-0.315,2.712c-0.239-0.015-0.419-0.021-0.542-0.021c-0.6,0-1.166,0.159-1.698,0.478
			s-0.948,0.747-1.248,1.285c-0.3,0.539-0.552,1.423-0.754,2.652L30.46,101.995z"/>
		<path d="M45.399,98.882c-1.013,2.256-2.618,3.385-4.817,3.385c-1.447,0-2.584-0.445-3.412-1.335s-1.242-2.072-1.242-3.547
			c0-1.881,0.522-3.469,1.568-4.764c1.045-1.294,2.388-1.941,4.03-1.941c1.476,0,2.591,0.467,3.347,1.399s1.134,2.206,1.134,3.819
			c0,0.268-0.011,0.557-0.032,0.867h-7.583c-0.051,0.312-0.076,0.586-0.076,0.825c0,0.831,0.201,1.5,0.602,2.007
			c0.401,0.506,0.971,0.759,1.709,0.759c1.143,0,2.011-0.683,2.604-2.05L45.399,98.882z M43.707,95.192
			c0-1.865-0.723-2.799-2.17-2.799c-1.497,0-2.459,0.934-2.886,2.799H43.707z"/>
		<path d="M49.88,101.995h-2.55l2.474-14.809h2.55L49.88,101.995z"/>
		<path d="M62.497,98.882c-1.013,2.256-2.618,3.385-4.817,3.385c-1.447,0-2.584-0.445-3.412-1.335s-1.242-2.072-1.242-3.547
			c0-1.881,0.522-3.469,1.568-4.764c1.045-1.294,2.388-1.941,4.03-1.941c1.476,0,2.591,0.467,3.347,1.399s1.134,2.206,1.134,3.819
			c0,0.268-0.011,0.557-0.032,0.867h-7.583c-0.051,0.312-0.076,0.586-0.076,0.825c0,0.831,0.201,1.5,0.602,2.007
			c0.401,0.506,0.971,0.759,1.709,0.759c1.143,0,2.011-0.683,2.604-2.05L62.497,98.882z M60.805,95.192
			c0-1.865-0.723-2.799-2.17-2.799c-1.497,0-2.459,0.934-2.886,2.799H60.805z"/>
		<path d="M65.785,98.751c0.427,1.1,1.298,1.649,2.614,1.649c0.658,0,1.177-0.136,1.557-0.407c0.38-0.271,0.569-0.616,0.569-1.036
			c0-0.311-0.128-0.557-0.385-0.737c-0.257-0.181-0.693-0.358-1.308-0.531c-0.991-0.275-1.725-0.528-2.202-0.76
			c-0.478-0.231-0.879-0.586-1.204-1.063c-0.326-0.478-0.488-1.023-0.488-1.638c0-0.962,0.365-1.8,1.096-2.512
			c0.73-0.713,1.761-1.068,3.092-1.068c2.163,0,3.682,0.867,4.557,2.604l-2.094,0.673c-0.485-0.962-1.284-1.443-2.398-1.443
			c-0.499,0-0.922,0.116-1.269,0.348s-0.521,0.542-0.521,0.933c0,0.275,0.085,0.503,0.255,0.684s0.512,0.344,1.025,0.488
			c1.172,0.347,2.042,0.649,2.609,0.905c0.567,0.257,1.016,0.622,1.345,1.096c0.329,0.475,0.494,1.019,0.494,1.633
			c0,1.042-0.4,1.914-1.199,2.615c-0.799,0.701-1.984,1.052-3.553,1.052c-2.51,0-4.148-0.973-4.915-2.918L65.785,98.751z"/>
		<path d="M75.961,98.751c0.427,1.1,1.298,1.649,2.614,1.649c0.658,0,1.177-0.136,1.557-0.407c0.38-0.271,0.569-0.616,0.569-1.036
			c0-0.311-0.128-0.557-0.385-0.737c-0.257-0.181-0.693-0.358-1.308-0.531c-0.991-0.275-1.725-0.528-2.202-0.76
			c-0.478-0.231-0.879-0.586-1.204-1.063c-0.326-0.478-0.488-1.023-0.488-1.638c0-0.962,0.365-1.8,1.096-2.512
			c0.73-0.713,1.761-1.068,3.092-1.068c2.163,0,3.682,0.867,4.557,2.604l-2.094,0.673c-0.485-0.962-1.284-1.443-2.398-1.443
			c-0.499,0-0.922,0.116-1.269,0.348s-0.521,0.542-0.521,0.933c0,0.275,0.085,0.503,0.255,0.684s0.512,0.344,1.025,0.488
			c1.172,0.347,2.042,0.649,2.609,0.905c0.567,0.257,1.016,0.622,1.345,1.096c0.329,0.475,0.494,1.019,0.494,1.633
			c0,1.042-0.4,1.914-1.199,2.615c-0.799,0.701-1.984,1.052-3.553,1.052c-2.51,0-4.148-0.973-4.915-2.918L75.961,98.751z"/>
		<path d="M101.869,89.996l-2.43,0.9c-0.521-1.229-1.461-1.845-2.821-1.845c-0.825,0-1.466,0.194-1.926,0.581
			s-0.689,0.866-0.689,1.438c0,0.441,0.156,0.801,0.467,1.079c0.311,0.278,0.824,0.52,1.541,0.722l2.029,0.597
			c0.586,0.166,1.143,0.431,1.67,0.792c0.528,0.361,0.922,0.813,1.183,1.356c0.261,0.542,0.391,1.113,0.391,1.714
			c0,1.346-0.501,2.512-1.502,3.499c-1.002,0.987-2.465,1.48-4.389,1.48c-2.98,0-4.911-1.229-5.793-3.688l2.419-0.857
			c0.586,1.548,1.765,2.322,3.537,2.322c1.012,0,1.765-0.233,2.256-0.7s0.738-0.996,0.738-1.589c0-0.34-0.092-0.635-0.277-0.885
			c-0.184-0.249-0.417-0.439-0.7-0.569c-0.282-0.13-0.846-0.314-1.692-0.554c-1.179-0.34-2.06-0.661-2.642-0.965
			c-0.583-0.304-1.056-0.745-1.421-1.324c-0.365-0.578-0.548-1.266-0.548-2.061c0-1.353,0.488-2.459,1.465-3.32
			c0.976-0.86,2.307-1.291,3.992-1.291C99.214,86.828,100.928,87.884,101.869,89.996z"/>
		<path d="M112.273,98.882c-1.013,2.256-2.618,3.385-4.817,3.385c-1.447,0-2.584-0.445-3.412-1.335s-1.242-2.072-1.242-3.547
			c0-1.881,0.522-3.469,1.568-4.764c1.045-1.294,2.388-1.941,4.03-1.941c1.476,0,2.591,0.467,3.347,1.399s1.134,2.206,1.134,3.819
			c0,0.268-0.011,0.557-0.032,0.867h-7.583c-0.051,0.312-0.076,0.586-0.076,0.825c0,0.831,0.201,1.5,0.602,2.007
			c0.401,0.506,0.971,0.759,1.709,0.759c1.143,0,2.011-0.683,2.604-2.05L112.273,98.882z M110.58,95.192
			c0-1.865-0.723-2.799-2.17-2.799c-1.497,0-2.459,0.934-2.886,2.799H110.58z"/>
		<path d="M116.634,101.995h-2.43l1.845-11.033h2.235l-0.499,3.005c0.947-2.206,2.22-3.309,3.819-3.309
			c0.065,0,0.163,0.003,0.293,0.011l-0.315,2.712c-0.239-0.015-0.419-0.021-0.542-0.021c-0.6,0-1.166,0.159-1.698,0.478
			s-0.948,0.747-1.248,1.285c-0.3,0.539-0.552,1.423-0.754,2.652L116.634,101.995z"/>
		<path d="M127.375,101.995h-2.267l-2.344-11.033h2.658l1.464,7.725l3.591-7.725h2.148L127.375,101.995z"/>
		<path d="M134.948,101.995h-2.55l1.845-11.033h2.549L134.948,101.995z M137.009,89.681h-2.549l0.445-2.647h2.549L137.009,89.681z"
			/>
		<path d="M147.196,98.718c-1.042,2.344-2.604,3.515-4.687,3.515c-1.295,0-2.351-0.436-3.168-1.307
			c-0.817-0.872-1.226-2.096-1.226-3.673c0-1.779,0.502-3.327,1.508-4.644s2.268-1.975,3.786-1.975c1.15,0,2.11,0.335,2.88,1.004
			c0.771,0.669,1.253,1.618,1.449,2.848l-2.062,0.401c-0.29-1.446-1.009-2.17-2.159-2.17c-0.853,0-1.548,0.485-2.083,1.454
			c-0.535,0.97-0.803,2.087-0.803,3.353c0,0.962,0.203,1.644,0.608,2.045c0.405,0.401,0.886,0.603,1.443,0.603
			c1.085,0,1.909-0.728,2.474-2.181L147.196,98.718z"/>
		<path d="M158.186,98.882c-1.013,2.256-2.618,3.385-4.817,3.385c-1.447,0-2.584-0.445-3.412-1.335s-1.242-2.072-1.242-3.547
			c0-1.881,0.522-3.469,1.568-4.764c1.045-1.294,2.388-1.941,4.03-1.941c1.476,0,2.591,0.467,3.347,1.399s1.134,2.206,1.134,3.819
			c0,0.268-0.011,0.557-0.032,0.867h-7.583c-0.051,0.312-0.076,0.586-0.076,0.825c0,0.831,0.201,1.5,0.602,2.007
			c0.401,0.506,0.971,0.759,1.709,0.759c1.143,0,2.011-0.683,2.604-2.05L158.186,98.882z M156.494,95.192
			c0-1.865-0.723-2.799-2.17-2.799c-1.497,0-2.459,0.934-2.886,2.799H156.494z"/>
		<path d="M176.977,101.995h-2.117l-5.055-11.131l-1.855,11.131h-2.137l2.473-14.809h2.746l4.609,10.165l1.703-10.165h2.117
			L176.977,101.995z"/>
		<path d="M189.757,98.882c-1.013,2.256-2.618,3.385-4.817,3.385c-1.446,0-2.583-0.445-3.411-1.335
			c-0.829-0.89-1.242-2.072-1.242-3.547c0-1.881,0.522-3.469,1.567-4.764c1.045-1.294,2.389-1.941,4.03-1.941
			c1.476,0,2.591,0.467,3.347,1.399s1.134,2.206,1.134,3.819c0,0.268-0.011,0.557-0.032,0.867h-7.584
			c-0.051,0.312-0.075,0.586-0.075,0.825c0,0.831,0.2,1.5,0.602,2.007c0.401,0.506,0.971,0.759,1.709,0.759
			c1.143,0,2.011-0.683,2.604-2.05L189.757,98.882z M188.064,95.192c0-1.865-0.724-2.799-2.17-2.799
			c-1.497,0-2.459,0.934-2.886,2.799H188.064z"/>
		<path d="M196.7,102.016c-0.73,0.108-1.248,0.163-1.552,0.163c-1.02,0-1.767-0.229-2.24-0.689
			c-0.474-0.459-0.711-1.018-0.711-1.676c0-0.34,0.083-1.002,0.25-1.985l0.835-4.882h-1.638l0.336-1.985h1.66l0.662-2.973
			l2.213-0.152l-0.521,3.125h2.376l-0.326,1.985h-2.387l-0.824,4.914c-0.102,0.607-0.152,0.998-0.152,1.172
			c0,0.702,0.521,1.053,1.563,1.053c0.217,0,0.481-0.025,0.792-0.076L196.7,102.016z"/>
		<path d="M209.285,101.995h-2.278l-0.836-7.844l-3.189,7.844h-2.234l-1.649-11.033h2.506l0.998,7.627l3.19-7.627h2.191l0.803,7.604
			l3.406-7.604h2.148L209.285,101.995z"/>
		<path d="M218.951,102.277c-0.817,0-1.607-0.181-2.37-0.543c-0.764-0.361-1.346-0.935-1.747-1.719
			c-0.401-0.785-0.602-1.72-0.602-2.805c0-1.758,0.517-3.278,1.551-4.563c1.034-1.283,2.387-1.926,4.058-1.926
			c1.374,0,2.474,0.461,3.299,1.384c0.824,0.922,1.236,2.16,1.236,3.716c0,1.599-0.492,3.074-1.476,4.426
			C221.917,101.6,220.6,102.277,218.951,102.277z M218.974,100.292c0.983,0,1.706-0.508,2.169-1.524s0.694-2.081,0.694-3.195
			c0-1.909-0.737-2.864-2.213-2.864c-1.034,0-1.775,0.547-2.224,1.639c-0.449,1.092-0.673,2.181-0.673,3.266
			c0,0.918,0.217,1.595,0.65,2.028C217.812,100.075,218.344,100.292,218.974,100.292z"/>
		<path d="M228.119,101.995h-2.43l1.844-11.033h2.235l-0.499,3.005c0.947-2.206,2.22-3.309,3.818-3.309
			c0.065,0,0.163,0.003,0.293,0.011l-0.314,2.712c-0.238-0.015-0.42-0.021-0.542-0.021c-0.601,0-1.167,0.159-1.698,0.478
			s-0.947,0.747-1.248,1.285c-0.3,0.539-0.551,1.423-0.754,2.652L228.119,101.995z"/>
		<path d="M243.731,101.995h-2.626l-1.92-5.88l-2.907,2.69l-0.532,3.189h-2.43l2.474-14.809h2.43l-1.486,8.929l5.555-5.153h2.593
			l-3.742,3.482L243.731,101.995z"/>
		<path d="M262.77,97.937c-1.266,2.966-3.222,4.448-5.869,4.448c-1.605,0-2.913-0.58-3.922-1.741s-1.514-2.739-1.514-4.735
			c0-2.496,0.647-4.639,1.942-6.429s2.958-2.685,4.99-2.685c1.584,0,2.839,0.459,3.765,1.378c0.926,0.918,1.454,2.191,1.584,3.818
			l-2.408,0.435c-0.217-2.271-1.215-3.407-2.994-3.407c-1.439,0-2.476,0.854-3.108,2.561s-0.949,3.331-0.949,4.871
			c0,1.201,0.266,2.104,0.797,2.712c0.532,0.608,1.21,0.912,2.034,0.912c0.76,0,1.448-0.295,2.067-0.885
			c0.618-0.589,1.09-1.307,1.415-2.153L262.77,97.937z"/>
		<path d="M268.975,102.277c-0.817,0-1.607-0.181-2.37-0.543c-0.764-0.361-1.346-0.935-1.747-1.719
			c-0.401-0.785-0.602-1.72-0.602-2.805c0-1.758,0.517-3.278,1.551-4.563c1.034-1.283,2.387-1.926,4.058-1.926
			c1.374,0,2.474,0.461,3.299,1.384c0.824,0.922,1.236,2.16,1.236,3.716c0,1.599-0.492,3.074-1.476,4.426
			C271.941,101.6,270.625,102.277,268.975,102.277z M268.998,100.292c0.983,0,1.706-0.508,2.169-1.524s0.694-2.081,0.694-3.195
			c0-1.909-0.737-2.864-2.213-2.864c-1.034,0-1.775,0.547-2.224,1.639c-0.449,1.092-0.673,2.181-0.673,3.266
			c0,0.918,0.217,1.595,0.65,2.028C267.837,100.075,268.368,100.292,268.998,100.292z"/>
		<path d="M284.685,101.995h-2.43l1.128-6.629c0.079-0.499,0.119-0.926,0.119-1.28c0-0.404-0.113-0.746-0.342-1.025
			c-0.228-0.278-0.573-0.417-1.036-0.417c-0.737,0-1.389,0.374-1.952,1.123c-0.564,0.748-0.962,1.835-1.193,3.26l-0.836,4.969h-2.43
			l1.844-11.033h2.257l-0.434,2.571c0.687-1.288,1.323-2.089,1.909-2.403s1.157-0.472,1.714-0.472c0.803,0,1.499,0.272,2.089,0.818
			c0.589,0.547,0.884,1.308,0.884,2.284c0,0.384-0.072,0.994-0.217,1.833L284.685,101.995z"/>
		<path d="M292.811,102.016c-0.73,0.108-1.248,0.163-1.552,0.163c-1.02,0-1.767-0.229-2.24-0.689
			c-0.474-0.459-0.711-1.018-0.711-1.676c0-0.34,0.083-1.002,0.25-1.985l0.835-4.882h-1.638l0.336-1.985h1.66l0.662-2.973
			l2.213-0.152l-0.521,3.125h2.376l-0.326,1.985h-2.387l-0.824,4.914c-0.102,0.607-0.152,0.998-0.152,1.172
			c0,0.702,0.521,1.053,1.563,1.053c0.217,0,0.481-0.025,0.792-0.076L292.811,102.016z"/>
		<path d="M297.205,101.995h-2.43l1.844-11.033h2.235l-0.499,3.005c0.947-2.206,2.22-3.309,3.818-3.309
			c0.065,0,0.163,0.003,0.293,0.011l-0.314,2.712c-0.238-0.015-0.42-0.021-0.542-0.021c-0.601,0-1.167,0.159-1.698,0.478
			s-0.947,0.747-1.248,1.285c-0.3,0.539-0.551,1.423-0.754,2.652L297.205,101.995z"/>
		<path d="M307.414,102.277c-0.817,0-1.607-0.181-2.37-0.543c-0.764-0.361-1.346-0.935-1.747-1.719
			c-0.401-0.785-0.602-1.72-0.602-2.805c0-1.758,0.517-3.278,1.551-4.563c1.034-1.283,2.387-1.926,4.058-1.926
			c1.374,0,2.474,0.461,3.299,1.384c0.824,0.922,1.236,2.16,1.236,3.716c0,1.599-0.492,3.074-1.476,4.426
			C310.38,101.6,309.063,102.277,307.414,102.277z M307.436,100.292c0.983,0,1.706-0.508,2.169-1.524s0.694-2.081,0.694-3.195
			c0-1.909-0.737-2.864-2.213-2.864c-1.034,0-1.775,0.547-2.224,1.639c-0.449,1.092-0.673,2.181-0.673,3.266
			c0,0.918,0.217,1.595,0.65,2.028C306.275,100.075,306.807,100.292,307.436,100.292z"/>
		<path d="M316.701,101.995h-2.549l2.474-14.809h2.549L316.701,101.995z"/>
	</g>
</g>
</svg>
