<?xml version="1.0" encoding="utf-8"?>
<!-- Generator: Adobe Illustrator 22.0.0, SVG Export Plug-In . SVG Version: 6.00 Build 0)  -->
<svg version="1.1" id="Слой_1" xmlns="http://www.w3.org/2000/svg" xmlns:xlink="http://www.w3.org/1999/xlink" x="0px" y="0px"
	 width="75.425px" height="75.244px" viewBox="0 0 75.425 75.244" enable-background="new 0 0 75.425 75.244" xml:space="preserve">
<path fill="#008AD1" d="M62.954,74.863H12.471c-6.6,0-12-5.4-12-12V12.38c0-6.6,5.4-12,12-12h50.483c6.6,0,12,5.4,12,12v50.483
	C74.954,69.463,69.554,74.863,62.954,74.863z"/>
<path fill="#FFFFFF" d="M52.735,58.115h-8.544l-6.723-20.531l-10.531,10.43L25.05,58.115h-8.08l7.551-40.912h8.114l-3.312,17.833
	c-0.066,0.34-0.409,1.779-1.027,4.316c0.795-1.119,1.644-2.128,2.55-3.027l19.075-19.123h8.676L43.794,31.8L52.735,58.115z"/>
</svg>
