<?xml version="1.0" encoding="utf-8"?>
<!-- Generator: Adobe Illustrator 22.0.0, SVG Export Plug-In . SVG Version: 6.00 Build 0)  -->
<svg version="1.1" id="Слой_1" xmlns="http://www.w3.org/2000/svg" xmlns:xlink="http://www.w3.org/1999/xlink" x="0px" y="0px"
	 width="74.946px" height="75.417px" viewBox="0 0 74.946 75.417" enable-background="new 0 0 74.946 75.417" xml:space="preserve">
<linearGradient id="SVGID_1_" gradientUnits="userSpaceOnUse" x1="14.2375" y1="77.9537" x2="60.7086" y2="-2.5366">
	<stop  offset="0" style="stop-color:#2581C4"/>
	<stop  offset="1" style="stop-color:#0075BF;stop-opacity:0.5"/>
</linearGradient>
<path fill="url(#SVGID_1_)" d="M62.714,74.95H12.232c-6.6,0-12-5.4-12-12V12.467c0-6.6,5.4-12,12-12h50.483c6.6,0,12,5.4,12,12
	V62.95C74.714,69.55,69.314,74.95,62.714,74.95z"/>
<g>
	<path fill="#FFFFFF" d="M47.704,58.377h-7.2l-3.512-28.026L24.669,58.377h-6.937L13.049,20.89h7.727l2.664,28.109L35.703,20.89
		h7.113l3.19,28.109L58.153,20.89h6.322L47.704,58.377z"/>
</g>
</svg>
